<svg width="16" height="10" viewBox="0 0 16 10" fill="none" xmlns="http://www.w3.org/2000/svg">
<g clip-path="url(#clip0_211_2)">
<path d="M14.8571 0H1.14286C0.511675 0 0 0.447715 0 1V9C0 9.55229 0.511675 10 1.14286 10H14.8571C15.4883 10 16 9.55229 16 9V1C16 0.447715 15.4883 0 14.8571 0Z" fill="white"/>
<mask id="mask0_211_2" style="mask-type:luminance" maskUnits="userSpaceOnUse" x="0" y="0" width="16" height="10">
<path d="M14.8571 0H1.14286C0.511675 0 0 0.447715 0 1V9C0 9.55229 0.511675 10 1.14286 10H14.8571C15.4883 10 16 9.55229 16 9V1C16 0.447715 15.4883 0 14.8571 0Z" fill="white"/>
</mask>
<g mask="url(#mask0_211_2)">
<path d="M16 0H0V10H16V0Z" fill="#30C6E0"/>
<path fill-rule="evenodd" clip-rule="evenodd" d="M7.99958 7C9.26192 7 10.2853 6.10455 10.2853 5C10.2853 3.89543 9.26192 3 7.99958 3C6.73724 3 5.71387 3.89543 5.71387 5C5.71387 6.10455 6.73724 7 7.99958 7Z" fill="#FFCD4B"/>
<path fill-rule="evenodd" clip-rule="evenodd" d="M7.06759 8.57472L8.00004 7.35677L8.9325 8.57472L9.16873 7.12337L10.6128 7.86667L10.1059 6.46942L11.7755 6.59087L10.626 5.52442L12.1905 4.99997L10.626 4.47553L11.7755 3.40906L10.1059 3.53053L10.6128 2.13326L9.16873 2.87656L8.9325 1.42523L8.00004 2.64316L7.06759 1.42523L6.83136 2.87656L5.38733 2.13326L5.89422 3.53053L4.22456 3.40906L5.37408 4.47553L3.80957 4.99997L5.37408 5.52442L4.22456 6.59087L5.89422 6.46942L5.38733 7.86667L6.83136 7.12337L7.06759 8.57472ZM10.6667 4.99997C10.6667 6.28862 9.47279 7.33332 8.00004 7.33332C6.5273 7.33332 5.33338 6.28862 5.33338 4.99997C5.33338 3.71131 6.5273 2.66664 8.00004 2.66664C9.47279 2.66664 10.6667 3.71131 10.6667 4.99997Z" fill="#FFCD4B"/>
<path fill-rule="evenodd" clip-rule="evenodd" d="M0.761719 0.833296C0.761719 0.741246 0.846999 0.666626 0.952193 0.666626H1.33315C1.43834 0.666626 1.52362 0.741246 1.52362 0.833296V1.16663C1.52362 1.25868 1.43834 1.3333 1.33315 1.3333H0.952193C0.846999 1.3333 0.761719 1.25868 0.761719 1.16663V0.833296ZM0.761719 2.16663C0.761719 2.07458 0.846999 1.99996 0.952193 1.99996H1.33315C1.43834 1.99996 1.52362 2.07458 1.52362 2.16663V2.49996C1.52362 2.59201 1.43834 2.66663 1.33315 2.66663H0.952193C0.846999 2.66663 0.761719 2.59201 0.761719 2.49996V2.16663ZM0.952193 3.3333C0.846999 3.3333 0.761719 3.40792 0.761719 3.49996V3.8333C0.761719 3.92534 0.846999 3.99996 0.952193 3.99996H1.33315C1.43834 3.99996 1.52362 3.92534 1.52362 3.8333V3.49996C1.52362 3.40792 1.43834 3.3333 1.33315 3.3333H0.952193ZM0.761719 4.8333C0.761719 4.74125 0.846999 4.66663 0.952193 4.66663H1.33315C1.43834 4.66663 1.52362 4.74125 1.52362 4.8333V5.16662C1.52362 5.25867 1.43834 5.33327 1.33315 5.33327H0.952193C0.846999 5.33327 0.761719 5.25867 0.761719 5.16662V4.8333ZM0.952193 5.99997C0.846999 5.99997 0.761719 6.07457 0.761719 6.16662V6.49997C0.761719 6.59202 0.846999 6.66662 0.952193 6.66662H1.33315C1.43834 6.66662 1.52362 6.59202 1.52362 6.49997V6.16662C1.52362 6.07457 1.43834 5.99997 1.33315 5.99997H0.952193ZM0.761719 7.49997C0.761719 7.40792 0.846999 7.33327 0.952193 7.33327H1.33315C1.43834 7.33327 1.52362 7.40792 1.52362 7.49997V7.83327C1.52362 7.92532 1.43834 7.99997 1.33315 7.99997H0.952193C0.846999 7.99997 0.761719 7.92532 0.761719 7.83327V7.49997ZM0.952193 8.66662C0.846999 8.66662 0.761719 8.74127 0.761719 8.83327V9.16662C0.761719 9.25867 0.846999 9.33327 0.952193 9.33327H1.33315C1.43834 9.33327 1.52362 9.25867 1.52362 9.16662V8.83327C1.52362 8.74127 1.43834 8.66662 1.33315 8.66662H0.952193ZM1.52362 8.16662C1.52362 8.07457 1.6089 7.99997 1.7141 7.99997H2.09505C2.20025 7.99997 2.28552 8.07457 2.28552 8.16662V8.49997C2.28552 8.59202 2.20025 8.66662 2.09505 8.66662H1.7141C1.6089 8.66662 1.52362 8.59202 1.52362 8.49997V8.16662ZM1.7141 6.66662C1.6089 6.66662 1.52362 6.74127 1.52362 6.83327V7.16662C1.52362 7.25867 1.6089 7.33327 1.7141 7.33327H2.09505C2.20025 7.33327 2.28552 7.25867 2.28552 7.16662V6.83327C2.28552 6.74127 2.20025 6.66662 2.09505 6.66662H1.7141ZM1.52362 5.49997C1.52362 5.40792 1.6089 5.33327 1.7141 5.33327H2.09505C2.20025 5.33327 2.28552 5.40792 2.28552 5.49997V5.83327C2.28552 5.92532 2.20025 5.99997 2.09505 5.99997H1.7141C1.6089 5.99997 1.52362 5.92532 1.52362 5.83327V5.49997ZM1.7141 3.99996C1.6089 3.99996 1.52362 4.07458 1.52362 4.16663V4.49996C1.52362 4.59201 1.6089 4.66663 1.7141 4.66663H2.09505C2.20025 4.66663 2.28552 4.59201 2.28552 4.49996V4.16663C2.28552 4.07458 2.20025 3.99996 2.09505 3.99996H1.7141ZM1.52362 2.8333C1.52362 2.74125 1.6089 2.66663 1.7141 2.66663H2.09505C2.20025 2.66663 2.28552 2.74125 2.28552 2.8333V3.16663C2.28552 3.25868 2.20025 3.3333 2.09505 3.3333H1.7141C1.6089 3.3333 1.52362 3.25868 1.52362 3.16663V2.8333ZM1.7141 1.3333C1.6089 1.3333 1.52362 1.40792 1.52362 1.49996V1.8333C1.52362 1.92534 1.6089 1.99996 1.7141 1.99996H2.09505C2.20025 1.99996 2.28552 1.92534 2.28552 1.8333V1.49996C2.28552 1.40791 2.20025 1.3333 2.09505 1.3333H1.7141Z" fill="#FFCD4B"/>
</g>
</g>
<defs>
<clipPath id="clip0_211_2">
<rect width="16" height="10" fill="white"/>
</clipPath>
</defs>
</svg>
