<svg width="50" height="36" viewBox="0 0 50 36" fill="none" xmlns="http://www.w3.org/2000/svg">
<g clip-path="url(#clip0_80_17)">
<rect x="0.25" y="0.25" width="49.5" height="35.2143" rx="1.75" fill="white" stroke="#F5F5F5" stroke-width="0.5"/>
<mask id="mask0_80_17" style="mask-type:luminance" maskUnits="userSpaceOnUse" x="0" y="0" width="50" height="36">
<rect x="0.25" y="0.25" width="49.5" height="35.2143" rx="1.75" fill="white" stroke="white" stroke-width="0.5"/>
</mask>
<g mask="url(#mask0_80_17)">
<path fill-rule="evenodd" clip-rule="evenodd" d="M0 11.9048H50V0H0V11.9048Z" fill="#04AAC8"/>
<path fill-rule="evenodd" clip-rule="evenodd" d="M0 35.7143H50V23.8095H0V35.7143Z" fill="#23C840"/>
<path fill-rule="evenodd" clip-rule="evenodd" d="M8.33364 9.52379C9.06808 9.52379 9.75074 9.3021 10.3184 8.92199C10.2525 8.92634 10.186 8.92855 10.119 8.92855C8.47534 8.92855 7.14286 7.59607 7.14286 5.95236C7.14286 4.30866 8.47534 2.97617 10.119 2.97617C10.186 2.97617 10.2525 2.97838 10.3184 2.98274C9.75074 2.60263 9.06808 2.38094 8.33364 2.38094C6.36119 2.38094 4.76221 3.97992 4.76221 5.95236C4.76221 7.92481 6.36119 9.52379 8.33364 9.52379ZM14.2859 8.33333C14.2859 8.99082 13.753 9.52381 13.0955 9.52381C12.438 9.52381 11.905 8.99082 11.905 8.33333C11.905 7.67585 12.438 7.14286 13.0955 7.14286C13.753 7.14286 14.2859 7.67585 14.2859 8.33333ZM17.8574 4.76189C18.5149 4.76189 19.0479 4.2289 19.0479 3.57141C19.0479 2.91393 18.5149 2.38094 17.8574 2.38094C17.2 2.38094 16.667 2.91393 16.667 3.57141C16.667 4.2289 17.2 4.76189 17.8574 4.76189ZM23.8095 3.57141C23.8095 4.2289 23.2765 4.76189 22.619 4.76189C21.9616 4.76189 21.4286 4.2289 21.4286 3.57141C21.4286 2.91393 21.9616 2.38094 22.619 2.38094C23.2765 2.38094 23.8095 2.91393 23.8095 3.57141ZM22.619 9.52381C23.2765 9.52381 23.8095 8.99082 23.8095 8.33333C23.8095 7.67585 23.2765 7.14286 22.619 7.14286C21.9616 7.14286 21.4286 7.67585 21.4286 8.33333C21.4286 8.99082 21.9616 9.52381 22.619 9.52381ZM19.0479 8.33333C19.0479 8.99082 18.5149 9.52381 17.8574 9.52381C17.2 9.52381 16.667 8.99082 16.667 8.33333C16.667 7.67585 17.2 7.14286 17.8574 7.14286C18.5149 7.14286 19.0479 7.67585 19.0479 8.33333Z" fill="white"/>
</g>
</g>
<rect x="0.5" y="0.5" width="49" height="34.7143" rx="4.5" stroke="#232323"/>
<defs>
<clipPath id="clip0_80_17">
<rect width="50" height="35.7143" rx="5" fill="white"/>
</clipPath>
</defs>
</svg>
