<svg width="50" height="36" viewBox="0 0 50 36" fill="none" xmlns="http://www.w3.org/2000/svg">
<g clip-path="url(#clip0_9_109)">
<path d="M46.4286 0H3.57143C1.59898 0 0 1.59898 0 3.57143V32.1429C0 34.1153 1.59898 35.7143 3.57143 35.7143H46.4286C48.401 35.7143 50 34.1153 50 32.1429V3.57143C50 1.59898 48.401 0 46.4286 0Z" fill="white"/>
<mask id="mask0_9_109" style="mask-type:luminance" maskUnits="userSpaceOnUse" x="0" y="0" width="50" height="36">
<path d="M46.4286 0H3.57143C1.59898 0 0 1.59898 0 3.57143V32.1429C0 34.1153 1.59898 35.7143 3.57143 35.7143H46.4286C48.401 35.7143 50 34.1153 50 32.1429V3.57143C50 1.59898 48.401 0 46.4286 0Z" fill="white"/>
</mask>
<g mask="url(#mask0_9_109)">
<path d="M50 0H0V35.7143H50V0Z" fill="#30C6E0"/>
<path fill-rule="evenodd" clip-rule="evenodd" d="M25 25C28.9449 25 32.1429 21.802 32.1429 17.8571C32.1429 13.9122 28.9449 10.7143 25 10.7143C21.0552 10.7143 17.8572 13.9122 17.8572 17.8571C17.8572 21.802 21.0552 25 25 25Z" fill="#FFCD4B"/>
<path fill-rule="evenodd" clip-rule="evenodd" d="M22.0861 30.6241L25 26.2743L27.9139 30.6241L28.6522 25.4407L33.1648 28.0954L31.5809 23.1052L36.7984 23.5389L33.2061 19.7302L38.0952 17.8571L33.2061 15.9841L36.7984 12.1753L31.5809 12.6091L33.1648 7.61887L28.6522 10.2735L27.9139 5.09021L25 9.43996L22.0861 5.09021L21.3479 10.2735L16.8353 7.61887L18.4193 12.6091L13.2016 12.1753L16.7939 15.9841L11.9048 17.8571L16.7939 19.7302L13.2016 23.5389L18.4193 23.1052L16.8353 28.0954L21.3479 25.4407L22.0861 30.6241ZM33.3334 17.8571C33.3334 22.4595 29.6023 26.1905 25 26.1905C20.3977 26.1905 16.6667 22.4595 16.6667 17.8571C16.6667 13.2548 20.3977 9.5238 25 9.5238C29.6023 9.5238 33.3334 13.2548 33.3334 17.8571Z" fill="#FFCD4B"/>
<path fill-rule="evenodd" clip-rule="evenodd" d="M2.38086 2.97616C2.38086 2.64741 2.64736 2.38091 2.97609 2.38091H4.16657C4.49531 2.38091 4.76181 2.64741 4.76181 2.97616V4.16662C4.76181 4.49537 4.49531 4.76187 4.16657 4.76187H2.97609C2.64736 4.76187 2.38086 4.49537 2.38086 4.16662V2.97616ZM2.38086 7.73805C2.38086 7.40932 2.64736 7.14282 2.97609 7.14282H4.16657C4.49531 7.14282 4.76181 7.40932 4.76181 7.73805V8.92853C4.76181 9.25726 4.49531 9.52376 4.16657 9.52376H2.97609C2.64736 9.52376 2.38086 9.25726 2.38086 8.92853V7.73805ZM2.97609 11.9047C2.64736 11.9047 2.38086 12.1712 2.38086 12.5V13.6904C2.38086 14.0192 2.64736 14.2857 2.97609 14.2857H4.16657C4.49531 14.2857 4.76181 14.0192 4.76181 13.6904V12.5C4.76181 12.1712 4.49531 11.9047 4.16657 11.9047H2.97609ZM2.38086 17.2619C2.38086 16.9331 2.64736 16.6666 2.97609 16.6666H4.16657C4.49531 16.6666 4.76181 16.9331 4.76181 17.2619V18.4523C4.76181 18.7811 4.49531 19.0475 4.16657 19.0475H2.97609C2.64736 19.0475 2.38086 18.7811 2.38086 18.4523V17.2619ZM2.97609 21.4286C2.64736 21.4286 2.38086 21.695 2.38086 22.0237V23.2143C2.38086 23.543 2.64736 23.8095 2.97609 23.8095H4.16657C4.49531 23.8095 4.76181 23.543 4.76181 23.2143V22.0237C4.76181 21.695 4.49531 21.4286 4.16657 21.4286H2.97609ZM2.38086 26.7857C2.38086 26.457 2.64736 26.1904 2.97609 26.1904H4.16657C4.49531 26.1904 4.76181 26.457 4.76181 26.7857V27.9761C4.76181 28.3048 4.49531 28.5714 4.16657 28.5714H2.97609C2.64736 28.5714 2.38086 28.3048 2.38086 27.9761V26.7857ZM2.97609 30.9523C2.64736 30.9523 2.38086 31.2189 2.38086 31.5475V32.738C2.38086 33.0668 2.64736 33.3332 2.97609 33.3332H4.16657C4.49531 33.3332 4.76181 33.0668 4.76181 32.738V31.5475C4.76181 31.2189 4.49531 30.9523 4.16657 30.9523H2.97609ZM4.76181 29.1666C4.76181 28.8379 5.02831 28.5714 5.35704 28.5714H6.54752C6.87627 28.5714 7.14275 28.8379 7.14275 29.1666V30.3571C7.14275 30.6859 6.87627 30.9523 6.54752 30.9523H5.35706C5.02831 30.9523 4.76181 30.6859 4.76181 30.3571V29.1666ZM5.35704 23.8095C5.02831 23.8095 4.76181 24.0761 4.76181 24.4046V25.5952C4.76181 25.9239 5.02831 26.1904 5.35706 26.1904H6.54752C6.87627 26.1904 7.14275 25.9239 7.14275 25.5952V24.4046C7.14275 24.0761 6.87627 23.8095 6.54752 23.8095H5.35704ZM4.76181 19.6429C4.76181 19.3141 5.02831 19.0475 5.35704 19.0475H6.54752C6.87627 19.0475 7.14275 19.3141 7.14275 19.6429V20.8332C7.14275 21.162 6.87627 21.4286 6.54752 21.4286H5.35706C5.02831 21.4286 4.76181 21.162 4.76181 20.8332V19.6429ZM5.35704 14.2857C5.02831 14.2857 4.76181 14.5522 4.76181 14.8809V16.0714C4.76181 16.4001 5.02831 16.6666 5.35706 16.6666H6.54752C6.87627 16.6666 7.14275 16.4001 7.14275 16.0714V14.8809C7.14275 14.5522 6.87627 14.2857 6.54752 14.2857H5.35704ZM4.76181 10.119C4.76181 9.79026 5.02831 9.52376 5.35704 9.52376H6.54752C6.87627 9.52376 7.14275 9.79026 7.14275 10.119V11.3095C7.14275 11.6382 6.87627 11.9047 6.54752 11.9047H5.35706C5.02831 11.9047 4.76181 11.6382 4.76181 11.3095V10.119ZM5.35704 4.76187C5.02831 4.76187 4.76181 5.02837 4.76181 5.3571V6.54758C4.76181 6.87632 5.02831 7.14282 5.35706 7.14282H6.54752C6.87627 7.14282 7.14275 6.87632 7.14275 6.54758V5.3571C7.14275 5.02835 6.87627 4.76187 6.54752 4.76187H5.35704Z" fill="#FFCD4B"/>
</g>
</g>
<rect x="0.5" y="0.5" width="49" height="34.7143" rx="4.5" stroke="#30C6E0"/>
<defs>
<clipPath id="clip0_9_109">
<rect width="50" height="35.7143" rx="5" fill="white"/>
</clipPath>
</defs>
</svg>
