<svg width="50" height="36" viewBox="0 0 50 36" fill="none" xmlns="http://www.w3.org/2000/svg">
<g clip-path="url(#clip0_9_89)">
<path d="M46.4286 0H3.57143C1.59898 0 0 1.59898 0 3.57143V32.1429C0 34.1153 1.59898 35.7143 3.57143 35.7143H46.4286C48.401 35.7143 50 34.1153 50 32.1429V3.57143C50 1.59898 48.401 0 46.4286 0Z" fill="white"/>
<mask id="mask0_9_89" style="mask-type:luminance" maskUnits="userSpaceOnUse" x="0" y="0" width="50" height="36">
<path d="M46.4286 0H3.57143C1.59898 0 0 1.59898 0 3.57143V32.1429C0 34.1153 1.59898 35.7143 3.57143 35.7143H46.4286C48.401 35.7143 50 34.1153 50 32.1429V3.57143C50 1.59898 48.401 0 46.4286 0Z" fill="white"/>
</mask>
<g mask="url(#mask0_9_89)">
<path fill-rule="evenodd" clip-rule="evenodd" d="M0 11.9048H50V0H0V11.9048Z" fill="#24AAD5"/>
<path fill-rule="evenodd" clip-rule="evenodd" d="M0 35.7143H50V23.8095H0V35.7143Z" fill="#21BF75"/>
<path fill-rule="evenodd" clip-rule="evenodd" d="M0 23.8095H50V11.9048H0V23.8095Z" fill="#ED1845"/>
<g filter="url(#filter0_d_9_89)">
<path fill-rule="evenodd" clip-rule="evenodd" d="M24.9999 21.4286C25.7344 21.4286 26.417 21.207 26.9845 20.8268C26.9188 20.8311 26.8524 20.8334 26.7856 20.8334C25.1419 20.8334 23.8094 19.5009 23.8094 17.8571C23.8094 16.2135 25.1419 14.881 26.7856 14.881C26.8524 14.881 26.9188 14.8832 26.9845 14.8875C26.417 14.5074 25.7344 14.2857 24.9999 14.2857C23.0274 14.2857 21.4285 15.8847 21.4285 17.8571C21.4285 19.8296 23.0274 21.4286 24.9999 21.4286ZM28.5713 17.8571C28.5713 18.5146 28.0383 19.0477 27.3808 19.0477C26.7233 19.0477 26.1904 18.5146 26.1904 17.8571C26.1904 17.1997 26.7233 16.6667 27.3808 16.6667C28.0383 16.6667 28.5713 17.1997 28.5713 17.8571Z" fill="white"/>
</g>
</g>
</g>
<defs>
<filter id="filter0_d_9_89" x="21.4285" y="14.2857" width="7.14282" height="8.14286" filterUnits="userSpaceOnUse" color-interpolation-filters="sRGB">
<feFlood flood-opacity="0" result="BackgroundImageFix"/>
<feColorMatrix in="SourceAlpha" type="matrix" values="0 0 0 0 0 0 0 0 0 0 0 0 0 0 0 0 0 0 127 0" result="hardAlpha"/>
<feOffset dy="1"/>
<feColorMatrix type="matrix" values="0 0 0 0 0 0 0 0 0 0 0 0 0 0 0 0 0 0 0.06 0"/>
<feBlend mode="normal" in2="BackgroundImageFix" result="effect1_dropShadow_9_89"/>
<feBlend mode="normal" in="SourceGraphic" in2="effect1_dropShadow_9_89" result="shape"/>
</filter>
<clipPath id="clip0_9_89">
<rect width="50" height="35.7143" rx="5" fill="white"/>
</clipPath>
</defs>
</svg>
