<svg width="50" height="36" viewBox="0 0 50 36" fill="none" xmlns="http://www.w3.org/2000/svg">
<g clip-path="url(#clip0_9_100)">
<path d="M46.4286 0H3.57143C1.59898 0 0 1.59898 0 3.57143V32.1429C0 34.1153 1.59898 35.7143 3.57143 35.7143H46.4286C48.401 35.7143 50 34.1153 50 32.1429V3.57143C50 1.59898 48.401 0 46.4286 0Z" fill="white"/>
<mask id="mask0_9_100" style="mask-type:luminance" maskUnits="userSpaceOnUse" x="0" y="0" width="50" height="36">
<path d="M46.4286 0H3.57143C1.59898 0 0 1.59898 0 3.57143V32.1429C0 34.1153 1.59898 35.7143 3.57143 35.7143H46.4286C48.401 35.7143 50 34.1153 50 32.1429V3.57143C50 1.59898 48.401 0 46.4286 0Z" fill="white"/>
</mask>
<g mask="url(#mask0_9_100)">
<path d="M50 0H0V35.7143H50V0Z" fill="#E92434"/>
<path fill-rule="evenodd" clip-rule="evenodd" d="M33.9656 19.2291L31.7785 21.8809L31.9276 18.4468L28.7297 17.1861L32.0417 16.2666L32.2526 12.8356L34.1506 15.7015L37.4787 14.8418L35.3396 17.5325L37.1858 20.432L33.9656 19.2291Z" fill="white"/>
<path fill-rule="evenodd" clip-rule="evenodd" d="M31.0764 24.4359C29.1159 26.9527 26.0564 28.5714 22.6191 28.5714C16.7017 28.5714 11.9048 23.7745 11.9048 17.8571C11.9048 11.9398 16.7017 7.14285 22.6191 7.14285C26.0564 7.14285 29.1159 8.76158 31.0764 11.2784C29.5636 10.1788 27.6612 9.5238 25.5953 9.5238C20.6641 9.5238 16.6667 13.2548 16.6667 17.8571C16.6667 22.4595 20.6641 26.1905 25.5953 26.1905C27.6612 26.1905 29.5636 25.5355 31.0764 24.4359Z" fill="white"/>
</g>
</g>
<defs>
<clipPath id="clip0_9_100">
<rect width="50" height="35.7143" rx="5" fill="white"/>
</clipPath>
</defs>
</svg>
