<svg width="280" height="56" viewBox="0 0 280 56" fill="none" xmlns="http://www.w3.org/2000/svg">
<g clip-path="url(#clip0_56_12)">
<path d="M35.4439 14.3925L48.4459 10.9128L57.964 20.4197L54.4801 33.4063L41.4782 36.886L31.96 27.3792L35.4439 14.3925Z" fill="url(#paint0_linear_56_12)"/>
<path d="M9.51812 7.5068L22.5201 4.02704L32.0382 13.5339L28.5544 26.5205L15.5524 30.0003L6.03425 20.4934L9.51812 7.5068Z" fill="url(#paint1_linear_56_12)"/>
<path d="M16.4908 33.4795L29.4928 29.9997L39.0109 39.5066L35.527 52.4932L22.525 55.973L13.0069 46.4661L16.4908 33.4795Z" fill="url(#paint2_linear_56_12)"/>
<path d="M80.36 28H75.8V9.88H80.36V28ZM103.924 14.44H95.6138V28H90.9338V14.44H82.6238V9.88H103.924V14.44Z" fill="#00B2FF"/>
<path d="M138.449 9.88L128.549 28H123.869L113.969 9.88H119.549L126.239 22.78L132.899 9.88H138.449ZM159.745 28H143.005L138.445 23.41V14.44L143.005 9.88H159.745V14.44H143.005V16.75H159.745V21.1H143.005V23.41H159.745V28ZM183.3 28H166.56L162 23.41V14.44L166.56 9.88H183.3V14.44H166.56V23.41H183.3V28ZM205.936 14.44H197.626V28H192.946V14.44H184.636V9.88H205.936V14.44ZM229.043 23.41L224.483 28H212.303L207.743 23.41V9.88H212.303V23.41H224.483V9.88H229.043V23.41ZM253.487 28H245.177L240.497 23.41V21.1H236.747V28H232.187V9.88H248.927L253.487 14.44V16.75L248.927 21.1H245.177V23.41H253.487V28ZM248.927 16.75V14.44H236.747V16.75H248.927ZM277.031 28H272.471V21.1H260.291V28H255.731V14.44L260.291 9.88H272.471L277.031 14.44V28ZM272.471 16.75V14.44H260.291V16.75H272.471Z" fill="white"/>
<path d="M75.482 51V41.9H76.444V50.168H81.54V51H75.482ZM85.6227 51.065C84.964 51.065 84.3704 50.9177 83.8417 50.623C83.3217 50.3197 82.91 49.908 82.6067 49.388C82.3034 48.8593 82.1517 48.257 82.1517 47.581C82.1517 46.8963 82.3034 46.294 82.6067 45.774C82.91 45.254 83.3217 44.8467 83.8417 44.552C84.3617 44.2573 84.9554 44.11 85.6227 44.11C86.2987 44.11 86.8967 44.2573 87.4167 44.552C87.9454 44.8467 88.357 45.254 88.6517 45.774C88.955 46.294 89.1067 46.8963 89.1067 47.581C89.1067 48.257 88.955 48.8593 88.6517 49.388C88.357 49.908 87.9454 50.3197 87.4167 50.623C86.888 50.9177 86.29 51.065 85.6227 51.065ZM85.6227 50.246C86.1167 50.246 86.5544 50.1377 86.9357 49.921C87.317 49.6957 87.616 49.3837 87.8327 48.985C88.058 48.5777 88.1707 48.1097 88.1707 47.581C88.1707 47.0437 88.058 46.5757 87.8327 46.177C87.616 45.7783 87.317 45.4707 86.9357 45.254C86.5544 45.0287 86.121 44.916 85.6357 44.916C85.1504 44.916 84.717 45.0287 84.3357 45.254C83.9544 45.4707 83.651 45.7783 83.4257 46.177C83.2004 46.5757 83.0877 47.0437 83.0877 47.581C83.0877 48.1097 83.2004 48.5777 83.4257 48.985C83.651 49.3837 83.9544 49.6957 84.3357 49.921C84.717 50.1377 85.146 50.246 85.6227 50.246ZM93.9031 53.587C93.2791 53.587 92.6811 53.496 92.1091 53.314C91.5371 53.132 91.0734 52.872 90.7181 52.534L91.1861 51.832C91.5068 52.118 91.9011 52.3433 92.3691 52.508C92.8458 52.6813 93.3484 52.768 93.8771 52.768C94.7438 52.768 95.3808 52.5643 95.7881 52.157C96.1954 51.7583 96.3991 51.1343 96.3991 50.285V48.582L96.5291 47.412L96.4381 46.242V44.175H97.3221V50.168C97.3221 51.3467 97.0318 52.209 96.4511 52.755C95.8791 53.3097 95.0298 53.587 93.9031 53.587ZM93.7341 50.74C93.0841 50.74 92.4991 50.6013 91.9791 50.324C91.4591 50.038 91.0474 49.6437 90.7441 49.141C90.4494 48.6383 90.3021 48.062 90.3021 47.412C90.3021 46.762 90.4494 46.19 90.7441 45.696C91.0474 45.1933 91.4591 44.8033 91.9791 44.526C92.4991 44.2487 93.0841 44.11 93.7341 44.11C94.3408 44.11 94.8868 44.2357 95.3721 44.487C95.8574 44.7383 96.2431 45.111 96.5291 45.605C96.8151 46.099 96.9581 46.7013 96.9581 47.412C96.9581 48.1227 96.8151 48.725 96.5291 49.219C96.2431 49.713 95.8574 50.09 95.3721 50.35C94.8868 50.61 94.3408 50.74 93.7341 50.74ZM93.8251 49.921C94.3278 49.921 94.7741 49.817 95.1641 49.609C95.5541 49.3923 95.8618 49.0977 96.0871 48.725C96.3124 48.3437 96.4251 47.906 96.4251 47.412C96.4251 46.918 96.3124 46.4847 96.0871 46.112C95.8618 45.7393 95.5541 45.449 95.1641 45.241C94.7741 45.0243 94.3278 44.916 93.8251 44.916C93.3311 44.916 92.8848 45.0243 92.4861 45.241C92.0961 45.449 91.7884 45.7393 91.5631 46.112C91.3464 46.4847 91.2381 46.918 91.2381 47.412C91.2381 47.906 91.3464 48.3437 91.5631 48.725C91.7884 49.0977 92.0961 49.3923 92.4861 49.609C92.8848 49.817 93.3311 49.921 93.8251 49.921ZM99.8905 51V44.175H100.814V51H99.8905ZM100.359 42.667C100.168 42.667 100.008 42.602 99.8775 42.472C99.7475 42.342 99.6825 42.186 99.6825 42.004C99.6825 41.822 99.7475 41.6703 99.8775 41.549C100.008 41.419 100.168 41.354 100.359 41.354C100.549 41.354 100.71 41.4147 100.84 41.536C100.97 41.6573 101.035 41.809 101.035 41.991C101.035 42.1817 100.97 42.342 100.84 42.472C100.718 42.602 100.558 42.667 100.359 42.667ZM105.215 51.065C104.651 51.065 104.118 50.987 103.616 50.831C103.113 50.6663 102.719 50.4627 102.433 50.22L102.849 49.492C103.126 49.7 103.481 49.882 103.915 50.038C104.348 50.1853 104.803 50.259 105.28 50.259C105.93 50.259 106.398 50.1593 106.684 49.96C106.97 49.752 107.113 49.479 107.113 49.141C107.113 48.8897 107.03 48.6947 106.866 48.556C106.71 48.4087 106.502 48.3003 106.242 48.231C105.982 48.153 105.691 48.088 105.371 48.036C105.05 47.984 104.729 47.9233 104.409 47.854C104.097 47.7847 103.811 47.685 103.551 47.555C103.291 47.4163 103.078 47.23 102.914 46.996C102.758 46.762 102.68 46.45 102.68 46.06C102.68 45.6873 102.784 45.3537 102.992 45.059C103.2 44.7643 103.503 44.5347 103.902 44.37C104.309 44.1967 104.803 44.11 105.384 44.11C105.826 44.11 106.268 44.1707 106.71 44.292C107.152 44.4047 107.516 44.5563 107.802 44.747L107.399 45.488C107.095 45.28 106.77 45.1327 106.424 45.046C106.077 44.9507 105.73 44.903 105.384 44.903C104.768 44.903 104.313 45.0113 104.019 45.228C103.733 45.436 103.59 45.7047 103.59 46.034C103.59 46.294 103.668 46.4977 103.824 46.645C103.988 46.7923 104.201 46.9093 104.461 46.996C104.729 47.074 105.02 47.139 105.332 47.191C105.652 47.243 105.969 47.308 106.281 47.386C106.601 47.4553 106.892 47.555 107.152 47.685C107.42 47.8063 107.633 47.984 107.789 48.218C107.953 48.4433 108.036 48.7423 108.036 49.115C108.036 49.5137 107.923 49.8603 107.698 50.155C107.481 50.441 107.16 50.6663 106.736 50.831C106.32 50.987 105.813 51.065 105.215 51.065ZM111.887 51.065C111.246 51.065 110.752 50.8917 110.405 50.545C110.059 50.1983 109.885 49.7087 109.885 49.076V42.667H110.808V49.024C110.808 49.4227 110.908 49.7303 111.107 49.947C111.315 50.1637 111.61 50.272 111.991 50.272C112.399 50.272 112.737 50.155 113.005 49.921L113.33 50.584C113.148 50.7487 112.927 50.87 112.667 50.948C112.416 51.026 112.156 51.065 111.887 51.065ZM108.663 44.942V44.175H112.888V44.942H108.663ZM115.011 51V44.175H115.934V51H115.011ZM115.479 42.667C115.288 42.667 115.128 42.602 114.998 42.472C114.868 42.342 114.803 42.186 114.803 42.004C114.803 41.822 114.868 41.6703 114.998 41.549C115.128 41.419 115.288 41.354 115.479 41.354C115.669 41.354 115.83 41.4147 115.96 41.536C116.09 41.6573 116.155 41.809 116.155 41.991C116.155 42.1817 116.09 42.342 115.96 42.472C115.838 42.602 115.678 42.667 115.479 42.667ZM121.336 51.065C120.66 51.065 120.053 50.9177 119.516 50.623C118.987 50.3197 118.571 49.908 118.268 49.388C117.965 48.8593 117.813 48.257 117.813 47.581C117.813 46.8963 117.965 46.294 118.268 45.774C118.571 45.254 118.987 44.8467 119.516 44.552C120.053 44.2573 120.66 44.11 121.336 44.11C121.917 44.11 122.441 44.2227 122.909 44.448C123.377 44.6733 123.745 45.0113 124.014 45.462L123.325 45.93C123.091 45.5833 122.801 45.3277 122.454 45.163C122.107 44.9983 121.73 44.916 121.323 44.916C120.838 44.916 120.4 45.0287 120.01 45.254C119.62 45.4707 119.312 45.7783 119.087 46.177C118.862 46.5757 118.749 47.0437 118.749 47.581C118.749 48.1183 118.862 48.5863 119.087 48.985C119.312 49.3837 119.62 49.6957 120.01 49.921C120.4 50.1377 120.838 50.246 121.323 50.246C121.73 50.246 122.107 50.1637 122.454 49.999C122.801 49.8343 123.091 49.583 123.325 49.245L124.014 49.713C123.745 50.155 123.377 50.493 122.909 50.727C122.441 50.9523 121.917 51.065 121.336 51.065ZM127.66 51.065C127.097 51.065 126.564 50.987 126.061 50.831C125.558 50.6663 125.164 50.4627 124.878 50.22L125.294 49.492C125.571 49.7 125.927 49.882 126.36 50.038C126.793 50.1853 127.248 50.259 127.725 50.259C128.375 50.259 128.843 50.1593 129.129 49.96C129.415 49.752 129.558 49.479 129.558 49.141C129.558 48.8897 129.476 48.6947 129.311 48.556C129.155 48.4087 128.947 48.3003 128.687 48.231C128.427 48.153 128.137 48.088 127.816 48.036C127.495 47.984 127.175 47.9233 126.854 47.854C126.542 47.7847 126.256 47.685 125.996 47.555C125.736 47.4163 125.524 47.23 125.359 46.996C125.203 46.762 125.125 46.45 125.125 46.06C125.125 45.6873 125.229 45.3537 125.437 45.059C125.645 44.7643 125.948 44.5347 126.347 44.37C126.754 44.1967 127.248 44.11 127.829 44.11C128.271 44.11 128.713 44.1707 129.155 44.292C129.597 44.4047 129.961 44.5563 130.247 44.747L129.844 45.488C129.541 45.28 129.216 45.1327 128.869 45.046C128.522 44.9507 128.176 44.903 127.829 44.903C127.214 44.903 126.759 45.0113 126.464 45.228C126.178 45.436 126.035 45.7047 126.035 46.034C126.035 46.294 126.113 46.4977 126.269 46.645C126.434 46.7923 126.646 46.9093 126.906 46.996C127.175 47.074 127.465 47.139 127.777 47.191C128.098 47.243 128.414 47.308 128.726 47.386C129.047 47.4553 129.337 47.555 129.597 47.685C129.866 47.8063 130.078 47.984 130.234 48.218C130.399 48.4433 130.481 48.7423 130.481 49.115C130.481 49.5137 130.368 49.8603 130.143 50.155C129.926 50.441 129.606 50.6663 129.181 50.831C128.765 50.987 128.258 51.065 127.66 51.065ZM135.772 51V41.9H136.734V51H135.772ZM141.463 51V42.732H138.265V41.9H145.623V42.732H142.425V51H141.463ZM152.2 51.065C151.637 51.065 151.104 50.987 150.601 50.831C150.098 50.6663 149.704 50.4627 149.418 50.22L149.834 49.492C150.111 49.7 150.467 49.882 150.9 50.038C151.333 50.1853 151.788 50.259 152.265 50.259C152.915 50.259 153.383 50.1593 153.669 49.96C153.955 49.752 154.098 49.479 154.098 49.141C154.098 48.8897 154.016 48.6947 153.851 48.556C153.695 48.4087 153.487 48.3003 153.227 48.231C152.967 48.153 152.677 48.088 152.356 48.036C152.035 47.984 151.715 47.9233 151.394 47.854C151.082 47.7847 150.796 47.685 150.536 47.555C150.276 47.4163 150.064 47.23 149.899 46.996C149.743 46.762 149.665 46.45 149.665 46.06C149.665 45.6873 149.769 45.3537 149.977 45.059C150.185 44.7643 150.488 44.5347 150.887 44.37C151.294 44.1967 151.788 44.11 152.369 44.11C152.811 44.11 153.253 44.1707 153.695 44.292C154.137 44.4047 154.501 44.5563 154.787 44.747L154.384 45.488C154.081 45.28 153.756 45.1327 153.409 45.046C153.062 44.9507 152.716 44.903 152.369 44.903C151.754 44.903 151.299 45.0113 151.004 45.228C150.718 45.436 150.575 45.7047 150.575 46.034C150.575 46.294 150.653 46.4977 150.809 46.645C150.974 46.7923 151.186 46.9093 151.446 46.996C151.715 47.074 152.005 47.139 152.317 47.191C152.638 47.243 152.954 47.308 153.266 47.386C153.587 47.4553 153.877 47.555 154.137 47.685C154.406 47.8063 154.618 47.984 154.774 48.218C154.939 48.4433 155.021 48.7423 155.021 49.115C155.021 49.5137 154.908 49.8603 154.683 50.155C154.466 50.441 154.146 50.6663 153.721 50.831C153.305 50.987 152.798 51.065 152.2 51.065ZM159.497 51.065C158.838 51.065 158.244 50.9177 157.716 50.623C157.196 50.3197 156.784 49.908 156.481 49.388C156.177 48.8593 156.026 48.257 156.026 47.581C156.026 46.8963 156.177 46.294 156.481 45.774C156.784 45.254 157.196 44.8467 157.716 44.552C158.236 44.2573 158.829 44.11 159.497 44.11C160.173 44.11 160.771 44.2573 161.291 44.552C161.819 44.8467 162.231 45.254 162.526 45.774C162.829 46.294 162.981 46.8963 162.981 47.581C162.981 48.257 162.829 48.8593 162.526 49.388C162.231 49.908 161.819 50.3197 161.291 50.623C160.762 50.9177 160.164 51.065 159.497 51.065ZM159.497 50.246C159.991 50.246 160.428 50.1377 160.81 49.921C161.191 49.6957 161.49 49.3837 161.707 48.985C161.932 48.5777 162.045 48.1097 162.045 47.581C162.045 47.0437 161.932 46.5757 161.707 46.177C161.49 45.7783 161.191 45.4707 160.81 45.254C160.428 45.0287 159.995 44.916 159.51 44.916C159.024 44.916 158.591 45.0287 158.21 45.254C157.828 45.4707 157.525 45.7783 157.3 46.177C157.074 46.5757 156.962 47.0437 156.962 47.581C156.962 48.1097 157.074 48.5777 157.3 48.985C157.525 49.3837 157.828 49.6957 158.21 49.921C158.591 50.1377 159.02 50.246 159.497 50.246ZM165.021 51V43.317C165.021 42.7103 165.199 42.2207 165.554 41.848C165.909 41.4753 166.421 41.289 167.088 41.289C167.348 41.289 167.599 41.3237 167.842 41.393C168.085 41.4623 168.288 41.5707 168.453 41.718L168.141 42.407C168.011 42.2943 167.859 42.212 167.686 42.16C167.513 42.0993 167.326 42.069 167.127 42.069C166.737 42.069 166.438 42.1773 166.23 42.394C166.022 42.6107 165.918 42.9313 165.918 43.356V44.396L165.944 44.825V51H165.021ZM163.799 44.942V44.175H168.024V44.942H163.799ZM171.428 51.065C170.787 51.065 170.293 50.8917 169.946 50.545C169.6 50.1983 169.426 49.7087 169.426 49.076V42.667H170.349V49.024C170.349 49.4227 170.449 49.7303 170.648 49.947C170.856 50.1637 171.151 50.272 171.532 50.272C171.94 50.272 172.278 50.155 172.546 49.921L172.871 50.584C172.689 50.7487 172.468 50.87 172.208 50.948C171.957 51.026 171.697 51.065 171.428 51.065ZM168.204 44.942V44.175H172.429V44.942H168.204ZM175.816 51L173.242 44.175H174.126L176.466 50.506H176.063L178.468 44.175H179.261L181.64 50.506H181.237L183.616 44.175H184.461L181.874 51H181.003L178.715 45.046H178.988L176.687 51H175.816ZM189.924 51V49.492L189.885 49.245V46.723C189.885 46.1423 189.721 45.696 189.391 45.384C189.071 45.072 188.59 44.916 187.948 44.916C187.506 44.916 187.086 44.9897 186.687 45.137C186.289 45.2843 185.951 45.4793 185.673 45.722L185.257 45.033C185.604 44.7383 186.02 44.513 186.505 44.357C186.991 44.1923 187.502 44.11 188.039 44.11C188.923 44.11 189.604 44.331 190.08 44.773C190.566 45.2063 190.808 45.8693 190.808 46.762V51H189.924ZM187.571 51.065C187.06 51.065 186.614 50.9827 186.232 50.818C185.86 50.6447 185.574 50.4107 185.374 50.116C185.175 49.8127 185.075 49.466 185.075 49.076C185.075 48.7207 185.158 48.4 185.322 48.114C185.496 47.8193 185.773 47.5853 186.154 47.412C186.544 47.23 187.064 47.139 187.714 47.139H190.067V47.828H187.74C187.082 47.828 186.622 47.945 186.362 48.179C186.111 48.413 185.985 48.7033 185.985 49.05C185.985 49.44 186.137 49.752 186.44 49.986C186.744 50.22 187.168 50.337 187.714 50.337C188.234 50.337 188.681 50.22 189.053 49.986C189.435 49.7433 189.712 49.3967 189.885 48.946L190.093 49.583C189.92 50.0337 189.617 50.3933 189.183 50.662C188.759 50.9307 188.221 51.065 187.571 51.065ZM193.315 51V44.175H194.199V46.034L194.108 45.709C194.299 45.189 194.62 44.7947 195.07 44.526C195.521 44.2487 196.08 44.11 196.747 44.11V45.007C196.713 45.007 196.678 45.007 196.643 45.007C196.609 44.9983 196.574 44.994 196.539 44.994C195.82 44.994 195.257 45.215 194.849 45.657C194.442 46.0903 194.238 46.71 194.238 47.516V51H193.315ZM201.267 51.065C200.556 51.065 199.932 50.9177 199.395 50.623C198.858 50.3197 198.437 49.908 198.134 49.388C197.831 48.8593 197.679 48.257 197.679 47.581C197.679 46.905 197.822 46.307 198.108 45.787C198.403 45.267 198.801 44.8597 199.304 44.565C199.815 44.2617 200.387 44.11 201.02 44.11C201.661 44.11 202.229 44.2573 202.723 44.552C203.226 44.838 203.62 45.2453 203.906 45.774C204.192 46.294 204.335 46.8963 204.335 47.581C204.335 47.6243 204.331 47.672 204.322 47.724C204.322 47.7673 204.322 47.815 204.322 47.867H198.381V47.178H203.828L203.464 47.451C203.464 46.957 203.356 46.5193 203.139 46.138C202.931 45.748 202.645 45.4447 202.281 45.228C201.917 45.0113 201.497 44.903 201.02 44.903C200.552 44.903 200.132 45.0113 199.759 45.228C199.386 45.4447 199.096 45.748 198.888 46.138C198.68 46.528 198.576 46.9743 198.576 47.477V47.62C198.576 48.14 198.689 48.5993 198.914 48.998C199.148 49.388 199.469 49.6957 199.876 49.921C200.292 50.1377 200.764 50.246 201.293 50.246C201.709 50.246 202.095 50.1723 202.45 50.025C202.814 49.8777 203.126 49.6523 203.386 49.349L203.906 49.947C203.603 50.311 203.221 50.5883 202.762 50.779C202.311 50.9697 201.813 51.065 201.267 51.065Z" fill="#00B2FF"/>
<line x1="66.5" y1="1" x2="66.5" y2="57" stroke="#00B2FF"/>
</g>
<defs>
<linearGradient id="paint0_linear_56_12" x1="35.4439" y1="14.3925" x2="54.4576" y2="33.4288" gradientUnits="userSpaceOnUse">
<stop stop-color="#00B2FF"/>
<stop offset="1" stop-color="#1281FD"/>
</linearGradient>
<linearGradient id="paint1_linear_56_12" x1="9.51812" y1="7.5068" x2="28.5319" y2="26.543" gradientUnits="userSpaceOnUse">
<stop stop-color="#00B2FF"/>
<stop offset="1" stop-color="#1281FD"/>
</linearGradient>
<linearGradient id="paint2_linear_56_12" x1="16.4908" y1="33.4795" x2="35.5045" y2="52.5157" gradientUnits="userSpaceOnUse">
<stop stop-color="#00B2FF"/>
<stop offset="1" stop-color="#1281FD"/>
</linearGradient>
<clipPath id="clip0_56_12">
<rect width="280" height="56" fill="white"/>
</clipPath>
</defs>
</svg>
