<svg width="280" height="56" viewBox="0 0 280 56" fill="none" xmlns="http://www.w3.org/2000/svg">
<g clip-path="url(#clip0_56_24)">
<path d="M35.4439 13.3925L48.4459 9.91278L57.964 19.4197L54.4801 32.4063L41.4782 35.886L31.96 26.3792L35.4439 13.3925Z" fill="url(#paint0_linear_56_24)"/>
<path d="M9.51812 6.5068L22.5201 3.02704L32.0382 12.5339L28.5544 25.5205L15.5524 29.0003L6.03425 19.4934L9.51812 6.5068Z" fill="url(#paint1_linear_56_24)"/>
<path d="M16.4908 32.4795L29.4928 28.9997L39.0109 38.5066L35.527 51.4932L22.525 54.973L13.0069 45.4661L16.4908 32.4795Z" fill="url(#paint2_linear_56_24)"/>
<path d="M80.36 27H75.8V8.88H80.36V27ZM103.924 13.44H95.6138V27H90.9338V13.44H82.6238V8.88H103.924V13.44Z" fill="#00245B"/>
<path d="M138.449 8.88L128.549 27H123.869L113.969 8.88H119.549L126.239 21.78L132.899 8.88H138.449ZM159.745 27H143.005L138.445 22.41V13.44L143.005 8.88H159.745V13.44H143.005V15.75H159.745V20.1H143.005V22.41H159.745V27ZM183.3 27H166.56L162 22.41V13.44L166.56 8.88H183.3V13.44H166.56V22.41H183.3V27ZM205.936 13.44H197.626V27H192.946V13.44H184.636V8.88H205.936V13.44ZM229.043 22.41L224.483 27H212.303L207.743 22.41V8.88H212.303V22.41H224.483V8.88H229.043V22.41ZM253.487 27H245.177L240.497 22.41V20.1H236.747V27H232.187V8.88H248.927L253.487 13.44V15.75L248.927 20.1H245.177V22.41H253.487V27ZM248.927 15.75V13.44H236.747V15.75H248.927ZM277.031 27H272.471V20.1H260.291V27H255.731V13.44L260.291 8.88H272.471L277.031 13.44V27ZM272.471 15.75V13.44H260.291V15.75H272.471Z" fill="#4B60CC"/>
<path d="M75.482 50V40.9H76.444V49.168H81.54V50H75.482ZM85.6227 50.065C84.964 50.065 84.3704 49.9177 83.8417 49.623C83.3217 49.3197 82.91 48.908 82.6067 48.388C82.3034 47.8593 82.1517 47.257 82.1517 46.581C82.1517 45.8963 82.3034 45.294 82.6067 44.774C82.91 44.254 83.3217 43.8467 83.8417 43.552C84.3617 43.2573 84.9554 43.11 85.6227 43.11C86.2987 43.11 86.8967 43.2573 87.4167 43.552C87.9454 43.8467 88.357 44.254 88.6517 44.774C88.955 45.294 89.1067 45.8963 89.1067 46.581C89.1067 47.257 88.955 47.8593 88.6517 48.388C88.357 48.908 87.9454 49.3197 87.4167 49.623C86.888 49.9177 86.29 50.065 85.6227 50.065ZM85.6227 49.246C86.1167 49.246 86.5544 49.1377 86.9357 48.921C87.317 48.6957 87.616 48.3837 87.8327 47.985C88.058 47.5777 88.1707 47.1097 88.1707 46.581C88.1707 46.0437 88.058 45.5757 87.8327 45.177C87.616 44.7783 87.317 44.4707 86.9357 44.254C86.5544 44.0287 86.121 43.916 85.6357 43.916C85.1504 43.916 84.717 44.0287 84.3357 44.254C83.9544 44.4707 83.651 44.7783 83.4257 45.177C83.2004 45.5757 83.0877 46.0437 83.0877 46.581C83.0877 47.1097 83.2004 47.5777 83.4257 47.985C83.651 48.3837 83.9544 48.6957 84.3357 48.921C84.717 49.1377 85.146 49.246 85.6227 49.246ZM93.9031 52.587C93.2791 52.587 92.6811 52.496 92.1091 52.314C91.5371 52.132 91.0734 51.872 90.7181 51.534L91.1861 50.832C91.5068 51.118 91.9011 51.3433 92.3691 51.508C92.8458 51.6813 93.3484 51.768 93.8771 51.768C94.7438 51.768 95.3808 51.5643 95.7881 51.157C96.1954 50.7583 96.3991 50.1343 96.3991 49.285V47.582L96.5291 46.412L96.4381 45.242V43.175H97.3221V49.168C97.3221 50.3467 97.0318 51.209 96.4511 51.755C95.8791 52.3097 95.0298 52.587 93.9031 52.587ZM93.7341 49.74C93.0841 49.74 92.4991 49.6013 91.9791 49.324C91.4591 49.038 91.0474 48.6437 90.7441 48.141C90.4494 47.6383 90.3021 47.062 90.3021 46.412C90.3021 45.762 90.4494 45.19 90.7441 44.696C91.0474 44.1933 91.4591 43.8033 91.9791 43.526C92.4991 43.2487 93.0841 43.11 93.7341 43.11C94.3408 43.11 94.8868 43.2357 95.3721 43.487C95.8574 43.7383 96.2431 44.111 96.5291 44.605C96.8151 45.099 96.9581 45.7013 96.9581 46.412C96.9581 47.1227 96.8151 47.725 96.5291 48.219C96.2431 48.713 95.8574 49.09 95.3721 49.35C94.8868 49.61 94.3408 49.74 93.7341 49.74ZM93.8251 48.921C94.3278 48.921 94.7741 48.817 95.1641 48.609C95.5541 48.3923 95.8618 48.0977 96.0871 47.725C96.3124 47.3437 96.4251 46.906 96.4251 46.412C96.4251 45.918 96.3124 45.4847 96.0871 45.112C95.8618 44.7393 95.5541 44.449 95.1641 44.241C94.7741 44.0243 94.3278 43.916 93.8251 43.916C93.3311 43.916 92.8848 44.0243 92.4861 44.241C92.0961 44.449 91.7884 44.7393 91.5631 45.112C91.3464 45.4847 91.2381 45.918 91.2381 46.412C91.2381 46.906 91.3464 47.3437 91.5631 47.725C91.7884 48.0977 92.0961 48.3923 92.4861 48.609C92.8848 48.817 93.3311 48.921 93.8251 48.921ZM99.8905 50V43.175H100.814V50H99.8905ZM100.359 41.667C100.168 41.667 100.008 41.602 99.8775 41.472C99.7475 41.342 99.6825 41.186 99.6825 41.004C99.6825 40.822 99.7475 40.6703 99.8775 40.549C100.008 40.419 100.168 40.354 100.359 40.354C100.549 40.354 100.71 40.4147 100.84 40.536C100.97 40.6573 101.035 40.809 101.035 40.991C101.035 41.1817 100.97 41.342 100.84 41.472C100.718 41.602 100.558 41.667 100.359 41.667ZM105.215 50.065C104.651 50.065 104.118 49.987 103.616 49.831C103.113 49.6663 102.719 49.4627 102.433 49.22L102.849 48.492C103.126 48.7 103.481 48.882 103.915 49.038C104.348 49.1853 104.803 49.259 105.28 49.259C105.93 49.259 106.398 49.1593 106.684 48.96C106.97 48.752 107.113 48.479 107.113 48.141C107.113 47.8897 107.03 47.6947 106.866 47.556C106.71 47.4087 106.502 47.3003 106.242 47.231C105.982 47.153 105.691 47.088 105.371 47.036C105.05 46.984 104.729 46.9233 104.409 46.854C104.097 46.7847 103.811 46.685 103.551 46.555C103.291 46.4163 103.078 46.23 102.914 45.996C102.758 45.762 102.68 45.45 102.68 45.06C102.68 44.6873 102.784 44.3537 102.992 44.059C103.2 43.7643 103.503 43.5347 103.902 43.37C104.309 43.1967 104.803 43.11 105.384 43.11C105.826 43.11 106.268 43.1707 106.71 43.292C107.152 43.4047 107.516 43.5563 107.802 43.747L107.399 44.488C107.095 44.28 106.77 44.1327 106.424 44.046C106.077 43.9507 105.73 43.903 105.384 43.903C104.768 43.903 104.313 44.0113 104.019 44.228C103.733 44.436 103.59 44.7047 103.59 45.034C103.59 45.294 103.668 45.4977 103.824 45.645C103.988 45.7923 104.201 45.9093 104.461 45.996C104.729 46.074 105.02 46.139 105.332 46.191C105.652 46.243 105.969 46.308 106.281 46.386C106.601 46.4553 106.892 46.555 107.152 46.685C107.42 46.8063 107.633 46.984 107.789 47.218C107.953 47.4433 108.036 47.7423 108.036 48.115C108.036 48.5137 107.923 48.8603 107.698 49.155C107.481 49.441 107.16 49.6663 106.736 49.831C106.32 49.987 105.813 50.065 105.215 50.065ZM111.887 50.065C111.246 50.065 110.752 49.8917 110.405 49.545C110.059 49.1983 109.885 48.7087 109.885 48.076V41.667H110.808V48.024C110.808 48.4227 110.908 48.7303 111.107 48.947C111.315 49.1637 111.61 49.272 111.991 49.272C112.399 49.272 112.737 49.155 113.005 48.921L113.33 49.584C113.148 49.7487 112.927 49.87 112.667 49.948C112.416 50.026 112.156 50.065 111.887 50.065ZM108.663 43.942V43.175H112.888V43.942H108.663ZM115.011 50V43.175H115.934V50H115.011ZM115.479 41.667C115.288 41.667 115.128 41.602 114.998 41.472C114.868 41.342 114.803 41.186 114.803 41.004C114.803 40.822 114.868 40.6703 114.998 40.549C115.128 40.419 115.288 40.354 115.479 40.354C115.669 40.354 115.83 40.4147 115.96 40.536C116.09 40.6573 116.155 40.809 116.155 40.991C116.155 41.1817 116.09 41.342 115.96 41.472C115.838 41.602 115.678 41.667 115.479 41.667ZM121.336 50.065C120.66 50.065 120.053 49.9177 119.516 49.623C118.987 49.3197 118.571 48.908 118.268 48.388C117.965 47.8593 117.813 47.257 117.813 46.581C117.813 45.8963 117.965 45.294 118.268 44.774C118.571 44.254 118.987 43.8467 119.516 43.552C120.053 43.2573 120.66 43.11 121.336 43.11C121.917 43.11 122.441 43.2227 122.909 43.448C123.377 43.6733 123.745 44.0113 124.014 44.462L123.325 44.93C123.091 44.5833 122.801 44.3277 122.454 44.163C122.107 43.9983 121.73 43.916 121.323 43.916C120.838 43.916 120.4 44.0287 120.01 44.254C119.62 44.4707 119.312 44.7783 119.087 45.177C118.862 45.5757 118.749 46.0437 118.749 46.581C118.749 47.1183 118.862 47.5863 119.087 47.985C119.312 48.3837 119.62 48.6957 120.01 48.921C120.4 49.1377 120.838 49.246 121.323 49.246C121.73 49.246 122.107 49.1637 122.454 48.999C122.801 48.8343 123.091 48.583 123.325 48.245L124.014 48.713C123.745 49.155 123.377 49.493 122.909 49.727C122.441 49.9523 121.917 50.065 121.336 50.065ZM127.66 50.065C127.097 50.065 126.564 49.987 126.061 49.831C125.558 49.6663 125.164 49.4627 124.878 49.22L125.294 48.492C125.571 48.7 125.927 48.882 126.36 49.038C126.793 49.1853 127.248 49.259 127.725 49.259C128.375 49.259 128.843 49.1593 129.129 48.96C129.415 48.752 129.558 48.479 129.558 48.141C129.558 47.8897 129.476 47.6947 129.311 47.556C129.155 47.4087 128.947 47.3003 128.687 47.231C128.427 47.153 128.137 47.088 127.816 47.036C127.495 46.984 127.175 46.9233 126.854 46.854C126.542 46.7847 126.256 46.685 125.996 46.555C125.736 46.4163 125.524 46.23 125.359 45.996C125.203 45.762 125.125 45.45 125.125 45.06C125.125 44.6873 125.229 44.3537 125.437 44.059C125.645 43.7643 125.948 43.5347 126.347 43.37C126.754 43.1967 127.248 43.11 127.829 43.11C128.271 43.11 128.713 43.1707 129.155 43.292C129.597 43.4047 129.961 43.5563 130.247 43.747L129.844 44.488C129.541 44.28 129.216 44.1327 128.869 44.046C128.522 43.9507 128.176 43.903 127.829 43.903C127.214 43.903 126.759 44.0113 126.464 44.228C126.178 44.436 126.035 44.7047 126.035 45.034C126.035 45.294 126.113 45.4977 126.269 45.645C126.434 45.7923 126.646 45.9093 126.906 45.996C127.175 46.074 127.465 46.139 127.777 46.191C128.098 46.243 128.414 46.308 128.726 46.386C129.047 46.4553 129.337 46.555 129.597 46.685C129.866 46.8063 130.078 46.984 130.234 47.218C130.399 47.4433 130.481 47.7423 130.481 48.115C130.481 48.5137 130.368 48.8603 130.143 49.155C129.926 49.441 129.606 49.6663 129.181 49.831C128.765 49.987 128.258 50.065 127.66 50.065ZM135.772 50V40.9H136.734V50H135.772ZM141.463 50V41.732H138.265V40.9H145.623V41.732H142.425V50H141.463ZM152.2 50.065C151.637 50.065 151.104 49.987 150.601 49.831C150.098 49.6663 149.704 49.4627 149.418 49.22L149.834 48.492C150.111 48.7 150.467 48.882 150.9 49.038C151.333 49.1853 151.788 49.259 152.265 49.259C152.915 49.259 153.383 49.1593 153.669 48.96C153.955 48.752 154.098 48.479 154.098 48.141C154.098 47.8897 154.016 47.6947 153.851 47.556C153.695 47.4087 153.487 47.3003 153.227 47.231C152.967 47.153 152.677 47.088 152.356 47.036C152.035 46.984 151.715 46.9233 151.394 46.854C151.082 46.7847 150.796 46.685 150.536 46.555C150.276 46.4163 150.064 46.23 149.899 45.996C149.743 45.762 149.665 45.45 149.665 45.06C149.665 44.6873 149.769 44.3537 149.977 44.059C150.185 43.7643 150.488 43.5347 150.887 43.37C151.294 43.1967 151.788 43.11 152.369 43.11C152.811 43.11 153.253 43.1707 153.695 43.292C154.137 43.4047 154.501 43.5563 154.787 43.747L154.384 44.488C154.081 44.28 153.756 44.1327 153.409 44.046C153.062 43.9507 152.716 43.903 152.369 43.903C151.754 43.903 151.299 44.0113 151.004 44.228C150.718 44.436 150.575 44.7047 150.575 45.034C150.575 45.294 150.653 45.4977 150.809 45.645C150.974 45.7923 151.186 45.9093 151.446 45.996C151.715 46.074 152.005 46.139 152.317 46.191C152.638 46.243 152.954 46.308 153.266 46.386C153.587 46.4553 153.877 46.555 154.137 46.685C154.406 46.8063 154.618 46.984 154.774 47.218C154.939 47.4433 155.021 47.7423 155.021 48.115C155.021 48.5137 154.908 48.8603 154.683 49.155C154.466 49.441 154.146 49.6663 153.721 49.831C153.305 49.987 152.798 50.065 152.2 50.065ZM159.497 50.065C158.838 50.065 158.244 49.9177 157.716 49.623C157.196 49.3197 156.784 48.908 156.481 48.388C156.177 47.8593 156.026 47.257 156.026 46.581C156.026 45.8963 156.177 45.294 156.481 44.774C156.784 44.254 157.196 43.8467 157.716 43.552C158.236 43.2573 158.829 43.11 159.497 43.11C160.173 43.11 160.771 43.2573 161.291 43.552C161.819 43.8467 162.231 44.254 162.526 44.774C162.829 45.294 162.981 45.8963 162.981 46.581C162.981 47.257 162.829 47.8593 162.526 48.388C162.231 48.908 161.819 49.3197 161.291 49.623C160.762 49.9177 160.164 50.065 159.497 50.065ZM159.497 49.246C159.991 49.246 160.428 49.1377 160.81 48.921C161.191 48.6957 161.49 48.3837 161.707 47.985C161.932 47.5777 162.045 47.1097 162.045 46.581C162.045 46.0437 161.932 45.5757 161.707 45.177C161.49 44.7783 161.191 44.4707 160.81 44.254C160.428 44.0287 159.995 43.916 159.51 43.916C159.024 43.916 158.591 44.0287 158.21 44.254C157.828 44.4707 157.525 44.7783 157.3 45.177C157.074 45.5757 156.962 46.0437 156.962 46.581C156.962 47.1097 157.074 47.5777 157.3 47.985C157.525 48.3837 157.828 48.6957 158.21 48.921C158.591 49.1377 159.02 49.246 159.497 49.246ZM165.021 50V42.317C165.021 41.7103 165.199 41.2207 165.554 40.848C165.909 40.4753 166.421 40.289 167.088 40.289C167.348 40.289 167.599 40.3237 167.842 40.393C168.085 40.4623 168.288 40.5707 168.453 40.718L168.141 41.407C168.011 41.2943 167.859 41.212 167.686 41.16C167.513 41.0993 167.326 41.069 167.127 41.069C166.737 41.069 166.438 41.1773 166.23 41.394C166.022 41.6107 165.918 41.9313 165.918 42.356V43.396L165.944 43.825V50H165.021ZM163.799 43.942V43.175H168.024V43.942H163.799ZM171.428 50.065C170.787 50.065 170.293 49.8917 169.946 49.545C169.6 49.1983 169.426 48.7087 169.426 48.076V41.667H170.349V48.024C170.349 48.4227 170.449 48.7303 170.648 48.947C170.856 49.1637 171.151 49.272 171.532 49.272C171.94 49.272 172.278 49.155 172.546 48.921L172.871 49.584C172.689 49.7487 172.468 49.87 172.208 49.948C171.957 50.026 171.697 50.065 171.428 50.065ZM168.204 43.942V43.175H172.429V43.942H168.204ZM175.816 50L173.242 43.175H174.126L176.466 49.506H176.063L178.468 43.175H179.261L181.64 49.506H181.237L183.616 43.175H184.461L181.874 50H181.003L178.715 44.046H178.988L176.687 50H175.816ZM189.924 50V48.492L189.885 48.245V45.723C189.885 45.1423 189.721 44.696 189.391 44.384C189.071 44.072 188.59 43.916 187.948 43.916C187.506 43.916 187.086 43.9897 186.687 44.137C186.289 44.2843 185.951 44.4793 185.673 44.722L185.257 44.033C185.604 43.7383 186.02 43.513 186.505 43.357C186.991 43.1923 187.502 43.11 188.039 43.11C188.923 43.11 189.604 43.331 190.08 43.773C190.566 44.2063 190.808 44.8693 190.808 45.762V50H189.924ZM187.571 50.065C187.06 50.065 186.614 49.9827 186.232 49.818C185.86 49.6447 185.574 49.4107 185.374 49.116C185.175 48.8127 185.075 48.466 185.075 48.076C185.075 47.7207 185.158 47.4 185.322 47.114C185.496 46.8193 185.773 46.5853 186.154 46.412C186.544 46.23 187.064 46.139 187.714 46.139H190.067V46.828H187.74C187.082 46.828 186.622 46.945 186.362 47.179C186.111 47.413 185.985 47.7033 185.985 48.05C185.985 48.44 186.137 48.752 186.44 48.986C186.744 49.22 187.168 49.337 187.714 49.337C188.234 49.337 188.681 49.22 189.053 48.986C189.435 48.7433 189.712 48.3967 189.885 47.946L190.093 48.583C189.92 49.0337 189.617 49.3933 189.183 49.662C188.759 49.9307 188.221 50.065 187.571 50.065ZM193.315 50V43.175H194.199V45.034L194.108 44.709C194.299 44.189 194.62 43.7947 195.07 43.526C195.521 43.2487 196.08 43.11 196.747 43.11V44.007C196.713 44.007 196.678 44.007 196.643 44.007C196.609 43.9983 196.574 43.994 196.539 43.994C195.82 43.994 195.257 44.215 194.849 44.657C194.442 45.0903 194.238 45.71 194.238 46.516V50H193.315ZM201.267 50.065C200.556 50.065 199.932 49.9177 199.395 49.623C198.858 49.3197 198.437 48.908 198.134 48.388C197.831 47.8593 197.679 47.257 197.679 46.581C197.679 45.905 197.822 45.307 198.108 44.787C198.403 44.267 198.801 43.8597 199.304 43.565C199.815 43.2617 200.387 43.11 201.02 43.11C201.661 43.11 202.229 43.2573 202.723 43.552C203.226 43.838 203.62 44.2453 203.906 44.774C204.192 45.294 204.335 45.8963 204.335 46.581C204.335 46.6243 204.331 46.672 204.322 46.724C204.322 46.7673 204.322 46.815 204.322 46.867H198.381V46.178H203.828L203.464 46.451C203.464 45.957 203.356 45.5193 203.139 45.138C202.931 44.748 202.645 44.4447 202.281 44.228C201.917 44.0113 201.497 43.903 201.02 43.903C200.552 43.903 200.132 44.0113 199.759 44.228C199.386 44.4447 199.096 44.748 198.888 45.138C198.68 45.528 198.576 45.9743 198.576 46.477V46.62C198.576 47.14 198.689 47.5993 198.914 47.998C199.148 48.388 199.469 48.6957 199.876 48.921C200.292 49.1377 200.764 49.246 201.293 49.246C201.709 49.246 202.095 49.1723 202.45 49.025C202.814 48.8777 203.126 48.6523 203.386 48.349L203.906 48.947C203.603 49.311 203.221 49.5883 202.762 49.779C202.311 49.9697 201.813 50.065 201.267 50.065Z" fill="#00245B"/>
<line x1="66.5" y1="-2.18557e-08" x2="66.5" y2="56" stroke="#232323"/>
</g>
<defs>
<linearGradient id="paint0_linear_56_24" x1="35.4439" y1="13.3925" x2="54.4576" y2="32.4288" gradientUnits="userSpaceOnUse">
<stop stop-color="#4B60CC"/>
<stop offset="1" stop-color="#00245B"/>
</linearGradient>
<linearGradient id="paint1_linear_56_24" x1="9.51812" y1="6.5068" x2="28.5319" y2="25.543" gradientUnits="userSpaceOnUse">
<stop stop-color="#4B60CC"/>
<stop offset="1" stop-color="#00245B"/>
</linearGradient>
<linearGradient id="paint2_linear_56_24" x1="16.4908" y1="32.4795" x2="35.5045" y2="51.5157" gradientUnits="userSpaceOnUse">
<stop stop-color="#4B60CC"/>
<stop offset="1" stop-color="#00245B"/>
</linearGradient>
<clipPath id="clip0_56_24">
<rect width="280" height="56" fill="white"/>
</clipPath>
</defs>
</svg>
