<svg width="275" height="55" viewBox="0 0 275 55" fill="none" xmlns="http://www.w3.org/2000/svg">
<g clip-path="url(#clip0_56_12)">
<path d="M30.5718 13.3925L43.6204 9.91278L53.1726 19.4197L49.6762 32.4063L36.6276 35.886L27.0754 26.3792L30.5718 13.3925Z" fill="url(#paint0_linear_56_12)"/>
<path d="M4.55224 6.5068L17.6008 3.02704L27.1531 12.5339L23.6567 25.5205L10.6081 29.0003L1.05587 19.4934L4.55224 6.5068Z" fill="url(#paint1_linear_56_12)"/>
<path d="M11.5483 32.4795L24.5969 28.9997L34.1492 38.5066L30.6528 51.4932L17.6042 54.973L8.05197 45.4661L11.5483 32.4795Z" fill="url(#paint2_linear_56_12)"/>
<path d="M75.6256 27H71.0656V8.88H75.6256V27ZM99.1895 13.44H90.8795V27H86.1995V13.44H77.8895V8.88H99.1895V13.44Z" fill="#00B2FF"/>
<path d="M133.715 8.88L123.815 27H119.135L109.235 8.88H114.815L121.505 21.78L128.165 8.88H133.715ZM155.011 27H138.271L133.711 22.41V13.44L138.271 8.88H155.011V13.44H138.271V15.75H155.011V20.1H138.271V22.41H155.011V27ZM178.565 27H161.825L157.265 22.41V13.44L161.825 8.88H178.565V13.44H161.825V22.41H178.565V27ZM201.201 13.44H192.891V27H188.211V13.44H179.901V8.88H201.201V13.44ZM224.308 22.41L219.748 27H207.568L203.008 22.41V8.88H207.568V22.41H219.748V8.88H224.308V22.41ZM248.752 27H240.442L235.762 22.41V20.1H232.012V27H227.452V8.88H244.192L248.752 13.44V15.75L244.192 20.1H240.442V22.41H248.752V27ZM244.192 15.75V13.44H232.012V15.75H244.192ZM272.296 27H267.736V20.1H255.556V27H250.996V13.44L255.556 8.88H267.736L272.296 13.44V27ZM267.736 15.75V13.44H255.556V15.75H267.736Z" fill="white"/>
<path d="M70.7476 50V40.9H71.7096V49.168H76.8056V50H70.7476ZM80.8883 50.065C80.2297 50.065 79.636 49.9177 79.1073 49.623C78.5873 49.3197 78.1757 48.908 77.8723 48.388C77.569 47.8593 77.4173 47.257 77.4173 46.581C77.4173 45.8963 77.569 45.294 77.8723 44.774C78.1757 44.254 78.5873 43.8467 79.1073 43.552C79.6273 43.2573 80.221 43.11 80.8883 43.11C81.5643 43.11 82.1623 43.2573 82.6823 43.552C83.211 43.8467 83.6227 44.254 83.9173 44.774C84.2207 45.294 84.3723 45.8963 84.3723 46.581C84.3723 47.257 84.2207 47.8593 83.9173 48.388C83.6227 48.908 83.211 49.3197 82.6823 49.623C82.1537 49.9177 81.5557 50.065 80.8883 50.065ZM80.8883 49.246C81.3823 49.246 81.82 49.1377 82.2013 48.921C82.5827 48.6957 82.8817 48.3837 83.0983 47.985C83.3237 47.5777 83.4363 47.1097 83.4363 46.581C83.4363 46.0437 83.3237 45.5757 83.0983 45.177C82.8817 44.7783 82.5827 44.4707 82.2013 44.254C81.82 44.0287 81.3867 43.916 80.9013 43.916C80.416 43.916 79.9827 44.0287 79.6013 44.254C79.22 44.4707 78.9167 44.7783 78.6913 45.177C78.466 45.5757 78.3533 46.0437 78.3533 46.581C78.3533 47.1097 78.466 47.5777 78.6913 47.985C78.9167 48.3837 79.22 48.6957 79.6013 48.921C79.9827 49.1377 80.4117 49.246 80.8883 49.246ZM89.1687 52.587C88.5447 52.587 87.9467 52.496 87.3747 52.314C86.8027 52.132 86.3391 51.872 85.9837 51.534L86.4517 50.832C86.7724 51.118 87.1667 51.3433 87.6347 51.508C88.1114 51.6813 88.6141 51.768 89.1427 51.768C90.0094 51.768 90.6464 51.5643 91.0537 51.157C91.4611 50.7583 91.6647 50.1343 91.6647 49.285V47.582L91.7947 46.412L91.7037 45.242V43.175H92.5877V49.168C92.5877 50.3467 92.2974 51.209 91.7167 51.755C91.1447 52.3097 90.2954 52.587 89.1687 52.587ZM88.9997 49.74C88.3497 49.74 87.7647 49.6013 87.2447 49.324C86.7247 49.038 86.3131 48.6437 86.0097 48.141C85.7151 47.6383 85.5677 47.062 85.5677 46.412C85.5677 45.762 85.7151 45.19 86.0097 44.696C86.3131 44.1933 86.7247 43.8033 87.2447 43.526C87.7647 43.2487 88.3497 43.11 88.9997 43.11C89.6064 43.11 90.1524 43.2357 90.6377 43.487C91.1231 43.7383 91.5087 44.111 91.7947 44.605C92.0807 45.099 92.2237 45.7013 92.2237 46.412C92.2237 47.1227 92.0807 47.725 91.7947 48.219C91.5087 48.713 91.1231 49.09 90.6377 49.35C90.1524 49.61 89.6064 49.74 88.9997 49.74ZM89.0907 48.921C89.5934 48.921 90.0397 48.817 90.4297 48.609C90.8197 48.3923 91.1274 48.0977 91.3527 47.725C91.5781 47.3437 91.6907 46.906 91.6907 46.412C91.6907 45.918 91.5781 45.4847 91.3527 45.112C91.1274 44.7393 90.8197 44.449 90.4297 44.241C90.0397 44.0243 89.5934 43.916 89.0907 43.916C88.5967 43.916 88.1504 44.0243 87.7517 44.241C87.3617 44.449 87.0541 44.7393 86.8287 45.112C86.6121 45.4847 86.5037 45.918 86.5037 46.412C86.5037 46.906 86.6121 47.3437 86.8287 47.725C87.0541 48.0977 87.3617 48.3923 87.7517 48.609C88.1504 48.817 88.5967 48.921 89.0907 48.921ZM95.1561 50V43.175H96.0791V50H95.1561ZM95.6241 41.667C95.4335 41.667 95.2731 41.602 95.1431 41.472C95.0131 41.342 94.9481 41.186 94.9481 41.004C94.9481 40.822 95.0131 40.6703 95.1431 40.549C95.2731 40.419 95.4335 40.354 95.6241 40.354C95.8148 40.354 95.9751 40.4147 96.1051 40.536C96.2351 40.6573 96.3001 40.809 96.3001 40.991C96.3001 41.1817 96.2351 41.342 96.1051 41.472C95.9838 41.602 95.8235 41.667 95.6241 41.667ZM100.48 50.065C99.917 50.065 99.384 49.987 98.8814 49.831C98.3787 49.6663 97.9844 49.4627 97.6984 49.22L98.1144 48.492C98.3917 48.7 98.747 48.882 99.1804 49.038C99.6137 49.1853 100.069 49.259 100.545 49.259C101.195 49.259 101.663 49.1593 101.949 48.96C102.235 48.752 102.378 48.479 102.378 48.141C102.378 47.8897 102.296 47.6947 102.131 47.556C101.975 47.4087 101.767 47.3003 101.507 47.231C101.247 47.153 100.957 47.088 100.636 47.036C100.316 46.984 99.995 46.9233 99.6744 46.854C99.3624 46.7847 99.0764 46.685 98.8164 46.555C98.5564 46.4163 98.344 46.23 98.1794 45.996C98.0234 45.762 97.9454 45.45 97.9454 45.06C97.9454 44.6873 98.0494 44.3537 98.2574 44.059C98.4654 43.7643 98.7687 43.5347 99.1674 43.37C99.5747 43.1967 100.069 43.11 100.649 43.11C101.091 43.11 101.533 43.1707 101.975 43.292C102.417 43.4047 102.781 43.5563 103.067 43.747L102.664 44.488C102.361 44.28 102.036 44.1327 101.689 44.046C101.343 43.9507 100.996 43.903 100.649 43.903C100.034 43.903 99.579 44.0113 99.2844 44.228C98.9984 44.436 98.8554 44.7047 98.8554 45.034C98.8554 45.294 98.9334 45.4977 99.0894 45.645C99.254 45.7923 99.4664 45.9093 99.7264 45.996C99.995 46.074 100.285 46.139 100.597 46.191C100.918 46.243 101.234 46.308 101.546 46.386C101.867 46.4553 102.157 46.555 102.417 46.685C102.686 46.8063 102.898 46.984 103.054 47.218C103.219 47.4433 103.301 47.7423 103.301 48.115C103.301 48.5137 103.189 48.8603 102.963 49.155C102.747 49.441 102.426 49.6663 102.001 49.831C101.585 49.987 101.078 50.065 100.48 50.065ZM107.153 50.065C106.512 50.065 106.018 49.8917 105.671 49.545C105.324 49.1983 105.151 48.7087 105.151 48.076V41.667H106.074V48.024C106.074 48.4227 106.174 48.7303 106.373 48.947C106.581 49.1637 106.876 49.272 107.257 49.272C107.664 49.272 108.002 49.155 108.271 48.921L108.596 49.584C108.414 49.7487 108.193 49.87 107.933 49.948C107.682 50.026 107.422 50.065 107.153 50.065ZM103.929 43.942V43.175H108.154V43.942H103.929ZM110.276 50V43.175H111.199V50H110.276ZM110.744 41.667C110.554 41.667 110.393 41.602 110.263 41.472C110.133 41.342 110.068 41.186 110.068 41.004C110.068 40.822 110.133 40.6703 110.263 40.549C110.393 40.419 110.554 40.354 110.744 40.354C110.935 40.354 111.095 40.4147 111.225 40.536C111.355 40.6573 111.42 40.809 111.42 40.991C111.42 41.1817 111.355 41.342 111.225 41.472C111.104 41.602 110.944 41.667 110.744 41.667ZM116.601 50.065C115.925 50.065 115.319 49.9177 114.781 49.623C114.253 49.3197 113.837 48.908 113.533 48.388C113.23 47.8593 113.078 47.257 113.078 46.581C113.078 45.8963 113.23 45.294 113.533 44.774C113.837 44.254 114.253 43.8467 114.781 43.552C115.319 43.2573 115.925 43.11 116.601 43.11C117.182 43.11 117.706 43.2227 118.174 43.448C118.642 43.6733 119.011 44.0113 119.279 44.462L118.59 44.93C118.356 44.5833 118.066 44.3277 117.719 44.163C117.373 43.9983 116.996 43.916 116.588 43.916C116.103 43.916 115.665 44.0287 115.275 44.254C114.885 44.4707 114.578 44.7783 114.352 45.177C114.127 45.5757 114.014 46.0437 114.014 46.581C114.014 47.1183 114.127 47.5863 114.352 47.985C114.578 48.3837 114.885 48.6957 115.275 48.921C115.665 49.1377 116.103 49.246 116.588 49.246C116.996 49.246 117.373 49.1637 117.719 48.999C118.066 48.8343 118.356 48.583 118.59 48.245L119.279 48.713C119.011 49.155 118.642 49.493 118.174 49.727C117.706 49.9523 117.182 50.065 116.601 50.065ZM122.926 50.065C122.362 50.065 121.829 49.987 121.327 49.831C120.824 49.6663 120.43 49.4627 120.144 49.22L120.56 48.492C120.837 48.7 121.192 48.882 121.626 49.038C122.059 49.1853 122.514 49.259 122.991 49.259C123.641 49.259 124.109 49.1593 124.395 48.96C124.681 48.752 124.824 48.479 124.824 48.141C124.824 47.8897 124.741 47.6947 124.577 47.556C124.421 47.4087 124.213 47.3003 123.953 47.231C123.693 47.153 123.402 47.088 123.082 47.036C122.761 46.984 122.44 46.9233 122.12 46.854C121.808 46.7847 121.522 46.685 121.262 46.555C121.002 46.4163 120.789 46.23 120.625 45.996C120.469 45.762 120.391 45.45 120.391 45.06C120.391 44.6873 120.495 44.3537 120.703 44.059C120.911 43.7643 121.214 43.5347 121.613 43.37C122.02 43.1967 122.514 43.11 123.095 43.11C123.537 43.11 123.979 43.1707 124.421 43.292C124.863 43.4047 125.227 43.5563 125.513 43.747L125.11 44.488C124.806 44.28 124.481 44.1327 124.135 44.046C123.788 43.9507 123.441 43.903 123.095 43.903C122.479 43.903 122.024 44.0113 121.73 44.228C121.444 44.436 121.301 44.7047 121.301 45.034C121.301 45.294 121.379 45.4977 121.535 45.645C121.699 45.7923 121.912 45.9093 122.172 45.996C122.44 46.074 122.731 46.139 123.043 46.191C123.363 46.243 123.68 46.308 123.992 46.386C124.312 46.4553 124.603 46.555 124.863 46.685C125.131 46.8063 125.344 46.984 125.5 47.218C125.664 47.4433 125.747 47.7423 125.747 48.115C125.747 48.5137 125.634 48.8603 125.409 49.155C125.192 49.441 124.871 49.6663 124.447 49.831C124.031 49.987 123.524 50.065 122.926 50.065ZM131.038 50V40.9H132V50H131.038ZM136.729 50V41.732H133.531V40.9H140.889V41.732H137.691V50H136.729ZM147.466 50.065C146.902 50.065 146.369 49.987 145.867 49.831C145.364 49.6663 144.97 49.4627 144.684 49.22L145.1 48.492C145.377 48.7 145.732 48.882 146.166 49.038C146.599 49.1853 147.054 49.259 147.531 49.259C148.181 49.259 148.649 49.1593 148.935 48.96C149.221 48.752 149.364 48.479 149.364 48.141C149.364 47.8897 149.281 47.6947 149.117 47.556C148.961 47.4087 148.753 47.3003 148.493 47.231C148.233 47.153 147.942 47.088 147.622 47.036C147.301 46.984 146.98 46.9233 146.66 46.854C146.348 46.7847 146.062 46.685 145.802 46.555C145.542 46.4163 145.329 46.23 145.165 45.996C145.009 45.762 144.931 45.45 144.931 45.06C144.931 44.6873 145.035 44.3537 145.243 44.059C145.451 43.7643 145.754 43.5347 146.153 43.37C146.56 43.1967 147.054 43.11 147.635 43.11C148.077 43.11 148.519 43.1707 148.961 43.292C149.403 43.4047 149.767 43.5563 150.053 43.747L149.65 44.488C149.346 44.28 149.021 44.1327 148.675 44.046C148.328 43.9507 147.981 43.903 147.635 43.903C147.019 43.903 146.564 44.0113 146.27 44.228C145.984 44.436 145.841 44.7047 145.841 45.034C145.841 45.294 145.919 45.4977 146.075 45.645C146.239 45.7923 146.452 45.9093 146.712 45.996C146.98 46.074 147.271 46.139 147.583 46.191C147.903 46.243 148.22 46.308 148.532 46.386C148.852 46.4553 149.143 46.555 149.403 46.685C149.671 46.8063 149.884 46.984 150.04 47.218C150.204 47.4433 150.287 47.7423 150.287 48.115C150.287 48.5137 150.174 48.8603 149.949 49.155C149.732 49.441 149.411 49.6663 148.987 49.831C148.571 49.987 148.064 50.065 147.466 50.065ZM154.762 50.065C154.104 50.065 153.51 49.9177 152.981 49.623C152.461 49.3197 152.05 48.908 151.746 48.388C151.443 47.8593 151.291 47.257 151.291 46.581C151.291 45.8963 151.443 45.294 151.746 44.774C152.05 44.254 152.461 43.8467 152.981 43.552C153.501 43.2573 154.095 43.11 154.762 43.11C155.438 43.11 156.036 43.2573 156.556 43.552C157.085 43.8467 157.497 44.254 157.791 44.774C158.095 45.294 158.246 45.8963 158.246 46.581C158.246 47.257 158.095 47.8593 157.791 48.388C157.497 48.908 157.085 49.3197 156.556 49.623C156.028 49.9177 155.43 50.065 154.762 50.065ZM154.762 49.246C155.256 49.246 155.694 49.1377 156.075 48.921C156.457 48.6957 156.756 48.3837 156.972 47.985C157.198 47.5777 157.31 47.1097 157.31 46.581C157.31 46.0437 157.198 45.5757 156.972 45.177C156.756 44.7783 156.457 44.4707 156.075 44.254C155.694 44.0287 155.261 43.916 154.775 43.916C154.29 43.916 153.857 44.0287 153.475 44.254C153.094 44.4707 152.791 44.7783 152.565 45.177C152.34 45.5757 152.227 46.0437 152.227 46.581C152.227 47.1097 152.34 47.5777 152.565 47.985C152.791 48.3837 153.094 48.6957 153.475 48.921C153.857 49.1377 154.286 49.246 154.762 49.246ZM160.287 50V42.317C160.287 41.7103 160.464 41.2207 160.82 40.848C161.175 40.4753 161.686 40.289 162.354 40.289C162.614 40.289 162.865 40.3237 163.108 40.393C163.35 40.4623 163.554 40.5707 163.719 40.718L163.407 41.407C163.277 41.2943 163.125 41.212 162.952 41.16C162.778 41.0993 162.592 41.069 162.393 41.069C162.003 41.069 161.704 41.1773 161.496 41.394C161.288 41.6107 161.184 41.9313 161.184 42.356V43.396L161.21 43.825V50H160.287ZM159.065 43.942V43.175H163.29V43.942H159.065ZM166.694 50.065C166.053 50.065 165.559 49.8917 165.212 49.545C164.865 49.1983 164.692 48.7087 164.692 48.076V41.667H165.615V48.024C165.615 48.4227 165.715 48.7303 165.914 48.947C166.122 49.1637 166.417 49.272 166.798 49.272C167.205 49.272 167.543 49.155 167.812 48.921L168.137 49.584C167.955 49.7487 167.734 49.87 167.474 49.948C167.223 50.026 166.963 50.065 166.694 50.065ZM163.47 43.942V43.175H167.695V43.942H163.47ZM171.081 50L168.507 43.175H169.391L171.731 49.506H171.328L173.733 43.175H174.526L176.905 49.506H176.502L178.881 43.175H179.726L177.139 50H176.268L173.98 44.046H174.253L171.952 50H171.081ZM185.19 50V48.492L185.151 48.245V45.723C185.151 45.1423 184.986 44.696 184.657 44.384C184.336 44.072 183.855 43.916 183.214 43.916C182.772 43.916 182.352 43.9897 181.953 44.137C181.554 44.2843 181.216 44.4793 180.939 44.722L180.523 44.033C180.87 43.7383 181.286 43.513 181.771 43.357C182.256 43.1923 182.768 43.11 183.305 43.11C184.189 43.11 184.869 43.331 185.346 43.773C185.831 44.2063 186.074 44.8693 186.074 45.762V50H185.19ZM182.837 50.065C182.326 50.065 181.879 49.9827 181.498 49.818C181.125 49.6447 180.839 49.4107 180.64 49.116C180.441 48.8127 180.341 48.466 180.341 48.076C180.341 47.7207 180.423 47.4 180.588 47.114C180.761 46.8193 181.039 46.5853 181.42 46.412C181.81 46.23 182.33 46.139 182.98 46.139H185.333V46.828H183.006C182.347 46.828 181.888 46.945 181.628 47.179C181.377 47.413 181.251 47.7033 181.251 48.05C181.251 48.44 181.403 48.752 181.706 48.986C182.009 49.22 182.434 49.337 182.98 49.337C183.5 49.337 183.946 49.22 184.319 48.986C184.7 48.7433 184.978 48.3967 185.151 47.946L185.359 48.583C185.186 49.0337 184.882 49.3933 184.449 49.662C184.024 49.9307 183.487 50.065 182.837 50.065ZM188.581 50V43.175H189.465V45.034L189.374 44.709C189.565 44.189 189.885 43.7947 190.336 43.526C190.787 43.2487 191.346 43.11 192.013 43.11V44.007C191.978 44.007 191.944 44.007 191.909 44.007C191.874 43.9983 191.84 43.994 191.805 43.994C191.086 43.994 190.522 44.215 190.115 44.657C189.708 45.0903 189.504 45.71 189.504 46.516V50H188.581ZM196.533 50.065C195.822 50.065 195.198 49.9177 194.661 49.623C194.123 49.3197 193.703 48.908 193.4 48.388C193.096 47.8593 192.945 47.257 192.945 46.581C192.945 45.905 193.088 45.307 193.374 44.787C193.668 44.267 194.067 43.8597 194.57 43.565C195.081 43.2617 195.653 43.11 196.286 43.11C196.927 43.11 197.495 43.2573 197.989 43.552C198.491 43.838 198.886 44.2453 199.172 44.774C199.458 45.294 199.601 45.8963 199.601 46.581C199.601 46.6243 199.596 46.672 199.588 46.724C199.588 46.7673 199.588 46.815 199.588 46.867H193.647V46.178H199.094L198.73 46.451C198.73 45.957 198.621 45.5193 198.405 45.138C198.197 44.748 197.911 44.4447 197.547 44.228C197.183 44.0113 196.762 43.903 196.286 43.903C195.818 43.903 195.397 44.0113 195.025 44.228C194.652 44.4447 194.362 44.748 194.154 45.138C193.946 45.528 193.842 45.9743 193.842 46.477V46.62C193.842 47.14 193.954 47.5993 194.18 47.998C194.414 48.388 194.734 48.6957 195.142 48.921C195.558 49.1377 196.03 49.246 196.559 49.246C196.975 49.246 197.36 49.1723 197.716 49.025C198.08 48.8777 198.392 48.6523 198.652 48.349L199.172 48.947C198.868 49.311 198.487 49.5883 198.028 49.779C197.577 49.9697 197.079 50.065 196.533 50.065Z" fill="#00B2FF"/>
<line x1="61.7383" y1="-2.17776e-08" x2="61.7383" y2="56" stroke="#00B2FF"/>
</g>
<defs>
<linearGradient id="paint0_linear_56_12" x1="30.5718" y1="13.3925" x2="49.5853" y2="32.4968" gradientUnits="userSpaceOnUse">
<stop stop-color="#00B2FF"/>
<stop offset="1" stop-color="#1281FD"/>
</linearGradient>
<linearGradient id="paint1_linear_56_12" x1="4.55224" y1="6.5068" x2="23.5658" y2="25.6111" gradientUnits="userSpaceOnUse">
<stop stop-color="#00B2FF"/>
<stop offset="1" stop-color="#1281FD"/>
</linearGradient>
<linearGradient id="paint2_linear_56_12" x1="11.5483" y1="32.4795" x2="30.5619" y2="51.5837" gradientUnits="userSpaceOnUse">
<stop stop-color="#00B2FF"/>
<stop offset="1" stop-color="#1281FD"/>
</linearGradient>
<clipPath id="clip0_56_12">
<rect width="275" height="55" fill="white"/>
</clipPath>
</defs>
</svg>
