<svg width="225" height="45" viewBox="0 0 225 45" fill="none" xmlns="http://www.w3.org/2000/svg">
<g clip-path="url(#clip0_202_214)">
<path d="M27.8457 10.5215L38.0616 7.78743L45.5401 15.2571L42.8028 25.4609L32.5869 28.195L25.1084 20.7253L27.8457 10.5215Z" fill="url(#paint0_linear_202_214)"/>
<path d="M7.47852 5.11137L17.6944 2.37727L25.1729 9.84696L22.4356 20.0507L12.2197 22.7848L4.74119 15.3152L7.47852 5.11137Z" fill="url(#paint1_linear_202_214)"/>
<path d="M12.9551 25.5186L23.1709 22.7845L30.6495 30.2542L27.9121 40.458L17.6963 43.1921L10.2178 35.7224L12.9551 25.5186Z" fill="url(#paint2_linear_202_214)"/>
<path d="M63.1417 21.3574H59.5588V7.12028H63.1417V21.3574ZM81.6561 10.7031H75.1268V21.3574H71.4497V10.7031H64.9204V7.12028H81.6561V10.7031Z" fill="#232323"/>
<path d="M108.783 7.12028L101.005 21.3574H97.3274L89.5489 7.12028H93.9331L99.1896 17.256L104.422 7.12028H108.783ZM125.516 21.3574H112.363L108.78 17.751V10.7031L112.363 7.12028H125.516V10.7031H112.363V12.5181H125.516V15.936H112.363V17.751H125.516V21.3574ZM144.023 21.3574H130.87L127.287 17.751V10.7031L130.87 7.12028H144.023V10.7031H130.87V17.751H144.023V21.3574ZM161.808 10.7031H155.279V21.3574H151.602V10.7031H145.072V7.12028H161.808V10.7031ZM179.964 17.751L176.381 21.3574H166.811L163.228 17.751V7.12028H166.811V17.751H176.381V7.12028H179.964V17.751ZM199.17 21.3574H192.641L188.963 17.751V15.936H186.017V21.3574H182.434V7.12028H195.587L199.17 10.7031V12.5181L195.587 15.936H192.641V17.751H199.17V21.3574ZM195.587 12.5181V10.7031H186.017V12.5181H195.587ZM217.669 21.3574H214.086V15.936H204.516V21.3574H200.933V10.7031L204.516 7.12028H214.086L217.669 10.7031V21.3574ZM214.086 12.5181V10.7031H204.516V12.5181H214.086Z" fill="#4B60CC"/>
<path d="M59.309 39.0723V31.9223H60.0648V38.4186H64.0688V39.0723H59.309ZM67.2767 39.1233C66.7591 39.1233 66.2927 39.0076 65.8773 38.7761C65.4687 38.5377 65.1453 38.2143 64.9069 37.8057C64.6686 37.3903 64.5494 36.9171 64.5494 36.3859C64.5494 35.848 64.6686 35.3747 64.9069 34.9661C65.1453 34.5576 65.4687 34.2375 65.8773 34.006C66.2859 33.7745 66.7523 33.6587 67.2767 33.6587C67.8078 33.6587 68.2777 33.7745 68.6862 34.006C69.1016 34.2375 69.4251 34.5576 69.6566 34.9661C69.8949 35.3747 70.0141 35.848 70.0141 36.3859C70.0141 36.9171 69.8949 37.3903 69.6566 37.8057C69.4251 38.2143 69.1016 38.5377 68.6862 38.7761C68.2709 39.0076 67.801 39.1233 67.2767 39.1233ZM67.2767 38.4798C67.6648 38.4798 68.0087 38.3947 68.3083 38.2245C68.6079 38.0474 68.8429 37.8023 69.0131 37.4891C69.1901 37.169 69.2787 36.8013 69.2787 36.3859C69.2787 35.9637 69.1901 35.596 69.0131 35.2828C68.8429 34.9695 68.6079 34.7278 68.3083 34.5576C68.0087 34.3805 67.6682 34.292 67.2869 34.292C66.9055 34.292 66.5651 34.3805 66.2654 34.5576C65.9658 34.7278 65.7275 34.9695 65.5504 35.2828C65.3734 35.596 65.2849 35.9637 65.2849 36.3859C65.2849 36.8013 65.3734 37.169 65.5504 37.4891C65.7275 37.8023 65.9658 38.0474 66.2654 38.2245C66.5651 38.3947 66.9021 38.4798 67.2767 38.4798ZM73.7827 41.1049C73.2924 41.1049 72.8225 41.0334 72.3731 40.8904C71.9237 40.7474 71.5594 40.5431 71.2802 40.2776L71.6479 39.726C71.8998 39.9507 72.2097 40.1277 72.5774 40.2571C72.9519 40.3933 73.3469 40.4614 73.7623 40.4614C74.4432 40.4614 74.9437 40.3014 75.2638 39.9813C75.5838 39.6681 75.7438 39.1778 75.7438 38.5105V37.1724L75.846 36.2531L75.7745 35.3338V33.7098H76.469V38.4186C76.469 39.3446 76.2409 40.0222 75.7847 40.4512C75.3353 40.887 74.6679 41.1049 73.7827 41.1049ZM73.6499 38.868C73.1392 38.868 72.6795 38.759 72.271 38.5411C71.8624 38.3164 71.5389 38.0066 71.3006 37.6116C71.0691 37.2167 70.9533 36.7638 70.9533 36.2531C70.9533 35.7424 71.0691 35.293 71.3006 34.9048C71.5389 34.5099 71.8624 34.2035 72.271 33.9856C72.6795 33.7676 73.1392 33.6587 73.6499 33.6587C74.1266 33.6587 74.5556 33.7574 74.9369 33.9549C75.3182 34.1524 75.6213 34.4452 75.846 34.8333C76.0707 35.2215 76.183 35.6947 76.183 36.2531C76.183 36.8115 76.0707 37.2848 75.846 37.6729C75.6213 38.0611 75.3182 38.3573 74.9369 38.5616C74.5556 38.7658 74.1266 38.868 73.6499 38.868ZM73.7214 38.2245C74.1163 38.2245 74.467 38.1428 74.7735 37.9793C75.0799 37.8091 75.3216 37.5776 75.4987 37.2848C75.6757 36.9851 75.7643 36.6413 75.7643 36.2531C75.7643 35.865 75.6757 35.5245 75.4987 35.2317C75.3216 34.9389 75.0799 34.7108 74.7735 34.5473C74.467 34.3771 74.1163 34.292 73.7214 34.292C73.3333 34.292 72.9826 34.3771 72.6693 34.5473C72.3629 34.7108 72.1212 34.9389 71.9441 35.2317C71.7739 35.5245 71.6888 35.865 71.6888 36.2531C71.6888 36.6413 71.7739 36.9851 71.9441 37.2848C72.1212 37.5776 72.3629 37.8091 72.6693 37.9793C72.9826 38.1428 73.3333 38.2245 73.7214 38.2245ZM78.4871 39.0723V33.7098H79.2123V39.0723H78.4871ZM78.8548 32.5249C78.705 32.5249 78.579 32.4738 78.4769 32.3717C78.3747 32.2696 78.3237 32.147 78.3237 32.004C78.3237 31.861 78.3747 31.7418 78.4769 31.6465C78.579 31.5443 78.705 31.4933 78.8548 31.4933C79.0046 31.4933 79.1306 31.5409 79.2327 31.6363C79.3349 31.7316 79.3859 31.8508 79.3859 31.9938C79.3859 32.1436 79.3349 32.2696 79.2327 32.3717C79.1374 32.4738 79.0114 32.5249 78.8548 32.5249ZM82.6704 39.1233C82.2278 39.1233 81.809 39.0621 81.414 38.9395C81.0191 38.8101 80.7092 38.6501 80.4845 38.4594L80.8114 37.8874C81.0293 38.0508 81.3085 38.1938 81.649 38.3164C81.9894 38.4322 82.3469 38.4901 82.7215 38.4901C83.2322 38.4901 83.5999 38.4117 83.8246 38.2551C84.0493 38.0917 84.1617 37.8772 84.1617 37.6116C84.1617 37.4141 84.097 37.2609 83.9676 37.152C83.845 37.0362 83.6816 36.9511 83.4773 36.8966C83.273 36.8353 83.0449 36.7843 82.793 36.7434C82.541 36.7026 82.2891 36.6549 82.0371 36.6004C81.792 36.5459 81.5672 36.4676 81.363 36.3655C81.1587 36.2565 80.9918 36.1101 80.8625 35.9263C80.7399 35.7424 80.6786 35.4973 80.6786 35.1908C80.6786 34.898 80.7603 34.6359 80.9237 34.4043C81.0872 34.1728 81.3255 33.9924 81.6387 33.863C81.9588 33.7268 82.3469 33.6587 82.8032 33.6587C83.1505 33.6587 83.4977 33.7064 83.845 33.8017C84.1923 33.8902 84.4783 34.0094 84.703 34.1592L84.3864 34.7414C84.1481 34.578 83.8927 34.4622 83.6203 34.3941C83.3479 34.3192 83.0756 34.2818 82.8032 34.2818C82.3197 34.2818 81.9622 34.3669 81.7307 34.5371C81.506 34.7006 81.3936 34.9116 81.3936 35.1704C81.3936 35.3747 81.4549 35.5347 81.5775 35.6505C81.7068 35.7662 81.8737 35.8582 82.078 35.9263C82.2891 35.9876 82.5172 36.0386 82.7623 36.0795C83.0143 36.1203 83.2628 36.1714 83.508 36.2327C83.7599 36.2872 83.988 36.3655 84.1923 36.4676C84.4034 36.563 84.5702 36.7026 84.6928 36.8864C84.8222 37.0635 84.8869 37.2984 84.8869 37.5912C84.8869 37.9044 84.7984 38.1768 84.6213 38.4083C84.4511 38.6331 84.1991 38.8101 83.8655 38.9395C83.5386 39.0621 83.1402 39.1233 82.6704 39.1233ZM87.9132 39.1233C87.4093 39.1233 87.0211 38.9871 86.7488 38.7148C86.4764 38.4424 86.3402 38.0576 86.3402 37.5606V32.5249H87.0654V37.5197C87.0654 37.8329 87.1437 38.0747 87.3003 38.2449C87.4638 38.4151 87.6953 38.5003 87.9949 38.5003C88.315 38.5003 88.5805 38.4083 88.7916 38.2245L89.047 38.7454C88.904 38.8748 88.7303 38.9701 88.526 39.0314C88.3286 39.0927 88.1243 39.1233 87.9132 39.1233ZM85.38 34.3124V33.7098H88.6997V34.3124H85.38ZM90.3672 39.0723V33.7098H91.0924V39.0723H90.3672ZM90.7349 32.5249C90.5851 32.5249 90.4591 32.4738 90.357 32.3717C90.2548 32.2696 90.2037 32.147 90.2037 32.004C90.2037 31.861 90.2548 31.7418 90.357 31.6465C90.4591 31.5443 90.5851 31.4933 90.7349 31.4933C90.8847 31.4933 91.0107 31.5409 91.1128 31.6363C91.215 31.7316 91.266 31.8508 91.266 31.9938C91.266 32.1436 91.215 32.2696 91.1128 32.3717C91.0175 32.4738 90.8915 32.5249 90.7349 32.5249ZM95.337 39.1233C94.8058 39.1233 94.3292 39.0076 93.907 38.7761C93.4916 38.5377 93.1647 38.2143 92.9264 37.8057C92.6881 37.3903 92.5689 36.9171 92.5689 36.3859C92.5689 35.848 92.6881 35.3747 92.9264 34.9661C93.1647 34.5576 93.4916 34.2375 93.907 34.006C94.3292 33.7745 94.8058 33.6587 95.337 33.6587C95.7932 33.6587 96.2052 33.7472 96.5729 33.9243C96.9406 34.1013 97.23 34.3669 97.4411 34.721L96.8998 35.0887C96.7159 34.8163 96.4878 34.6154 96.2154 34.4861C95.943 34.3567 95.6468 34.292 95.3268 34.292C94.9454 34.292 94.6016 34.3805 94.2951 34.5576C93.9887 34.7278 93.747 34.9695 93.5699 35.2828C93.3929 35.596 93.3043 35.9637 93.3043 36.3859C93.3043 36.8081 93.3929 37.1758 93.5699 37.4891C93.747 37.8023 93.9887 38.0474 94.2951 38.2245C94.6016 38.3947 94.9454 38.4798 95.3268 38.4798C95.6468 38.4798 95.943 38.4151 96.2154 38.2858C96.4878 38.1564 96.7159 37.9589 96.8998 37.6933L97.4411 38.0611C97.23 38.4083 96.9406 38.6739 96.5729 38.8578C96.2052 39.0348 95.7932 39.1233 95.337 39.1233ZM100.306 39.1233C99.8634 39.1233 99.4446 39.0621 99.0496 38.9395C98.6547 38.8101 98.3448 38.6501 98.1201 38.4594L98.447 37.8874C98.6649 38.0508 98.9441 38.1938 99.2846 38.3164C99.625 38.4322 99.9825 38.4901 100.357 38.4901C100.868 38.4901 101.235 38.4117 101.46 38.2551C101.685 38.0917 101.797 37.8772 101.797 37.6116C101.797 37.4141 101.733 37.2609 101.603 37.152C101.481 37.0362 101.317 36.9511 101.113 36.8966C100.909 36.8353 100.681 36.7843 100.429 36.7434C100.177 36.7026 99.9247 36.6549 99.6727 36.6004C99.4276 36.5459 99.2028 36.4676 98.9986 36.3655C98.7943 36.2565 98.6274 36.1101 98.4981 35.9263C98.3755 35.7424 98.3142 35.4973 98.3142 35.1908C98.3142 34.898 98.3959 34.6359 98.5593 34.4043C98.7228 34.1728 98.9611 33.9924 99.2743 33.863C99.5944 33.7268 99.9825 33.6587 100.439 33.6587C100.786 33.6587 101.133 33.7064 101.481 33.8017C101.828 33.8902 102.114 34.0094 102.339 34.1592L102.022 34.7414C101.784 34.578 101.528 34.4622 101.256 34.3941C100.984 34.3192 100.711 34.2818 100.439 34.2818C99.9553 34.2818 99.5978 34.3669 99.3663 34.5371C99.1416 34.7006 99.0292 34.9116 99.0292 35.1704C99.0292 35.3747 99.0905 35.5347 99.2131 35.6505C99.3424 35.7662 99.5093 35.8582 99.7136 35.9263C99.9247 35.9876 100.153 36.0386 100.398 36.0795C100.65 36.1203 100.898 36.1714 101.144 36.2327C101.396 36.2872 101.624 36.3655 101.828 36.4676C102.039 36.563 102.206 36.7026 102.328 36.8864C102.458 37.0635 102.522 37.2984 102.522 37.5912C102.522 37.9044 102.434 38.1768 102.257 38.4083C102.087 38.6331 101.835 38.8101 101.501 38.9395C101.174 39.0621 100.776 39.1233 100.306 39.1233ZM106.68 39.0723V31.9223H107.436V39.0723H106.68ZM111.151 39.0723V32.576H108.638V31.9223H114.42V32.576H111.907V39.0723H111.151ZM119.587 39.1233C119.145 39.1233 118.726 39.0621 118.331 38.9395C117.936 38.8101 117.626 38.6501 117.402 38.4594L117.728 37.8874C117.946 38.0508 118.226 38.1938 118.566 38.3164C118.907 38.4322 119.264 38.4901 119.639 38.4901C120.149 38.4901 120.517 38.4117 120.742 38.2551C120.966 38.0917 121.079 37.8772 121.079 37.6116C121.079 37.4141 121.014 37.2609 120.885 37.152C120.762 37.0362 120.599 36.9511 120.394 36.8966C120.19 36.8353 119.962 36.7843 119.71 36.7434C119.458 36.7026 119.206 36.6549 118.954 36.6004C118.709 36.5459 118.484 36.4676 118.28 36.3655C118.076 36.2565 117.909 36.1101 117.78 35.9263C117.657 35.7424 117.596 35.4973 117.596 35.1908C117.596 34.898 117.677 34.6359 117.841 34.4043C118.004 34.1728 118.243 33.9924 118.556 33.863C118.876 33.7268 119.264 33.6587 119.72 33.6587C120.068 33.6587 120.415 33.7064 120.762 33.8017C121.109 33.8902 121.395 34.0094 121.62 34.1592L121.303 34.7414C121.065 34.578 120.81 34.4622 120.537 34.3941C120.265 34.3192 119.993 34.2818 119.72 34.2818C119.237 34.2818 118.879 34.3669 118.648 34.5371C118.423 34.7006 118.311 34.9116 118.311 35.1704C118.311 35.3747 118.372 35.5347 118.495 35.6505C118.624 35.7662 118.791 35.8582 118.995 35.9263C119.206 35.9876 119.434 36.0386 119.679 36.0795C119.931 36.1203 120.18 36.1714 120.425 36.2327C120.677 36.2872 120.905 36.3655 121.109 36.4676C121.32 36.563 121.487 36.7026 121.61 36.8864C121.739 37.0635 121.804 37.2984 121.804 37.5912C121.804 37.9044 121.715 38.1768 121.538 38.4083C121.368 38.6331 121.116 38.8101 120.783 38.9395C120.456 39.0621 120.057 39.1233 119.587 39.1233ZM125.321 39.1233C124.803 39.1233 124.337 39.0076 123.921 38.7761C123.513 38.5377 123.189 38.2143 122.951 37.8057C122.712 37.3903 122.593 36.9171 122.593 36.3859C122.593 35.848 122.712 35.3747 122.951 34.9661C123.189 34.5576 123.513 34.2375 123.921 34.006C124.33 33.7745 124.796 33.6587 125.321 33.6587C125.852 33.6587 126.322 33.7745 126.73 34.006C127.145 34.2375 127.469 34.5576 127.7 34.9661C127.939 35.3747 128.058 35.848 128.058 36.3859C128.058 36.9171 127.939 37.3903 127.7 37.8057C127.469 38.2143 127.145 38.5377 126.73 38.7761C126.315 39.0076 125.845 39.1233 125.321 39.1233ZM125.321 38.4798C125.709 38.4798 126.053 38.3947 126.352 38.2245C126.652 38.0474 126.887 37.8023 127.057 37.4891C127.234 37.169 127.323 36.8013 127.323 36.3859C127.323 35.9637 127.234 35.596 127.057 35.2828C126.887 34.9695 126.652 34.7278 126.352 34.5576C126.053 34.3805 125.712 34.292 125.331 34.292C124.949 34.292 124.609 34.3805 124.309 34.5576C124.01 34.7278 123.771 34.9695 123.594 35.2828C123.417 35.596 123.329 35.9637 123.329 36.3859C123.329 36.8013 123.417 37.169 123.594 37.4891C123.771 37.8023 124.01 38.0474 124.309 38.2245C124.609 38.3947 124.946 38.4798 125.321 38.4798ZM129.661 39.0723V33.0356C129.661 32.559 129.801 32.1742 130.08 31.8814C130.359 31.5886 130.761 31.4422 131.285 31.4422C131.489 31.4422 131.687 31.4694 131.878 31.5239C132.068 31.5784 132.228 31.6635 132.358 31.7793L132.113 32.3206C132.01 32.2321 131.891 32.1674 131.755 32.1266C131.619 32.0789 131.472 32.0551 131.316 32.0551C131.009 32.0551 130.774 32.1402 130.611 32.3104C130.448 32.4806 130.366 32.7326 130.366 33.0663V33.8834L130.386 34.2205V39.0723H129.661ZM128.701 34.3124V33.7098H132.021V34.3124H128.701ZM134.695 39.1233C134.192 39.1233 133.803 38.9871 133.531 38.7148C133.259 38.4424 133.122 38.0576 133.122 37.5606V32.5249H133.848V37.5197C133.848 37.8329 133.926 38.0747 134.083 38.2449C134.246 38.4151 134.478 38.5003 134.777 38.5003C135.097 38.5003 135.363 38.4083 135.574 38.2245L135.829 38.7454C135.686 38.8748 135.513 38.9701 135.308 39.0314C135.111 39.0927 134.907 39.1233 134.695 39.1233ZM132.162 34.3124V33.7098H135.482V34.3124H132.162ZM138.143 39.0723L136.12 33.7098H136.815L138.653 38.6841H138.337L140.226 33.7098H140.849L142.719 38.6841H142.402L144.271 33.7098H144.935L142.902 39.0723H142.218L140.42 34.3941H140.635L138.827 39.0723H138.143ZM149.228 39.0723V37.8874L149.197 37.6933V35.7118C149.197 35.2555 149.068 34.9048 148.809 34.6597C148.557 34.4146 148.179 34.292 147.675 34.292C147.328 34.292 146.998 34.3499 146.685 34.4656C146.371 34.5814 146.106 34.7346 145.888 34.9253L145.561 34.3839C145.833 34.1524 146.16 33.9753 146.542 33.8528C146.923 33.7234 147.325 33.6587 147.747 33.6587C148.441 33.6587 148.976 33.8323 149.351 34.1796C149.732 34.5201 149.923 35.041 149.923 35.7424V39.0723H149.228ZM147.379 39.1233C146.977 39.1233 146.627 39.0586 146.327 38.9293C146.034 38.7931 145.81 38.6092 145.653 38.3777C145.496 38.1394 145.418 37.867 145.418 37.5606C145.418 37.2814 145.483 37.0294 145.612 36.8047C145.748 36.5732 145.966 36.3893 146.266 36.2531C146.572 36.1101 146.981 36.0386 147.492 36.0386H149.34V36.58H147.512C146.994 36.58 146.634 36.6719 146.429 36.8558C146.232 37.0396 146.133 37.2677 146.133 37.5401C146.133 37.8466 146.252 38.0917 146.491 38.2756C146.729 38.4594 147.063 38.5513 147.492 38.5513C147.9 38.5513 148.251 38.4594 148.544 38.2756C148.843 38.0849 149.061 37.8125 149.197 37.4584L149.361 37.9589C149.225 38.313 148.986 38.5956 148.646 38.8067C148.312 39.0178 147.89 39.1233 147.379 39.1233ZM151.892 39.0723V33.7098H152.587V35.1704L152.515 34.9151C152.665 34.5065 152.917 34.1966 153.271 33.9856C153.625 33.7676 154.065 33.6587 154.589 33.6587V34.3635C154.562 34.3635 154.534 34.3635 154.507 34.3635C154.48 34.3567 154.453 34.3533 154.425 34.3533C153.86 34.3533 153.418 34.5269 153.098 34.8742C152.778 35.2147 152.618 35.7016 152.618 36.3348V39.0723H151.892ZM158.14 39.1233C157.582 39.1233 157.091 39.0076 156.669 38.7761C156.247 38.5377 155.917 38.2143 155.678 37.8057C155.44 37.3903 155.321 36.9171 155.321 36.3859C155.321 35.8548 155.433 35.3849 155.658 34.9763C155.89 34.5678 156.203 34.2477 156.598 34.0162C156.999 33.7779 157.449 33.6587 157.946 33.6587C158.45 33.6587 158.896 33.7745 159.284 34.006C159.679 34.2307 159.989 34.5507 160.214 34.9661C160.438 35.3747 160.551 35.848 160.551 36.3859C160.551 36.42 160.547 36.4574 160.54 36.4983C160.54 36.5323 160.54 36.5698 160.54 36.6106H155.873V36.0693H160.152L159.866 36.2838C159.866 35.8956 159.781 35.5517 159.611 35.2521C159.448 34.9457 159.223 34.7074 158.937 34.5371C158.651 34.3669 158.321 34.2818 157.946 34.2818C157.578 34.2818 157.248 34.3669 156.955 34.5371C156.662 34.7074 156.434 34.9457 156.271 35.2521C156.107 35.5586 156.026 35.9092 156.026 36.3042V36.4166C156.026 36.8251 156.114 37.186 156.291 37.4993C156.475 37.8057 156.727 38.0474 157.047 38.2245C157.374 38.3947 157.745 38.4798 158.161 38.4798C158.487 38.4798 158.79 38.422 159.07 38.3062C159.356 38.1904 159.601 38.0134 159.805 37.7751L160.214 38.2449C159.975 38.5309 159.676 38.7488 159.315 38.8986C158.961 39.0484 158.569 39.1233 158.14 39.1233Z" fill="#232323"/>
<line x1="52.2522" y1="-1.71723e-08" x2="52.2522" y2="44" stroke="#232323" stroke-width="0.785714"/>
</g>
<defs>
<linearGradient id="paint0_linear_202_214" x1="27.8457" y1="10.5215" x2="42.7851" y2="25.4786" gradientUnits="userSpaceOnUse">
<stop stop-color="#4B60CC"/>
<stop offset="1" stop-color="#3047BE"/>
</linearGradient>
<linearGradient id="paint1_linear_202_214" x1="7.47852" y1="5.11137" x2="22.4179" y2="20.0684" gradientUnits="userSpaceOnUse">
<stop stop-color="#4B60CC"/>
<stop offset="1" stop-color="#3047BE"/>
</linearGradient>
<linearGradient id="paint2_linear_202_214" x1="12.9551" y1="25.5186" x2="27.8945" y2="40.4756" gradientUnits="userSpaceOnUse">
<stop stop-color="#4B60CC"/>
<stop offset="1" stop-color="#3047BE"/>
</linearGradient>
<clipPath id="clip0_202_214">
<rect width="225" height="45" fill="white"/>
</clipPath>
</defs>
</svg>
