<svg width="91" height="91" viewBox="0 0 91 91" fill="none" xmlns="http://www.w3.org/2000/svg">
<path d="M33.3731 49.9096C32.4993 49.9096 31.6432 49.7856 30.8048 49.5376C29.9782 49.2778 29.2815 48.9235 28.7146 48.4748L29.6889 46.6858C30.1376 47.0519 30.6808 47.3471 31.3184 47.5714C31.9679 47.7958 32.641 47.908 33.3377 47.908C34.1525 47.908 34.7902 47.7368 35.2507 47.3943C35.7231 47.0519 35.9592 46.5913 35.9592 46.0127C35.9592 45.623 35.8589 45.2806 35.6581 44.9854C35.4692 44.6901 35.1267 44.4658 34.6308 44.3123C34.1466 44.1588 33.4794 44.082 32.6292 44.082H29.6357L30.2734 37.3334H37.5534V39.2641H31.1236L32.3281 38.1659L31.8498 43.2141L30.6454 42.1336H33.1429C34.371 42.1336 35.357 42.2989 36.1009 42.6295C36.8567 42.9484 37.4058 43.3971 37.7482 43.9757C38.1025 44.5425 38.2796 45.192 38.2796 45.9241C38.2796 46.6445 38.1025 47.3058 37.7482 47.908C37.394 48.5102 36.8508 48.9944 36.1186 49.3605C35.3983 49.7265 34.4832 49.9096 33.3731 49.9096ZM44.4257 49.9096C43.4456 49.9096 42.56 49.6616 41.7688 49.1656C40.9894 48.6696 40.3754 47.9493 39.9266 47.0046C39.4779 46.0481 39.2536 44.8909 39.2536 43.5329C39.2536 42.1749 39.4779 41.0236 39.9266 40.0789C40.3754 39.1224 40.9894 38.3962 41.7688 37.9002C42.56 37.4042 43.4456 37.1562 44.4257 37.1562C45.4176 37.1562 46.3033 37.4042 47.0827 37.9002C47.862 38.3962 48.4761 39.1224 48.9248 40.0789C49.3853 41.0236 49.6156 42.1749 49.6156 43.5329C49.6156 44.8909 49.3853 46.0481 48.9248 47.0046C48.4761 47.9493 47.862 48.6696 47.0827 49.1656C46.3033 49.6616 45.4176 49.9096 44.4257 49.9096ZM44.4257 47.908C45.0043 47.908 45.5062 47.7545 45.9313 47.4475C46.3564 47.1286 46.6871 46.6445 46.9232 45.995C47.1712 45.3455 47.2952 44.5248 47.2952 43.5329C47.2952 42.5292 47.1712 41.7085 46.9232 41.0708C46.6871 40.4213 46.3564 39.9431 45.9313 39.6361C45.5062 39.3172 45.0043 39.1578 44.4257 39.1578C43.8707 39.1578 43.3748 39.3172 42.9378 39.6361C42.5127 39.9431 42.1762 40.4213 41.9282 41.0708C41.692 41.7085 41.5739 42.5292 41.5739 43.5329C41.5739 44.5248 41.692 45.3455 41.9282 45.995C42.1762 46.6445 42.5127 47.1286 42.9378 47.4475C43.3748 47.7545 43.8707 47.908 44.4257 47.908ZM52.5533 49.7324L61.0201 37.3334H62.756L54.2892 49.7324H52.5533ZM53.5807 44.0111C53.0021 44.0111 52.4884 43.8694 52.0397 43.586C51.5909 43.3026 51.2426 42.907 50.9946 42.3993C50.7466 41.8915 50.6226 41.2952 50.6226 40.6103C50.6226 39.9254 50.7466 39.329 50.9946 38.8213C51.2426 38.3135 51.5909 37.9179 52.0397 37.6345C52.4884 37.3511 53.0021 37.2094 53.5807 37.2094C54.1829 37.2094 54.7025 37.3511 55.1394 37.6345C55.5881 37.9179 55.9365 38.3135 56.1845 38.8213C56.4325 39.329 56.5564 39.9254 56.5564 40.6103C56.5564 41.2952 56.4325 41.8915 56.1845 42.3993C55.9365 42.907 55.5881 43.3026 55.1394 43.586C54.7025 43.8694 54.1829 44.0111 53.5807 44.0111ZM53.5984 42.7712C54.0707 42.7712 54.4368 42.5882 54.6966 42.2221C54.9682 41.8443 55.104 41.307 55.104 40.6103C55.104 39.9136 54.9682 39.3822 54.6966 39.0161C54.4368 38.6382 54.0707 38.4493 53.5984 38.4493C53.126 38.4493 52.7482 38.6382 52.4648 39.0161C52.1932 39.394 52.0574 39.9254 52.0574 40.6103C52.0574 41.2952 52.1932 41.8266 52.4648 42.2044C52.7482 42.5823 53.126 42.7712 53.5984 42.7712ZM61.7109 49.8564C61.1323 49.8564 60.6186 49.7147 60.1699 49.4313C59.7212 49.1479 59.3728 48.7523 59.1248 48.2445C58.8768 47.7368 58.7528 47.1404 58.7528 46.4555C58.7528 45.7706 58.8768 45.1743 59.1248 44.6665C59.3728 44.1588 59.7212 43.7632 60.1699 43.4798C60.6186 43.1964 61.1323 43.0547 61.7109 43.0547C62.3131 43.0547 62.8327 43.1964 63.2696 43.4798C63.7184 43.7632 64.0667 44.1588 64.3147 44.6665C64.5627 45.1743 64.6867 45.7706 64.6867 46.4555C64.6867 47.1404 64.5627 47.7368 64.3147 48.2445C64.0667 48.7523 63.7184 49.1479 63.2696 49.4313C62.8327 49.7147 62.3131 49.8564 61.7109 49.8564ZM61.7109 48.6165C62.1833 48.6165 62.5552 48.4276 62.8268 48.0497C63.0984 47.6718 63.2342 47.1404 63.2342 46.4555C63.2342 45.7706 63.0984 45.2392 62.8268 44.8614C62.5552 44.4835 62.1833 44.2946 61.7109 44.2946C61.2504 44.2946 60.8784 44.4835 60.595 44.8614C60.3234 45.2274 60.1876 45.7588 60.1876 46.4555C60.1876 47.1522 60.3234 47.6895 60.595 48.0674C60.8784 48.4335 61.2504 48.6165 61.7109 48.6165Z" fill="white"/>
<g filter="url(#filter0_f_52_14434)">
<circle cx="45.4347" cy="45.4347" r="26.9554" stroke="url(#paint0_linear_52_14434)" stroke-width="6.95865"/>
</g>
<circle cx="45.4347" cy="45.4347" r="26.9554" stroke="url(#paint1_linear_52_14434)" stroke-width="6.95865"/>
<defs>
<filter id="filter0_f_52_14434" x="0.450103" y="0.450103" width="89.9709" height="89.9689" filterUnits="userSpaceOnUse" color-interpolation-filters="sRGB">
<feFlood flood-opacity="0" result="BackgroundImageFix"/>
<feBlend mode="normal" in="SourceGraphic" in2="BackgroundImageFix" result="shape"/>
<feGaussianBlur stdDeviation="7.27495" result="effect1_foregroundBlur_52_14434"/>
</filter>
<linearGradient id="paint0_linear_52_14434" x1="36.888" y1="15" x2="55.2322" y2="63.779" gradientUnits="userSpaceOnUse">
<stop stop-color="#000AFB"/>
<stop offset="1" stop-color="#272FFF" stop-opacity="0"/>
</linearGradient>
<linearGradient id="paint1_linear_52_14434" x1="36.888" y1="15" x2="49.8123" y2="54.3984" gradientUnits="userSpaceOnUse">
<stop stop-color="#000AFB"/>
<stop offset="1" stop-color="#272FFF" stop-opacity="0"/>
</linearGradient>
</defs>
</svg>
