<svg width="91" height="91" viewBox="0 0 91 91" fill="none" xmlns="http://www.w3.org/2000/svg">
<path d="M34.2153 49.9096C33.3414 49.9096 32.4853 49.7856 31.6469 49.5376C30.8203 49.2778 30.1236 48.9235 29.5568 48.4748L30.5487 46.6858C30.9974 47.0519 31.5406 47.3471 32.1783 47.5714C32.816 47.7958 33.4831 47.908 34.1798 47.908C35.0065 47.908 35.65 47.7427 36.1106 47.412C36.5711 47.0696 36.8014 46.609 36.8014 46.0304C36.8014 45.4636 36.5888 45.0149 36.1637 44.6842C35.7386 44.3536 35.0537 44.1883 34.109 44.1883H32.9754V42.6118L36.518 38.3962L36.8191 39.2641H30.159V37.3334H38.6081V38.8744L35.0655 43.0901L33.861 42.3816H34.5518C36.0751 42.3816 37.2147 42.724 37.9704 43.4089C38.738 44.082 39.1218 44.9499 39.1218 46.0127C39.1218 46.7094 38.9446 47.353 38.5904 47.9434C38.2361 48.5338 37.6929 49.0121 36.9608 49.3782C36.2405 49.7324 35.3253 49.9096 34.2153 49.9096ZM45.4458 49.9096C44.4657 49.9096 43.5801 49.6616 42.7889 49.1656C42.0095 48.6696 41.3955 47.9493 40.9467 47.0046C40.498 46.0481 40.2736 44.8909 40.2736 43.5329C40.2736 42.1749 40.498 41.0236 40.9467 40.0789C41.3955 39.1224 42.0095 38.3962 42.7889 37.9002C43.5801 37.4042 44.4657 37.1562 45.4458 37.1562C46.4377 37.1562 47.3234 37.4042 48.1028 37.9002C48.8821 38.3962 49.4962 39.1224 49.9449 40.0789C50.4054 41.0236 50.6357 42.1749 50.6357 43.5329C50.6357 44.8909 50.4054 46.0481 49.9449 47.0046C49.4962 47.9493 48.8821 48.6696 48.1028 49.1656C47.3234 49.6616 46.4377 49.9096 45.4458 49.9096ZM45.4458 47.908C46.0244 47.908 46.5263 47.7545 46.9514 47.4475C47.3765 47.1286 47.7072 46.6445 47.9433 45.995C48.1913 45.3455 48.3153 44.5248 48.3153 43.5329C48.3153 42.5292 48.1913 41.7085 47.9433 41.0708C47.7072 40.4213 47.3765 39.9431 46.9514 39.6361C46.5263 39.3172 46.0244 39.1578 45.4458 39.1578C44.8908 39.1578 44.3949 39.3172 43.9579 39.6361C43.5328 39.9431 43.1963 40.4213 42.9483 41.0708C42.7121 41.7085 42.594 42.5292 42.594 43.5329C42.594 44.5248 42.7121 45.3455 42.9483 45.995C43.1963 46.6445 43.5328 47.1286 43.9579 47.4475C44.3949 47.7545 44.8908 47.908 45.4458 47.908ZM53.5734 49.7324L62.0402 37.3334H63.7761L55.3093 49.7324H53.5734ZM54.6008 44.0111C54.0221 44.0111 53.5085 43.8694 53.0597 43.586C52.611 43.3026 52.2627 42.907 52.0147 42.3993C51.7667 41.8915 51.6427 41.2952 51.6427 40.6103C51.6427 39.9254 51.7667 39.329 52.0147 38.8213C52.2627 38.3135 52.611 37.9179 53.0597 37.6345C53.5085 37.3511 54.0221 37.2094 54.6008 37.2094C55.203 37.2094 55.7226 37.3511 56.1595 37.6345C56.6082 37.9179 56.9566 38.3135 57.2046 38.8213C57.4525 39.329 57.5765 39.9254 57.5765 40.6103C57.5765 41.2952 57.4525 41.8915 57.2046 42.3993C56.9566 42.907 56.6082 43.3026 56.1595 43.586C55.7226 43.8694 55.203 44.0111 54.6008 44.0111ZM54.6185 42.7712C55.0908 42.7712 55.4569 42.5882 55.7167 42.2221C55.9883 41.8443 56.1241 41.307 56.1241 40.6103C56.1241 39.9136 55.9883 39.3822 55.7167 39.0161C55.4569 38.6382 55.0908 38.4493 54.6185 38.4493C54.1461 38.4493 53.7683 38.6382 53.4849 39.0161C53.2133 39.394 53.0775 39.9254 53.0775 40.6103C53.0775 41.2952 53.2133 41.8266 53.4849 42.2044C53.7683 42.5823 54.1461 42.7712 54.6185 42.7712ZM62.731 49.8564C62.1524 49.8564 61.6387 49.7147 61.19 49.4313C60.7412 49.1479 60.3929 48.7523 60.1449 48.2445C59.8969 47.7368 59.7729 47.1404 59.7729 46.4555C59.7729 45.7706 59.8969 45.1743 60.1449 44.6665C60.3929 44.1588 60.7412 43.7632 61.19 43.4798C61.6387 43.1964 62.1524 43.0547 62.731 43.0547C63.3332 43.0547 63.8528 43.1964 64.2897 43.4798C64.7385 43.7632 65.0868 44.1588 65.3348 44.6665C65.5828 45.1743 65.7068 45.7706 65.7068 46.4555C65.7068 47.1404 65.5828 47.7368 65.3348 48.2445C65.0868 48.7523 64.7385 49.1479 64.2897 49.4313C63.8528 49.7147 63.3332 49.8564 62.731 49.8564ZM62.731 48.6165C63.2033 48.6165 63.5753 48.4276 63.8469 48.0497C64.1185 47.6718 64.2543 47.1404 64.2543 46.4555C64.2543 45.7706 64.1185 45.2392 63.8469 44.8614C63.5753 44.4835 63.2033 44.2946 62.731 44.2946C62.2705 44.2946 61.8985 44.4835 61.6151 44.8614C61.3435 45.2274 61.2077 45.7588 61.2077 46.4555C61.2077 47.1522 61.3435 47.6895 61.6151 48.0674C61.8985 48.4335 62.2705 48.6165 62.731 48.6165Z" fill="white"/>
<g filter="url(#filter0_f_52_14429)">
<circle cx="45.4347" cy="45.4347" r="26.9554" stroke="url(#paint0_linear_52_14429)" stroke-width="6.95865"/>
</g>
<circle cx="45.4347" cy="45.4347" r="26.9554" stroke="url(#paint1_linear_52_14429)" stroke-width="6.95865"/>
<defs>
<filter id="filter0_f_52_14429" x="0.450103" y="0.450103" width="89.9709" height="89.9689" filterUnits="userSpaceOnUse" color-interpolation-filters="sRGB">
<feFlood flood-opacity="0" result="BackgroundImageFix"/>
<feBlend mode="normal" in="SourceGraphic" in2="BackgroundImageFix" result="shape"/>
<feGaussianBlur stdDeviation="7.27495" result="effect1_foregroundBlur_52_14429"/>
</filter>
<linearGradient id="paint0_linear_52_14429" x1="36.888" y1="15" x2="45.4814" y2="40.5193" gradientUnits="userSpaceOnUse">
<stop stop-color="#000AFB"/>
<stop offset="1" stop-color="#272FFF" stop-opacity="0"/>
</linearGradient>
<linearGradient id="paint1_linear_52_14429" x1="36.888" y1="15" x2="45.4347" y2="36.4711" gradientUnits="userSpaceOnUse">
<stop stop-color="#000AFB"/>
<stop offset="1" stop-color="#272FFF" stop-opacity="0"/>
</linearGradient>
</defs>
</svg>
