<svg width="28" height="28" viewBox="0 0 28 28" fill="none" xmlns="http://www.w3.org/2000/svg">
<g clip-path="url(#clip0_46_4673)">
<path d="M26.5508 4.81758V22.0824H1.44922V4.81758C1.44922 3.93711 2.16016 3.2207 3.04609 3.2207H24.9594C25.8398 3.2207 26.5508 3.93711 26.5508 4.81758Z" fill="#D3D9D9"/>
<path d="M26.5516 4.81758V22.0824H24.9602V4.81758C24.9602 3.93711 24.2438 3.2207 23.3633 3.2207H24.9547C25.8406 3.2207 26.5516 3.93711 26.5516 4.81758Z" fill="#A8B2B4"/>
<path d="M4.63203 3.2207C3.75156 3.2207 3.03516 3.93711 3.03516 4.81758V22.0824H1.44922V4.81758C1.44922 3.93711 2.16016 3.2207 3.04062 3.2207H4.63203Z" fill="#EDEDED"/>
<path d="M11.8508 15.1867L15.843 9.8L20.825 12.518L24.9648 8.06094V5.25547C24.9648 5.00937 24.768 4.8125 24.5273 4.8125H3.47812C3.2375 4.8125 3.03516 5.00937 3.03516 5.25547V17.243L7.16406 13.0211L11.8508 15.1867Z" fill="#FB8A8A"/>
<path d="M20.825 12.5234L15.843 9.80547L11.8508 15.1867L7.16406 13.0211L3.03516 17.243V20.4914H24.9648V8.06641L20.825 12.5234Z" fill="#FCB1B1"/>
<path d="M27.7812 22.082V23.1484C27.7812 24.0453 27.0539 24.7781 26.1516 24.7781H1.84844C0.946094 24.7781 0.21875 24.0508 0.21875 23.1484V22.082H27.7812Z" fill="#A8B2B4"/>
<path d="M3.43984 24.7781H1.84297C0.946094 24.7781 0.21875 24.0508 0.21875 23.1484V22.082H1.81563V23.1484C1.81563 24.0508 2.54297 24.7781 3.43984 24.7781Z" fill="#D3D9D9"/>
<path d="M27.7812 22.082V23.1484C27.7812 24.0453 27.0539 24.7781 26.1516 24.7781H24.5547C25.4516 24.7781 26.1844 24.0508 26.1844 23.1484V22.082H27.7812Z" fill="#7C8B8E"/>
<path d="M17.9602 22.082V22.8477C17.9602 23.1156 17.7414 23.3289 17.4789 23.3289H10.5281C10.2602 23.3289 10.0469 23.1102 10.0469 22.8477V22.082H17.9602Z" fill="white"/>
<path d="M17.9594 22.082V22.8531C17.9594 23.1211 17.7406 23.3344 17.4781 23.3344H16.1875C16.4555 23.3344 16.6687 23.1211 16.6687 22.8531V22.082H17.9594Z" fill="#EDEDED"/>
<path d="M8.12344 13.0266C8.12344 13.5734 7.675 14.0219 7.12813 14.0219C6.58125 14.0219 6.13281 13.5789 6.13281 13.0266C6.13281 12.4742 6.58125 12.0312 7.12813 12.0312C7.675 12.0312 8.12344 12.4797 8.12344 13.0266Z" fill="white"/>
<path d="M16.8617 9.8C16.8617 10.3469 16.4188 10.7953 15.8664 10.7953C15.3141 10.7953 14.8711 10.3469 14.8711 9.8C14.8711 9.25312 15.3141 8.80469 15.8664 8.80469C16.4188 8.80469 16.8617 9.25312 16.8617 9.8Z" fill="white"/>
<path d="M21.8227 12.5236C21.8227 13.0705 21.3797 13.5189 20.8273 13.5189C20.275 13.5189 19.832 13.0705 19.832 12.5236C19.832 11.9768 20.275 11.5283 20.8273 11.5283C21.3797 11.5283 21.8227 11.9768 21.8227 12.5236Z" fill="white"/>
<path d="M12.8578 15.1809C12.8578 15.7277 12.4094 16.1762 11.8625 16.1762C11.3102 16.1762 10.8672 15.7277 10.8672 15.1809C10.8672 14.634 11.3102 14.1855 11.8625 14.1855C12.4094 14.1855 12.8578 14.634 12.8578 15.1809Z" fill="white"/>
<path d="M8.12266 13.0268C8.12266 13.5736 7.67422 14.0221 7.12734 14.0221C6.70625 14.0221 6.35078 13.7596 6.20312 13.3932C6.31797 13.4369 6.44375 13.4643 6.575 13.4643C7.12187 13.4643 7.57031 13.0213 7.57031 12.4689C7.57031 12.3377 7.54844 12.2174 7.49922 12.1025C7.86563 12.2502 8.12266 12.6111 8.12266 13.0268Z" fill="#EDEDED"/>
<path d="M16.8609 9.7998C16.8609 10.3467 16.418 10.7951 15.8656 10.7951C15.4445 10.7951 15.0891 10.5326 14.9414 10.1662C15.0562 10.2154 15.1766 10.2373 15.3078 10.2373C15.8547 10.2373 16.3031 9.78887 16.3031 9.24199C16.3031 9.11074 16.2758 8.98496 16.232 8.87012C16.6039 9.02324 16.8609 9.38418 16.8609 9.7998Z" fill="#EDEDED"/>
<path d="M21.8219 12.5229C21.8219 13.0697 21.3789 13.5182 20.8266 13.5182C20.4055 13.5182 20.05 13.2611 19.9023 12.8947C20.0172 12.9385 20.143 12.9658 20.2688 12.9658C20.8156 12.9658 21.2641 12.5174 21.2641 11.9705C21.2641 11.8393 21.2367 11.7135 21.193 11.5986C21.5594 11.7463 21.8219 12.1072 21.8219 12.5229Z" fill="#EDEDED"/>
<path d="M12.857 15.1811C12.857 15.7279 12.4086 16.1764 11.8617 16.1764C11.4406 16.1764 11.0852 15.9139 10.9375 15.5475C11.0523 15.5967 11.1727 15.6186 11.3039 15.6186C11.8508 15.6186 12.2992 15.1701 12.2992 14.6232C12.2992 14.492 12.2773 14.3717 12.2281 14.2568C12.5945 14.4045 12.857 14.76 12.857 15.1811Z" fill="#EDEDED"/>
<path d="M27.7812 21.8691H26.7695V4.81758C26.7695 3.8168 25.9547 3.00195 24.9539 3.00195H3.04062C2.03984 3.00195 1.225 3.8168 1.225 4.81758V21.8637H0.21875C0.0984375 21.8637 0 21.9621 0 22.0824V23.1488C0 24.166 0.825781 24.9973 1.84844 24.9973H26.157C27.1742 24.9973 28.0055 24.1715 28.0055 23.1488V22.0824C28 21.9621 27.9016 21.8691 27.7812 21.8691ZM10.2594 22.3066H17.7352V22.8535C17.7352 23.0012 17.6148 23.116 17.4727 23.116H10.5273C10.3797 23.116 10.2648 22.9957 10.2648 22.8535V22.3066H10.2594ZM1.66797 4.81758C1.66797 4.05742 2.28594 3.43945 3.04609 3.43945H24.9594C25.7195 3.43945 26.3375 4.05742 26.3375 4.81758V21.8637H1.66797V4.81758ZM27.5625 23.1488C27.5625 23.9254 26.9281 24.5598 26.1516 24.5598H1.84844C1.07187 24.5598 0.4375 23.9254 0.4375 23.1488V22.3012H9.82188V22.848C9.82188 23.2363 10.1391 23.548 10.5219 23.548H17.4727C17.8609 23.548 18.1727 23.2309 18.1727 22.848V22.3012H27.5625V23.1488Z" fill="#333333"/>
<path d="M24.5219 4.59863H3.47812C3.11719 4.59863 2.81641 4.89395 2.81641 5.26035V20.4963C2.81641 20.6166 2.91484 20.715 3.03516 20.715H24.9594C25.0797 20.715 25.1781 20.6166 25.1781 20.4963V5.25488C25.1836 4.89395 24.8883 4.59863 24.5219 4.59863ZM3.47812 5.03613H24.5219C24.6422 5.03613 24.7406 5.13457 24.7406 5.26035V7.98379L21.4703 11.5057C21.2844 11.3854 21.0602 11.3143 20.8195 11.3143C20.4367 11.3143 20.0977 11.4893 19.8789 11.7627L17.0078 10.1932C17.0516 10.0674 17.0734 9.93613 17.0734 9.79941C17.0734 9.13223 16.532 8.58535 15.8594 8.58535C15.1922 8.58535 14.6453 9.13223 14.6453 9.79941C14.6453 10.1111 14.7656 10.3955 14.9625 10.6143L12.3867 14.0924C12.2281 14.0158 12.0477 13.9666 11.8562 13.9666C11.4461 13.9666 11.0797 14.1744 10.8609 14.4916L8.30703 13.3104C8.32891 13.2229 8.33984 13.1299 8.33984 13.0314C8.33984 12.3643 7.79297 11.8174 7.12578 11.8174C6.45859 11.8174 5.91172 12.3643 5.91172 13.0314C5.91172 13.2994 5.99922 13.5455 6.14688 13.7479L3.25391 16.7119V5.25488C3.25391 5.13457 3.35781 5.03613 3.47812 5.03613ZM20.825 11.7463C21.2516 11.7463 21.6016 12.0963 21.6016 12.5229C21.6016 12.9494 21.2516 13.2994 20.825 13.2994C20.3984 13.2994 20.0484 12.9494 20.0484 12.5229C20.0484 12.0963 20.3984 11.7463 20.825 11.7463ZM15.0938 9.79941C15.0938 9.37285 15.4438 9.02285 15.8703 9.02285C16.2969 9.02285 16.6469 9.37285 16.6469 9.79941C16.6469 10.226 16.2969 10.576 15.8703 10.576C15.4383 10.576 15.0938 10.2314 15.0938 9.79941ZM11.8617 14.4041C12.2883 14.4041 12.6383 14.7541 12.6383 15.1807C12.6383 15.6072 12.2883 15.9572 11.8617 15.9572C11.4352 15.9572 11.0852 15.6072 11.0852 15.1807C11.0852 14.7541 11.4297 14.4041 11.8617 14.4041ZM6.34922 13.026C6.34922 12.5994 6.69922 12.2494 7.12578 12.2494C7.55234 12.2494 7.90234 12.5994 7.90234 13.026C7.90234 13.4525 7.55234 13.8025 7.12578 13.8025C6.69922 13.8025 6.34922 13.458 6.34922 13.026ZM3.25391 20.2721V17.3299L6.46406 14.0432C6.65547 14.1689 6.87969 14.24 7.12578 14.24C7.54141 14.24 7.91328 14.0268 8.13203 13.7096L10.6859 14.8908C10.6641 14.9838 10.6477 15.0822 10.6477 15.1807C10.6477 15.8479 11.1945 16.3947 11.8617 16.3947C12.5289 16.3947 13.0758 15.8479 13.0758 15.1807C13.0758 14.858 12.95 14.5682 12.7477 14.3494L15.318 10.8822C15.482 10.9643 15.668 11.0135 15.8703 11.0135C16.2477 11.0135 16.5812 10.8439 16.8055 10.576L19.6766 12.1455C19.6383 12.2658 19.6164 12.3916 19.6164 12.5229C19.6164 13.19 20.1633 13.7369 20.8305 13.7369C21.4977 13.7369 22.0445 13.19 22.0445 12.5229C22.0445 12.2494 21.9516 11.9979 21.8039 11.7955L24.7516 8.61816V20.2721H3.25391Z" fill="#333333"/>
</g>
<defs>
<clipPath id="clip0_46_4673">
<rect width="28" height="28" fill="white"/>
</clipPath>
</defs>
</svg>
