<svg width="23" height="23" viewBox="0 0 23 23" fill="none" xmlns="http://www.w3.org/2000/svg">
<path d="M11.5 0C5.1635 0 0 5.1635 0 11.5C0 17.8365 5.1635 23 11.5 23C17.8365 23 23 17.8365 23 11.5C23 5.1635 17.8365 0 11.5 0ZM16.997 8.855L10.4765 15.3755C10.3148 15.537 10.0956 15.6277 9.867 15.6277C9.63844 15.6277 9.41922 15.537 9.2575 15.3755L6.003 12.121C5.8426 11.9587 5.75264 11.7397 5.75264 11.5115C5.75264 11.2833 5.8426 11.0643 6.003 10.902C6.3365 10.5685 6.8885 10.5685 7.222 10.902L9.867 13.547L15.778 7.636C16.1115 7.3025 16.6635 7.3025 16.997 7.636C17.3305 7.9695 17.3305 8.51 16.997 8.855Z" fill="#4DBEB1"/>
</svg>
