<svg width="91" height="91" viewBox="0 0 91 91" fill="none" xmlns="http://www.w3.org/2000/svg">
<g filter="url(#filter0_f_52_14439)">
<circle cx="45.4386" cy="45.3068" r="26.9554" stroke="url(#paint0_linear_52_14439)" stroke-width="6.95865"/>
</g>
<path d="M32.8218 48.3447V36.8313L33.8314 37.8764H30.2003V35.9457H35.1245V48.3447H32.8218ZM42.402 48.5219C41.4219 48.5219 40.5362 48.2739 39.7451 47.7779C38.9657 47.282 38.3517 46.5616 37.9029 45.6169C37.4542 44.6604 37.2298 43.5032 37.2298 42.1452C37.2298 40.7872 37.4542 39.6359 37.9029 38.6912C38.3517 37.7347 38.9657 37.0085 39.7451 36.5125C40.5362 36.0165 41.4219 35.7686 42.402 35.7686C43.3939 35.7686 44.2796 36.0165 45.0589 36.5125C45.8383 37.0085 46.4524 37.7347 46.9011 38.6912C47.3616 39.6359 47.5919 40.7872 47.5919 42.1452C47.5919 43.5032 47.3616 44.6604 46.9011 45.6169C46.4524 46.5616 45.8383 47.282 45.0589 47.7779C44.2796 48.2739 43.3939 48.5219 42.402 48.5219ZM42.402 46.5203C42.9806 46.5203 43.4825 46.3668 43.9076 46.0598C44.3327 45.7409 44.6634 45.2568 44.8995 44.6073C45.1475 43.9578 45.2715 43.1371 45.2715 42.1452C45.2715 41.1415 45.1475 40.3208 44.8995 39.6831C44.6634 39.0336 44.3327 38.5554 43.9076 38.2484C43.4825 37.9295 42.9806 37.7701 42.402 37.7701C41.847 37.7701 41.351 37.9295 40.9141 38.2484C40.489 38.5554 40.1525 39.0336 39.9045 39.6831C39.6683 40.3208 39.5502 41.1415 39.5502 42.1452C39.5502 43.1371 39.6683 43.9578 39.9045 44.6073C40.1525 45.2568 40.489 45.7409 40.9141 46.0598C41.351 46.3668 41.847 46.5203 42.402 46.5203ZM50.5296 48.3447L58.9964 35.9457H60.7323L52.2655 48.3447H50.5296ZM51.557 42.6235C50.9783 42.6235 50.4647 42.4818 50.0159 42.1983C49.5672 41.9149 49.2189 41.5193 48.9709 41.0116C48.7229 40.5038 48.5989 39.9075 48.5989 39.2226C48.5989 38.5377 48.7229 37.9413 48.9709 37.4336C49.2189 36.9258 49.5672 36.5302 50.0159 36.2468C50.4647 35.9634 50.9783 35.8217 51.557 35.8217C52.1592 35.8217 52.6788 35.9634 53.1157 36.2468C53.5644 36.5302 53.9128 36.9258 54.1608 37.4336C54.4087 37.9413 54.5327 38.5377 54.5327 39.2226C54.5327 39.9075 54.4087 40.5038 54.1608 41.0116C53.9128 41.5193 53.5644 41.9149 53.1157 42.1983C52.6788 42.4818 52.1592 42.6235 51.557 42.6235ZM51.5747 41.3835C52.047 41.3835 52.4131 41.2005 52.6729 40.8344C52.9445 40.4566 53.0803 39.9193 53.0803 39.2226C53.0803 38.5259 52.9445 37.9945 52.6729 37.6284C52.4131 37.2505 52.047 37.0616 51.5747 37.0616C51.1023 37.0616 50.7245 37.2505 50.441 37.6284C50.1694 38.0063 50.0336 38.5377 50.0336 39.2226C50.0336 39.9075 50.1694 40.4389 50.441 40.8167C50.7245 41.1946 51.1023 41.3835 51.5747 41.3835ZM59.6872 48.4687C59.1086 48.4687 58.5949 48.327 58.1462 48.0436C57.6974 47.7602 57.3491 47.3646 57.1011 46.8568C56.8531 46.3491 56.7291 45.7527 56.7291 45.0678C56.7291 44.3829 56.8531 43.7866 57.1011 43.2788C57.3491 42.7711 57.6974 42.3755 58.1462 42.0921C58.5949 41.8087 59.1086 41.667 59.6872 41.667C60.2894 41.667 60.809 41.8087 61.2459 42.0921C61.6947 42.3755 62.043 42.7711 62.291 43.2788C62.539 43.7866 62.663 44.3829 62.663 45.0678C62.663 45.7527 62.539 46.3491 62.291 46.8568C62.043 47.3646 61.6947 47.7602 61.2459 48.0436C60.809 48.327 60.2894 48.4687 59.6872 48.4687ZM59.6872 47.2288C60.1595 47.2288 60.5315 47.0399 60.8031 46.662C61.0747 46.2841 61.2105 45.7527 61.2105 45.0678C61.2105 44.3829 61.0747 43.8515 60.8031 43.4737C60.5315 43.0958 60.1595 42.9069 59.6872 42.9069C59.2267 42.9069 58.8547 43.0958 58.5713 43.4737C58.2997 43.8397 58.1639 44.3711 58.1639 45.0678C58.1639 45.7645 58.2997 46.3018 58.5713 46.6797C58.8547 47.0458 59.2267 47.2288 59.6872 47.2288Z" fill="white"/>
<circle cx="45.4347" cy="45.3039" r="26.9554" stroke="url(#paint1_linear_52_14439)" stroke-width="6.95865"/>
<defs>
<filter id="filter0_f_52_14439" x="0.454009" y="0.322173" width="89.9709" height="89.9689" filterUnits="userSpaceOnUse" color-interpolation-filters="sRGB">
<feFlood flood-opacity="0" result="BackgroundImageFix"/>
<feBlend mode="normal" in="SourceGraphic" in2="BackgroundImageFix" result="shape"/>
<feGaussianBlur stdDeviation="7.27495" result="effect1_foregroundBlur_52_14439"/>
</filter>
<linearGradient id="paint0_linear_52_14439" x1="30.6473" y1="21.7615" x2="32.8614" y2="26.1898" gradientUnits="userSpaceOnUse">
<stop stop-color="#000AFB"/>
<stop offset="1" stop-color="#272FFF" stop-opacity="0"/>
</linearGradient>
<linearGradient id="paint1_linear_52_14439" x1="32.2249" y1="19.5439" x2="39.1835" y2="25.8699" gradientUnits="userSpaceOnUse">
<stop stop-color="#000AFB"/>
<stop offset="1" stop-color="#272FFF" stop-opacity="0"/>
</linearGradient>
</defs>
</svg>
