<svg width="91" height="91" viewBox="0 0 91 91" fill="none" xmlns="http://www.w3.org/2000/svg">
<path d="M27.5671 47.6885V46.0944L33.678 38.1058H36.1401L30.1177 46.0944L28.9664 45.7401H38.7971V47.6885H27.5671ZM34.3688 50.5049V47.6885L34.4397 45.7401V43.2426H36.6007V50.5049H34.3688ZM44.5841 50.682C43.604 50.682 42.7183 50.434 41.9271 49.9381C41.1478 49.4421 40.5337 48.7218 40.085 47.7771C39.6363 46.8206 39.4119 45.6634 39.4119 44.3054C39.4119 42.9474 39.6363 41.796 40.085 40.8513C40.5337 39.8948 41.1478 39.1686 41.9271 38.6727C42.7183 38.1767 43.604 37.9287 44.5841 37.9287C45.576 37.9287 46.4616 38.1767 47.241 38.6727C48.0204 39.1686 48.6344 39.8948 49.0832 40.8513C49.5437 41.796 49.774 42.9474 49.774 44.3054C49.774 45.6634 49.5437 46.8206 49.0832 47.7771C48.6344 48.7218 48.0204 49.4421 47.241 49.9381C46.4616 50.434 45.576 50.682 44.5841 50.682ZM44.5841 48.6805C45.1627 48.6805 45.6646 48.5269 46.0897 48.2199C46.5148 47.9011 46.8454 47.4169 47.0816 46.7675C47.3296 46.118 47.4536 45.2973 47.4536 44.3054C47.4536 43.3016 47.3296 42.4809 47.0816 41.8433C46.8454 41.1938 46.5148 40.7155 46.0897 40.4085C45.6646 40.0897 45.1627 39.9303 44.5841 39.9303C44.0291 39.9303 43.5331 40.0897 43.0962 40.4085C42.6711 40.7155 42.3345 41.1938 42.0866 41.8433C41.8504 42.4809 41.7323 43.3016 41.7323 44.3054C41.7323 45.2973 41.8504 46.118 42.0866 46.7675C42.3345 47.4169 42.6711 47.9011 43.0962 48.2199C43.5331 48.5269 44.0291 48.6805 44.5841 48.6805ZM52.7117 50.5049L61.1785 38.1058H62.9143L54.4475 50.5049H52.7117ZM53.739 44.7836C53.1604 44.7836 52.6467 44.6419 52.198 44.3585C51.7493 44.0751 51.4009 43.6795 51.1529 43.1717C50.905 42.664 50.781 42.0676 50.781 41.3827C50.781 40.6978 50.905 40.1015 51.1529 39.5937C51.4009 39.086 51.7493 38.6904 52.198 38.407C52.6467 38.1236 53.1604 37.9818 53.739 37.9818C54.3413 37.9818 54.8608 38.1236 55.2978 38.407C55.7465 38.6904 56.0948 39.086 56.3428 39.5937C56.5908 40.1015 56.7148 40.6978 56.7148 41.3827C56.7148 42.0676 56.5908 42.664 56.3428 43.1717C56.0948 43.6795 55.7465 44.0751 55.2978 44.3585C54.8608 44.6419 54.3413 44.7836 53.739 44.7836ZM53.7567 43.5437C54.2291 43.5437 54.5952 43.3607 54.8549 42.9946C55.1265 42.6167 55.2623 42.0794 55.2623 41.3827C55.2623 40.686 55.1265 40.1546 54.8549 39.7886C54.5952 39.4107 54.2291 39.2218 53.7567 39.2218C53.2844 39.2218 52.9065 39.4107 52.6231 39.7886C52.3515 40.1664 52.2157 40.6978 52.2157 41.3827C52.2157 42.0676 52.3515 42.599 52.6231 42.9769C52.9065 43.3548 53.2844 43.5437 53.7567 43.5437ZM61.8693 50.6289C61.2906 50.6289 60.777 50.4872 60.3282 50.2038C59.8795 49.9204 59.5312 49.5248 59.2832 49.017C59.0352 48.5092 58.9112 47.9129 58.9112 47.228C58.9112 46.5431 59.0352 45.9468 59.2832 45.439C59.5312 44.9312 59.8795 44.5356 60.3282 44.2522C60.777 43.9688 61.2906 43.8271 61.8693 43.8271C62.4715 43.8271 62.9911 43.9688 63.428 44.2522C63.8767 44.5356 64.2251 44.9312 64.4731 45.439C64.721 45.9468 64.845 46.5431 64.845 47.228C64.845 47.9129 64.721 48.5092 64.4731 49.017C64.2251 49.5248 63.8767 49.9204 63.428 50.2038C62.9911 50.4872 62.4715 50.6289 61.8693 50.6289ZM61.8693 49.389C62.3416 49.389 62.7136 49.2 62.9852 48.8222C63.2568 48.4443 63.3926 47.9129 63.3926 47.228C63.3926 46.5431 63.2568 46.0117 62.9852 45.6338C62.7136 45.256 62.3416 45.067 61.8693 45.067C61.4087 45.067 61.0368 45.256 60.7533 45.6338C60.4817 45.9999 60.3459 46.5313 60.3459 47.228C60.3459 47.9247 60.4817 48.462 60.7533 48.8399C61.0368 49.2059 61.4087 49.389 61.8693 49.389Z" fill="white"/>
<g filter="url(#filter0_f_52_14424)">
<circle cx="45.4347" cy="45.4347" r="26.9554" stroke="url(#paint0_linear_52_14424)" stroke-width="6.95865"/>
</g>
<circle cx="45.4347" cy="45.4347" r="26.9554" stroke="url(#paint1_linear_52_14424)" stroke-width="6.95865"/>
<defs>
<filter id="filter0_f_52_14424" x="0.450103" y="0.450103" width="89.9709" height="89.9689" filterUnits="userSpaceOnUse" color-interpolation-filters="sRGB">
<feFlood flood-opacity="0" result="BackgroundImageFix"/>
<feBlend mode="normal" in="SourceGraphic" in2="BackgroundImageFix" result="shape"/>
<feGaussianBlur stdDeviation="7.27495" result="effect1_foregroundBlur_52_14424"/>
</filter>
<linearGradient id="paint0_linear_52_14424" x1="36.888" y1="15" x2="53.5646" y2="45.4347" gradientUnits="userSpaceOnUse">
<stop stop-color="#000AFB"/>
<stop offset="1" stop-color="#272FFF" stop-opacity="0"/>
</linearGradient>
<linearGradient id="paint1_linear_52_14424" x1="36.888" y1="15" x2="53.5646" y2="45.4347" gradientUnits="userSpaceOnUse">
<stop stop-color="#000AFB"/>
<stop offset="1" stop-color="#272FFF" stop-opacity="0"/>
</linearGradient>
</defs>
</svg>
