<svg width="51" height="41" viewBox="0 0 51 41" fill="none" xmlns="http://www.w3.org/2000/svg">
<path d="M32.9492 18.7694L38.6184 23.4427L32.9492 28.116L33.6387 29.0351L40.3801 23.4427L33.6387 17.9268L32.9492 18.7694Z" fill="#232323"/>
<path d="M17.7062 17.9268L10.9648 23.4427L17.7062 29.0351L18.3957 28.116L12.7266 23.4427L18.3957 18.7694L17.7062 17.9268Z" fill="#232323"/>
<path d="M21.1861 33.8891L20.1562 33.3795L30.1796 13.123L31.2095 13.6326L21.1861 33.8891Z" fill="#232323"/>
<path d="M0.621094 0V40.3734H50.8008V0H0.621094ZM49.651 1.14941V6.66534H1.76997V1.14941H49.651ZM1.76997 39.1476V7.73765H49.651V39.1476H1.76997Z" fill="#232323"/>
<path d="M45.7461 3.29395H46.8952V4.443H45.7461V3.29395Z" fill="#232323"/>
<path d="M42.832 3.29395H43.9811V4.443H42.832V3.29395Z" fill="#232323"/>
<path d="M39.9219 3.29395H41.0709V4.443H39.9219V3.29395Z" fill="#232323"/>
<path d="M5.14201 4.44225H36.0158C36.3222 4.44225 36.6285 4.21231 36.6285 3.82952C36.6285 3.52316 36.3986 3.2168 36.0158 3.2168H5.14201C4.83565 3.2168 4.6057 3.44674 4.6057 3.82952C4.52894 4.21265 4.8353 4.44225 5.14201 4.44225Z" fill="#232323"/>
</svg>
