<svg width="57" height="57" viewBox="0 0 57 57" fill="none" xmlns="http://www.w3.org/2000/svg">
<path d="M51.0843 4.29102C50.6134 4.29102 50.2344 4.67008 50.2344 5.15391C50.2344 5.6345 50.6134 5.99088 51.0843 5.99088C51.5552 5.99088 51.9472 5.6345 51.9472 5.15391C51.9472 4.67008 51.5552 4.29102 51.0843 4.29102Z" fill="#232323"/>
<path d="M41.6781 4.29102C41.2072 4.29102 40.8281 4.67008 40.8281 5.15391C40.8281 5.6345 41.2072 5.99088 41.6781 5.99088C42.1489 5.99088 42.5409 5.6345 42.5409 5.15391C42.5409 4.67008 42.1489 4.29102 41.6781 4.29102Z" fill="#232323"/>
<path d="M46.389 4.28516C45.9181 4.28516 45.5391 4.66423 45.5391 5.14805C45.5391 5.62864 45.9181 5.98502 46.389 5.98502C46.8598 5.98502 47.2519 5.62864 47.2519 5.14805C47.2535 4.66423 46.8599 4.28516 46.389 4.28516Z" fill="#232323"/>
<path d="M55.5737 0H0.853174C0.382316 0 0 0.404989 0 0.862893V55.5834C0 56.0672 0.382302 56.4463 0.853174 56.4463H55.5737C56.0575 56.4463 56.4365 56.0672 56.4365 55.5834V0.862893C56.4365 0.404989 56.0559 0 55.5737 0ZM1.70332 1.72573H54.7235V8.57972H1.70332V1.72573ZM54.7235 54.7459H1.70332V10.2784H54.7235V54.7459Z" fill="#232323"/>
<path d="M6.98606 35.6093H8.68594C8.81338 36.2432 8.99049 36.8772 9.19568 37.5122L7.72154 38.3524C6.88457 38.833 6.60378 39.899 7.08761 40.7376L8.43432 43.0714C8.66003 43.4764 9.04234 43.7809 9.50024 43.8841C9.94519 44.0083 10.4128 43.9597 10.821 43.7048L12.3049 42.8678C12.7368 43.3484 13.1937 43.8322 13.6872 44.2626L12.8373 45.7336C12.3535 46.5738 12.6472 47.638 13.4842 48.1187L15.805 49.4654C16.6452 49.946 17.7225 49.6684 18.2031 48.8315L19.0531 47.3573C19.6773 47.562 20.3112 47.7396 20.9447 47.8671V49.5669C20.9447 50.5314 21.7314 51.3187 22.6964 51.3187H25.3996C26.364 51.3187 27.1513 50.5319 27.1513 49.5669V47.8671C27.7852 47.7396 28.4192 47.5625 29.0412 47.3573L29.8912 48.8315C30.375 49.6684 31.4539 49.946 32.2893 49.4654L34.6263 48.1187C35.0313 47.8897 35.3099 47.5107 35.4373 47.0528C35.5648 46.5948 35.4892 46.1402 35.2597 45.732L34.4098 44.261C34.4227 44.2351 34.4341 44.2351 34.447 44.2092C35.7176 44.6671 37.061 44.8944 38.4709 44.8944C42.0753 44.8944 45.2995 43.3463 47.5701 40.9093C47.596 40.8834 47.622 40.8575 47.6457 40.8337C47.6457 40.8078 47.6457 40.8078 47.6587 40.8078C49.6523 38.5983 50.871 35.679 50.871 32.5089C50.871 29.309 49.6517 26.3903 47.6587 24.2082C47.6457 24.1823 47.6457 24.158 47.6457 24.158C47.6214 24.1321 47.5831 24.1062 47.5572 24.0808C45.2848 21.6455 42.0623 20.0958 38.4709 20.0958C37.0632 20.0958 35.7181 20.3506 34.4471 20.781L34.4098 20.7551L35.2597 19.2841C35.4887 18.8759 35.5643 18.3953 35.4374 17.9374C35.3099 17.5054 35.0324 17.1263 34.6263 16.8715L32.2893 15.5248C31.4523 15.0442 30.3735 15.3217 29.8912 16.1587L29.0413 17.6588C28.4203 17.4299 27.7864 17.2506 27.1513 17.1264V15.4508C27.1513 14.4605 26.3646 13.6738 25.3996 13.6738H22.6964C21.732 13.6738 20.9447 14.4606 20.9447 15.4508V17.1264C20.3108 17.2506 19.6768 17.4309 19.0531 17.6588L18.2032 16.1587C17.7226 15.3217 16.6437 15.0442 15.8051 15.5248L13.4842 16.8715C12.6472 17.3521 12.3535 18.4439 12.8373 19.2841L13.6872 20.7551C13.1937 21.187 12.7358 21.6439 12.3049 22.1244L10.8211 21.2875C10.4258 21.0585 9.94523 20.9829 9.50028 21.1098C9.04237 21.2372 8.66007 21.5148 8.43436 21.9209L7.08764 24.2579C6.60382 25.0948 6.8846 26.1608 7.72157 26.643L9.19572 27.5059C8.99106 28.1139 8.81341 28.7478 8.68597 29.3828H6.98609C6.02168 29.3828 5.23438 30.1955 5.23438 31.1599V33.8501C5.23438 34.822 6.02163 35.6093 6.98606 35.6093ZM37.6204 21.8527V31.6484H34.6753C34.4593 28.8826 33.1785 26.4215 31.2497 24.6443C32.9631 23.0719 35.1727 22.0556 37.6204 21.8527ZM49.1194 31.6484H43.9783C44.1942 29.4162 45.2105 27.4118 46.8602 25.8895C48.1291 27.5133 48.9406 29.4907 49.1194 31.6484ZM46.8617 39.112C45.212 37.6119 44.1958 35.5816 43.9798 33.3498H49.1209C48.9405 35.5335 48.1291 37.512 46.8617 39.112ZM39.3203 33.3515H42.2782C42.4813 36.0675 43.686 38.5283 45.691 40.3556C43.9911 41.9312 41.7717 42.9443 39.3208 43.1473L39.3203 33.3515ZM42.2782 31.6484H39.3203V21.8527C41.7717 22.0557 43.9906 23.0719 45.6904 24.6443C43.6877 26.4711 42.4813 28.9582 42.2782 31.6484ZM32.9776 31.6484H27.8235C28.0028 29.4907 28.8139 27.5133 30.0844 25.8895C31.6822 27.36 32.7486 29.3902 32.9776 31.6484ZM26.0735 32.5146C26.0735 35.3818 27.0735 38.0219 28.7248 40.1266C27.3684 40.9636 25.7669 41.4733 24.0415 41.4733C19.1067 41.4733 15.0826 37.4365 15.0826 32.5144C15.0826 27.5634 19.1065 23.5524 24.0415 23.5524C25.7673 23.5524 27.3683 24.0362 28.7248 24.8732C27.0746 26.9807 26.0735 29.6176 26.0735 32.5146ZM27.823 33.3515H32.9771C32.7481 35.6367 31.6822 37.6654 30.0838 39.1137C28.8132 37.5121 28.0021 35.5337 27.823 33.3515ZM34.6775 33.3515H37.6226V43.1473C35.1743 42.9443 32.9653 41.9313 31.2524 40.3556C33.1792 38.5764 34.461 36.1157 34.6775 33.3515ZM6.9862 31.116H9.41181C9.82975 31.116 10.1845 30.8114 10.2488 30.3805C10.3989 29.3902 10.6667 28.3999 11.0469 27.4354C11.2002 27.0564 11.0372 26.5985 10.6678 26.3954L8.55972 25.1275L9.96751 22.7684L12.0626 23.9845C12.432 24.1875 12.8996 24.1119 13.1544 23.7814C13.8013 22.9704 14.5238 22.2592 15.3251 21.6237C15.6427 21.3462 15.7431 20.8883 15.5282 20.506L14.3348 18.3757L16.7199 17.029L17.9263 19.1371C18.1423 19.4935 18.5861 19.6436 18.9792 19.4935C19.9436 19.1112 20.934 18.8596 21.9372 18.7068C22.3551 18.6312 22.6597 18.2748 22.6597 17.8698L22.6986 15.4053L25.4401 15.4572V17.8698C25.4401 18.2748 25.7446 18.6311 26.1626 18.7068C27.1658 18.8601 28.1529 19.1117 29.1205 19.4935C29.5125 19.6436 29.9575 19.4935 30.1605 19.1371L31.4284 17.0069L33.7784 18.4292L32.5721 20.5081C32.3804 20.8645 32.4446 21.2695 32.7092 21.5244C31.6692 22.0822 30.7318 22.7696 29.8916 23.5806C28.2047 22.4888 26.1986 21.8289 24.0404 21.8289C18.167 21.8289 13.3687 26.6267 13.3687 32.5167C13.3687 38.3776 18.1665 43.1754 24.0404 43.1754C26.1981 43.1754 28.2047 42.5414 29.8916 41.4236C30.7318 42.2363 31.6686 42.9205 32.7092 43.4799C32.4446 43.7348 32.3788 44.1651 32.5721 44.4961L33.7654 46.6539L31.3803 47.9747L30.161 45.8926C29.958 45.5135 29.5141 45.3601 29.121 45.5135C28.1534 45.8926 27.1663 46.1474 26.1631 46.2992C25.7451 46.3764 25.4406 46.7312 25.4406 47.1621L25.4017 49.6007L22.6602 49.5747V47.1562C22.6602 46.7242 22.3557 46.3705 21.9377 46.2933C20.9344 46.1432 19.9441 45.8883 18.9798 45.5076C18.8782 45.4817 18.7767 45.4558 18.6752 45.4558C18.3707 45.4558 18.0899 45.6091 17.9268 45.8878L16.6589 47.9959L14.3219 46.5979L15.5282 44.493C15.7442 44.1107 15.6427 43.656 15.3252 43.4011C14.5255 42.7413 13.8029 42.0317 13.1545 41.2434C12.8996 40.9129 12.432 40.8114 12.0626 41.0145L9.90493 42.2078L8.58413 39.8227L10.6662 38.6294C11.0356 38.4004 11.1987 37.9695 11.0453 37.5634C10.6662 36.599 10.3984 35.6087 10.2472 34.6183C10.183 34.2133 9.82927 33.9088 9.41024 33.9088L6.94578 33.857L6.9862 31.116Z" fill="#232323"/>
</svg>
