<svg width="53" height="53" viewBox="0 0 53 53" fill="none" xmlns="http://www.w3.org/2000/svg">
<path d="M41.3386 25.5554C41.677 25.5307 41.9326 25.2254 41.9079 24.8874C41.2479 16.7786 34.3436 10.4189 26.1853 10.4189C17.4992 10.4189 10.4375 17.4967 10.4375 26.1911C10.4375 29.4906 11.4439 32.6419 13.3496 35.3147C13.4734 35.4879 13.6629 35.5703 13.8528 35.5703C13.9766 35.5703 14.1004 35.5289 14.2075 35.4548C14.4881 35.257 14.5538 34.8692 14.3476 34.5886C12.5904 32.1303 11.6668 29.2266 11.6668 26.1911C11.6668 18.173 18.1753 11.6566 26.177 11.6566C33.6919 11.6566 40.0514 17.5134 40.662 24.9865C40.703 25.3333 41 25.5809 41.3384 25.5558L41.3386 25.5554Z" fill="#232323"/>
<path d="M51.8458 20.8949L47.3664 20.2595C46.8796 18.5354 46.2115 16.9104 45.362 15.4254L48.0758 11.804C48.2574 11.5563 48.2327 11.21 48.0181 10.9954L41.3858 4.36311C41.1712 4.14855 40.8249 4.12386 40.5773 4.30539L36.9558 7.01921C35.4626 6.16967 33.8375 5.5013 32.1217 5.02278L31.4787 0.536231C31.4373 0.2309 31.1734 0 30.8684 0H21.5056C21.2003 0 20.9363 0.222548 20.8953 0.536231L20.2599 5.02356C18.5358 5.51042 16.9108 6.17845 15.4258 7.01999L11.8044 4.30617C11.5567 4.12464 11.2104 4.14932 10.9958 4.36389L4.36351 10.9962C4.14895 11.2108 4.12426 11.5571 4.30579 11.8047L7.01961 15.4342C6.15335 16.9768 5.47701 18.6018 5.01521 20.2683L0.527881 20.9037C0.222549 20.945 0 21.209 0 21.5139V30.8848C0 31.1901 0.222549 31.454 0.527881 31.4951L5.01521 32.1304C5.48536 33.8048 6.16173 35.4218 7.01961 36.9562L4.30579 40.5856C4.12426 40.8332 4.14894 41.1796 4.36351 41.3941L9.75013 46.7808C9.98938 47.02 10.3855 47.02 10.6244 46.7808C10.8636 46.5415 10.8636 46.1454 10.6244 45.9065L5.6171 40.8993L8.25684 37.377C8.40532 37.1791 8.42166 36.9068 8.29823 36.6922C7.32486 35.0258 6.59084 33.2523 6.11232 31.421C6.04624 31.1818 5.84838 31.0002 5.60077 30.9672L1.23682 30.3485L1.23758 22.0415L5.60153 21.4229C5.84914 21.3898 6.047 21.2083 6.11308 20.9611C6.58323 19.1382 7.31735 17.3563 8.29899 15.6815C8.4228 15.4669 8.40609 15.1946 8.2576 14.9967L5.61786 11.4744L11.4914 5.60093L15.0137 8.24067C15.2115 8.38916 15.4838 8.40549 15.6984 8.27371C17.2904 7.32505 19.0723 6.59091 20.978 6.09616C21.2172 6.03008 21.3988 5.83222 21.4318 5.58461L22.0505 1.22902H30.3408L30.9594 5.58461C30.9925 5.83222 31.174 6.03844 31.4132 6.09616C33.3106 6.58302 35.0841 7.31715 36.6845 8.27371C36.899 8.40587 37.1713 8.38916 37.3692 8.24067L40.8915 5.60093L46.765 11.4744L44.1253 14.9967C43.9768 15.1946 43.9604 15.4669 44.0922 15.6815C45.0409 17.2818 45.775 19.0553 46.2781 20.9611C46.3442 21.2003 46.5421 21.3818 46.7897 21.4149L51.1453 22.0335V30.3322L46.7897 30.9508C46.5421 30.9839 46.3442 31.1654 46.2781 31.4047C45.7666 33.3184 45.0326 35.0919 44.0922 36.6759C43.9601 36.8905 43.9768 37.1628 44.1253 37.3606L46.765 40.8829L41.7498 45.8982C41.5105 46.1374 41.5105 46.5335 41.7498 46.7724C41.8736 46.8962 42.0304 46.9539 42.1869 46.9539C42.3437 46.9539 42.5002 46.8962 42.624 46.7724L48.019 41.3774C48.2335 41.1629 48.2582 40.8165 48.0767 40.5689L45.3629 36.9474C46.1961 35.4708 46.8724 33.8459 47.3593 32.1217L51.8387 31.4863C52.144 31.4449 52.3666 31.181 52.3666 30.876L52.365 21.5052C52.3734 21.2002 52.1505 20.9363 51.8455 20.8949H51.8458Z" fill="#232323"/>
<path d="M14.939 40.75C14.6006 40.75 14.3203 41.0306 14.3203 41.3686V44.0992C14.3203 44.4376 14.601 44.7178 14.939 44.7178H17.6695C18.0079 44.7178 18.2881 44.4372 18.2881 44.0992V41.3686C18.2881 41.0303 18.0075 40.75 17.6695 40.75H14.939ZM17.0509 43.4805H15.5577V41.9873H17.0509V43.4805Z" fill="#232323"/>
<path d="M22.2476 40.75C21.9092 40.75 21.6289 41.0306 21.6289 41.3686V44.0992C21.6289 44.4376 21.9096 44.7178 22.2476 44.7178H24.9781C25.3165 44.7178 25.5967 44.4372 25.5967 44.0992V41.3686C25.5967 41.0303 25.3161 40.75 24.9781 40.75H22.2476ZM24.3675 43.4805H22.8742V41.9873H24.3675V43.4805Z" fill="#232323"/>
<path d="M29.5601 40.75C29.2217 40.75 28.9414 41.0306 28.9414 41.3686V44.0992C28.9414 44.4376 29.2221 44.7178 29.5601 44.7178H32.2906C32.629 44.7178 32.9092 44.4372 32.9092 44.0992V41.3686C32.9092 41.0303 32.6286 40.75 32.2906 40.75H29.5601ZM31.672 43.4805H30.1788V41.9873H31.672V43.4805Z" fill="#232323"/>
<path d="M29.8954 25.6048C30.0522 25.6048 30.2087 25.5471 30.3325 25.4233C30.5718 25.184 30.5718 24.7879 30.3325 24.5491C28.4105 22.627 25.8532 21.5713 23.131 21.5713C20.4088 21.5713 17.8514 22.627 15.9294 24.5491C15.6902 24.7883 15.6902 25.1844 15.9294 25.4233C16.1687 25.6625 16.5648 25.6625 16.8037 25.4233C20.293 21.9339 25.9683 21.9339 29.4492 25.4233C29.573 25.5387 29.7298 25.6048 29.895 25.6048H29.8954Z" fill="#232323"/>
<path d="M27.9559 27.5363C28.1127 27.5363 28.2692 27.4785 28.393 27.3547C28.6323 27.1155 28.6323 26.7194 28.393 26.4805C25.4893 23.5768 20.7627 23.5768 17.8591 26.4805C17.6199 26.7198 17.6199 27.1159 17.8591 27.3547C18.0984 27.594 18.4945 27.594 18.7334 27.3547C21.1585 24.9296 25.0934 24.9296 27.5185 27.3547C27.6427 27.4785 27.7992 27.5363 27.956 27.5363H27.9559Z" fill="#232323"/>
<path d="M26.0244 29.4654C26.1812 29.4654 26.3377 29.4077 26.4615 29.2839C26.7008 29.0446 26.7008 28.6485 26.4615 28.4097C25.5706 27.5187 24.391 27.0322 23.1291 27.0322C21.8671 27.0322 20.6876 27.5191 19.7966 28.4097C19.5574 28.6489 19.5574 29.045 19.7966 29.2839C20.0359 29.5231 20.432 29.5231 20.6709 29.2839C21.3225 28.6322 22.1967 28.2691 23.1291 28.2691C24.061 28.2691 24.9356 28.6322 25.5873 29.2839C25.7111 29.4077 25.8679 29.4654 26.0244 29.4654Z" fill="#232323"/>
<path d="M21.1406 31.742C21.1406 32.8391 22.0316 33.73 23.1287 33.73C24.2258 33.73 25.1168 32.8391 25.1168 31.742C25.1168 30.6448 24.2258 29.7539 23.1287 29.7539C22.0316 29.7623 21.1406 30.6532 21.1406 31.742ZM23.8712 31.742C23.8712 32.1544 23.5328 32.4928 23.1204 32.4928C22.7079 32.4928 22.3696 32.1544 22.3696 31.742C22.3696 31.3295 22.7079 30.9912 23.1204 30.9912C23.5411 30.9995 23.8712 31.3295 23.8712 31.742Z" fill="#232323"/>
<path d="M38.1767 23.5848C38.1767 23.9232 38.4573 24.2034 38.7953 24.2034C39.1337 24.2034 39.414 23.9228 39.414 23.5848C39.414 21.7288 37.9044 20.2109 36.0401 20.2109H31.5444C31.2061 20.2109 30.9258 20.4916 30.9258 20.8296C30.9258 21.168 31.2064 21.4482 31.5444 21.4482H36.0485C37.2197 21.4566 38.1767 22.4135 38.1767 23.5848Z" fill="#232323"/>
<path d="M36.238 24.9948C36.3535 25.1927 36.5597 25.3001 36.7743 25.3001C36.8813 25.3001 36.9888 25.2754 37.0876 25.2177C37.3845 25.0446 37.4837 24.6652 37.3101 24.3762C36.7078 23.3368 35.586 22.6934 34.3901 22.6934H31.5444C31.2061 22.6934 30.9258 22.974 30.9258 23.312C30.9258 23.6504 31.2064 23.9307 31.5444 23.9307H34.3987C35.1492 23.9307 35.8587 24.3352 36.238 24.9948Z" fill="#232323"/>
<path d="M41.3701 51.1442H40.3391V27.4116C40.3391 27.0732 40.0584 26.793 39.7204 26.793H34.5814C34.243 26.793 33.9628 27.0736 33.9628 27.4116V51.1355H28.2708V46.8296C28.2708 46.4913 27.9901 46.211 27.6521 46.211H19.5927C19.2543 46.211 18.9741 46.4916 18.9741 46.8296V51.1355H13.2821V38.7038L19.3451 35.6516V38.3244C19.3451 38.5389 19.4522 38.7368 19.6421 38.8523C19.8236 38.9677 20.0545 38.9761 20.2444 38.8769L26.6621 35.6515V38.3243C26.6621 38.5389 26.7692 38.7368 26.9591 38.8522C27.1406 38.9677 27.3715 38.976 27.5614 38.8769L32.3955 36.4434C32.7008 36.2865 32.8247 35.9155 32.6678 35.6102C32.511 35.3048 32.1399 35.181 31.8346 35.3379L27.8914 37.3176V34.6448C27.8914 34.4302 27.7843 34.2323 27.5944 34.1169C27.4129 34.0014 27.182 33.9931 26.9921 34.0922L20.5744 37.3176V34.6448C20.5744 34.4302 20.4673 34.2324 20.2774 34.1169C20.0875 34.0015 19.865 33.9931 19.6751 34.0922L12.3748 37.7715C12.1686 37.8786 12.0364 38.0931 12.0364 38.324V51.1436L11.0054 51.144C10.667 51.144 10.3867 51.4246 10.3867 51.7626C10.3867 52.101 10.6674 52.3813 11.0054 52.3813H41.3704C41.7087 52.3813 41.989 52.1006 41.989 51.7626C41.989 51.4242 41.7084 51.144 41.3704 51.144L41.3701 51.1442ZM35.1996 28.0299H39.1013V29.5642H35.1996V28.0299ZM20.211 47.4479H22.9993V51.1351H20.211V47.4479ZM24.2366 51.1434V47.4562H27.0249V51.1434H24.2366ZM35.1992 51.1434V30.8009H39.101V51.1347H35.1992V51.1434Z" fill="#232323"/>
</svg>
