<svg width="65" height="65" viewBox="0 0 65 65" fill="none" xmlns="http://www.w3.org/2000/svg">
<path d="M35.1265 36.533C35.1265 26.8574 27.2394 18.9697 17.5632 18.9697C7.88703 18.9697 0 26.8568 0 36.533C0 49.0525 16.3312 63.7716 17.0349 64.387C17.1814 64.5335 17.3868 64.5923 17.5623 64.5923C17.7676 64.5923 17.9436 64.5335 18.0902 64.387C18.794 63.7713 35.125 49.0527 35.125 36.533H35.1265ZM17.5632 62.6863C14.7194 60.0184 1.61365 47.0886 1.61365 36.533C1.61365 27.7367 8.76785 20.5834 17.5632 20.5834C26.3595 20.5834 33.5141 27.7371 33.5141 36.533C33.5141 47.0879 20.4076 60.0185 17.5632 62.6863Z" fill="#232323"/>
<path d="M49.9343 36.9728C50.3739 36.9728 50.7553 36.6209 50.7553 36.1518V32.78C50.7553 32.3403 50.4034 31.959 49.9343 31.959C49.4941 31.959 49.1133 32.3109 49.1133 32.78V36.1518C49.1133 36.6209 49.4941 36.9728 49.9343 36.9728Z" fill="#232323"/>
<path d="M49.1108 40.344H48.2898C47.8501 40.344 47.4688 40.6959 47.4688 41.165C47.4688 41.6046 47.8207 41.986 48.2898 41.986H49.9024C50.1072 41.986 50.3126 41.8977 50.4592 41.7512C50.6057 41.6046 50.694 41.3997 50.694 41.1944V39.5817C50.694 39.1421 50.342 38.7607 49.873 38.7607C49.4333 38.7607 49.052 39.1127 49.052 39.5817V40.3439L49.1108 40.344Z" fill="#232323"/>
<path d="M45.4778 50.2547C45.4778 49.8145 45.1258 49.4337 44.6568 49.4337H43.8358C43.1618 49.4337 42.4873 49.2577 41.93 48.9058C41.5492 48.671 41.0507 48.7886 40.8159 49.1989C40.5816 49.5802 40.7282 50.0787 41.109 50.313C41.93 50.8114 42.8682 51.0757 43.8651 51.0757H44.6567C45.1258 51.0462 45.4778 50.6943 45.4778 50.2547Z" fill="#232323"/>
<path d="M39.9934 43.188C39.5831 43.0126 39.1141 43.2175 38.9381 43.6282C38.645 44.3027 38.5273 45.006 38.5273 45.7099C38.5273 46.2961 38.6156 46.8534 38.7915 47.3813C38.9087 47.7327 39.2312 47.9381 39.5537 47.9381C39.642 47.9381 39.7297 47.9381 39.8174 47.9087C40.2282 47.7621 40.4625 47.3225 40.3453 46.8828C40.2282 46.5015 40.1693 46.1201 40.1693 45.7099C40.1693 45.2114 40.2576 44.7129 40.4625 44.2438C40.5801 43.8331 40.4041 43.364 39.9934 43.188Z" fill="#232323"/>
<path d="M42.3099 62.9795H39.0554C38.6157 62.9795 38.2344 63.3314 38.2344 63.8005C38.2344 64.2402 38.5863 64.6215 39.0554 64.6215H42.3099C42.7496 64.6215 43.1309 64.2696 43.1309 63.8005C43.1015 63.3314 42.7496 62.9795 42.3099 62.9795Z" fill="#232323"/>
<path d="M41.8689 42.4265C41.986 42.4265 42.1032 42.3971 42.2208 42.3388C42.7188 42.0746 43.2761 41.9574 43.8624 41.9574H45.0647C45.5044 41.9574 45.8857 41.6055 45.8857 41.1364C45.8857 40.6968 45.5338 40.3154 45.0647 40.3154H43.8624C43.0414 40.3154 42.2498 40.4914 41.5171 40.8727C41.1063 41.0781 40.9598 41.5472 41.1357 41.9574C41.2823 42.2506 41.5753 42.4265 41.8689 42.4265Z" fill="#232323"/>
<path d="M29.2631 62.9795H26.0085C25.5688 62.9795 25.1875 63.3314 25.1875 63.8005C25.1875 64.2402 25.5394 64.6215 26.0085 64.6215H29.2631C29.7027 64.6215 30.0841 64.2696 30.0841 63.8005C30.0547 63.3314 29.7027 62.9795 29.2631 62.9795Z" fill="#232323"/>
<path d="M35.7704 62.9795H32.5163C32.0762 62.9795 31.6953 63.3314 31.6953 63.8005C31.6953 64.2402 32.0472 64.6215 32.5163 64.6215H35.7704C36.2105 64.6215 36.5914 64.2696 36.5914 63.8005C36.5914 63.3314 36.2105 62.9795 35.7704 62.9795Z" fill="#232323"/>
<path d="M54.5376 61.6887C53.7754 62.2749 52.8957 62.6857 51.9575 62.8906C51.5178 62.9788 51.2247 63.389 51.3124 63.8287C51.4006 64.2101 51.7232 64.4738 52.104 64.4738H52.2506C53.4529 64.2395 54.5671 63.7116 55.5346 62.9494C55.8865 62.6563 55.9449 62.1578 55.6517 61.8059C55.388 61.454 54.8601 61.3956 54.5376 61.6887Z" fill="#232323"/>
<path d="M57.0006 54.1831C57.3815 53.9488 57.4991 53.4503 57.2643 53.069C56.6193 52.0431 55.7395 51.1632 54.6842 50.5183C54.3028 50.2835 53.8048 50.4012 53.5701 50.782C53.3353 51.1633 53.4529 51.6618 53.8337 51.8961C54.6547 52.3946 55.3586 53.0984 55.8571 53.89C56.0037 54.1248 56.2674 54.2713 56.5605 54.2713C56.7364 54.3007 56.8835 54.2713 57.0006 54.1831Z" fill="#232323"/>
<path d="M48.8485 62.9795H45.5944C45.1543 62.9795 44.7734 63.3314 44.7734 63.8005C44.7734 64.2402 45.1249 64.6215 45.5944 64.6215H48.8485C49.2887 64.6215 49.6695 64.2696 49.6695 63.8005C49.6401 63.3314 49.2887 62.9795 48.8485 62.9795Z" fill="#232323"/>
<path d="M57.5281 55.7664C57.0879 55.7958 56.736 56.1772 56.7654 56.6168V56.9982C56.7654 57.8486 56.5895 58.6401 56.2669 59.4024C56.0915 59.8127 56.2669 60.2817 56.6777 60.4577C56.7949 60.5165 56.8831 60.5165 57.0002 60.5165C57.3228 60.5165 57.6159 60.3406 57.733 60.0474C58.1732 59.0799 58.378 58.0536 58.378 56.9983V56.4998C58.3486 56.0601 57.9678 55.737 57.5281 55.7664Z" fill="#232323"/>
<path d="M52.0138 50.3128C52.0432 49.8731 51.6913 49.4918 51.2511 49.4629H50.8115H47.9382C47.4985 49.4629 47.1172 49.8143 47.1172 50.2834C47.1172 50.753 47.4691 51.1044 47.9382 51.1044H50.8115H51.1634H51.2222C51.6325 51.075 51.9844 50.7236 52.0138 50.3128Z" fill="#232323"/>
<path d="M22.668 62.9795H21.0554C20.6157 62.9795 20.2344 63.3314 20.2344 63.8005C20.2344 64.2402 20.5863 64.6215 21.0554 64.6215H22.668C23.1077 64.6215 23.489 64.2696 23.489 63.8005C23.4596 63.3314 23.1077 62.9795 22.668 62.9795Z" fill="#232323"/>
<path d="M63.4497 0H36.446C36.0063 0 35.625 0.351927 35.625 0.821002V27.8545C35.625 28.2942 35.9769 28.6755 36.446 28.6755H49.1414V29.496C49.1414 29.9362 49.4933 30.317 49.9624 30.317C50.4026 30.317 50.7834 29.9656 50.7834 29.496V28.6755H63.4793C63.919 28.6755 64.3003 28.3236 64.3003 27.8545V0.821002C64.2709 0.351927 63.8896 0 63.4499 0H63.4497ZM51.194 1.61313V4.83784L48.6721 6.04019V1.61309L51.194 1.61313ZM62.6582 27.033H37.237V1.61313H47.0591V7.30077C47.0591 7.56498 47.2062 7.82866 47.4405 7.97522C47.5576 8.06345 47.7336 8.09236 47.8801 8.09236C47.9978 8.09236 48.1149 8.06345 48.232 8.00463L52.366 6.04008C52.6596 5.89352 52.8356 5.62932 52.8356 5.30731V1.55424H62.6577L62.6582 27.033Z" fill="#232323"/>
<path d="M44.0113 21.0518H40.0827C39.6426 21.0518 39.2617 21.4037 39.2617 21.8728C39.2617 22.3124 39.6136 22.6938 40.0827 22.6938H44.0113C44.4515 22.6938 44.8323 22.3418 44.8323 21.8728C44.8323 21.4037 44.4515 21.0518 44.0113 21.0518Z" fill="#232323"/>
<path d="M40.0827 19.6449H42.6923C43.132 19.6449 43.5134 19.293 43.5134 18.8239C43.5134 18.3843 43.1614 18.0029 42.6923 18.0029H40.0827C39.6426 18.0029 39.2617 18.3549 39.2617 18.8239C39.2617 19.293 39.6426 19.6449 40.0827 19.6449Z" fill="#232323"/>
<path d="M44.0113 15.0127H40.0827C39.6426 15.0127 39.2617 15.3646 39.2617 15.8337C39.2617 16.2739 39.6136 16.6547 40.0827 16.6547H44.0113C44.4515 16.6547 44.8323 16.3028 44.8323 15.8337C44.8323 15.394 44.4515 15.0127 44.0113 15.0127Z" fill="#232323"/>
<path d="M40.0827 13.6342H42.6923C43.132 13.6342 43.5134 13.2823 43.5134 12.8132C43.5134 12.3735 43.1614 11.9922 42.6923 11.9922H40.0827C39.6426 11.9922 39.2617 12.3441 39.2617 12.8132C39.2617 13.2528 39.6426 13.6342 40.0827 13.6342Z" fill="#232323"/>
<path d="M40.0827 10.6147H42.6923C43.132 10.6147 43.5134 10.2627 43.5134 9.79366C43.5134 9.35349 43.1614 8.97266 42.6923 8.97266H40.0827C39.6426 8.97266 39.2617 9.32458 39.2617 9.79366C39.2617 10.2333 39.6426 10.6147 40.0827 10.6147Z" fill="#232323"/>
<path d="M44.0113 5.98145H40.0827C39.6426 5.98145 39.2617 6.33337 39.2617 6.80245C39.2617 7.24211 39.6136 7.62345 40.0827 7.62345H44.0113C44.4515 7.62345 44.8323 7.27152 44.8323 6.80245C44.8323 6.33337 44.4515 5.98145 44.0113 5.98145Z" fill="#232323"/>
<path d="M17.5621 24.0723C10.6721 24.0723 5.10156 29.6723 5.10156 36.5333C5.10156 43.394 10.7016 48.9939 17.5621 48.9939C24.4233 48.9939 30.0232 43.3939 30.0232 36.5333C30.0232 29.6721 24.4527 24.0723 17.5621 24.0723ZM17.5621 47.3813C11.5808 47.3813 6.71418 42.5141 6.71418 36.5328C6.71418 30.5515 11.5808 25.6844 17.5621 25.6844C23.5434 25.6844 28.4106 30.5515 28.4106 36.5328C28.4106 42.5141 23.5434 47.3813 17.5621 47.3813Z" fill="#232323"/>
<path d="M24.8629 32.3691L17.9729 28.1763C17.7087 28.0298 17.3862 28.0298 17.1225 28.1763L10.2324 32.3691C9.8511 32.6034 9.73397 33.1019 9.96824 33.4832C10.1442 33.7763 10.4667 33.9229 10.7892 33.864V42.6015C10.7892 43.0412 11.1412 43.4225 11.6102 43.4225H23.514C23.9542 43.4225 24.335 43.0706 24.335 42.6015V33.8352C24.3644 33.8352 24.4233 33.8641 24.4527 33.8641C24.7164 33.8641 24.9801 33.7176 25.1266 33.4833C25.3614 33.1019 25.2443 32.6034 24.8629 32.3691ZM22.6935 41.7805H12.4312V32.9259L17.562 29.7889L22.6934 32.9259L22.6935 41.7805Z" fill="#232323"/>
</svg>
