<svg width="41" height="46" viewBox="0 0 41 46" fill="none" xmlns="http://www.w3.org/2000/svg">
<path d="M3.71456 5.67236L9.97727 7.39437V16.1162C9.97727 16.2841 10.0728 16.4371 10.2238 16.5114C10.4365 16.6156 15.4615 19.0579 20.021 19.0579H20.0933H20.1621C21.2303 19.0579 22.4173 18.9136 23.688 18.6443C23.6699 18.8731 23.6589 19.0917 23.6589 19.2714V21.5395C23.6589 22.283 24.181 22.8884 24.8226 22.8884H26.0485C26.6906 22.8884 27.2126 22.2834 27.2126 21.5395V19.2714C27.2126 18.8413 27.1517 18.1954 27.0699 17.6909C28.7661 17.0968 29.9141 16.5361 29.9648 16.5118C30.1158 16.4379 30.2113 16.2841 30.2113 16.1163L30.2109 7.39479L36.472 5.67278C37.0378 5.51708 37.1569 5.22458 37.1569 5.00755C37.1569 4.79051 37.0374 4.4984 36.4716 4.34271L21.0863 0.111906C20.5465 -0.0374982 19.6415 -0.0371056 19.1016 0.111906L3.71535 4.34271C3.14999 4.4984 3.03125 4.79012 3.03125 5.00755C3.03164 5.22457 3.14842 5.5163 3.71418 5.67239L3.71456 5.67236ZM20.1617 18.178H20.0925C20.0701 18.1777 20.0457 18.178 20.0217 18.178C16.2199 18.178 11.9194 16.3235 10.8575 15.8371L10.8571 7.63774L19.1001 9.90466C19.3702 9.97897 19.7225 10.0206 20.0924 10.0206C20.4624 10.0206 20.8151 9.97975 21.084 9.90545L24.9924 8.83051V12.1154C24.3453 12.3073 23.8684 12.9009 23.8684 13.6103C23.8684 14.0797 24.0803 14.4968 24.409 14.7838L23.855 17.3865C23.8338 17.4868 23.8137 17.6024 23.7941 17.7231C22.4718 18.0207 21.2491 18.178 20.1616 18.178L20.1617 18.178ZM25.4332 14.2936C25.0562 14.2936 24.7495 13.9865 24.7495 13.6099C24.7495 13.232 25.0562 12.9246 25.4332 12.9246C25.8106 12.9246 26.1181 13.232 26.1181 13.6099C26.1181 13.9865 25.8106 14.2936 25.4332 14.2936ZM26.3304 21.5407C26.3304 21.8042 26.1779 22.009 26.0469 22.009H24.821C24.6901 22.009 24.5379 21.8046 24.5379 21.5407V19.2726C24.5379 18.8075 24.6197 18.0271 24.7168 17.569L25.2307 15.1542C25.2975 15.1629 25.3636 15.1747 25.4328 15.1747C25.5024 15.1747 25.5692 15.1629 25.636 15.1538L26.1499 17.5686C26.2478 18.0274 26.3296 18.8078 26.3296 19.2726V21.5408L26.3304 21.5407ZM29.3291 15.8371C28.9217 16.0243 28.0352 16.4135 26.8922 16.8193L26.459 14.7819C26.7869 14.4953 26.9992 14.0782 26.9992 13.6091C26.9992 12.8999 26.5223 12.3062 25.8739 12.1143V8.58684L29.3294 7.63657V15.8372L29.3291 15.8371ZM19.3341 0.960149C19.7197 0.853994 20.4637 0.853209 20.85 0.960149L35.568 5.00696L25.5342 7.76697L21.9426 4.89021C21.9807 4.7758 22.0079 4.65785 22.0079 4.53321C22.0079 3.7347 21.1669 3.10993 20.0924 3.10993C19.0187 3.10993 18.1773 3.73505 18.1773 4.53321C18.1773 5.33094 19.0183 5.95569 20.0924 5.95569C20.6015 5.95569 21.0545 5.81219 21.3942 5.57983L24.4852 8.0556L20.8501 9.05581C20.4644 9.16275 19.7201 9.16196 19.3344 9.05581L4.61644 5.00819L19.3341 0.960149ZM20.0925 5.07581C19.5102 5.07581 19.0581 4.78448 19.0581 4.53403C19.0581 4.27769 19.5008 3.99147 20.0925 3.99147C20.6846 3.99147 21.1273 4.27809 21.1273 4.53403C21.1273 4.78448 20.6751 5.07581 20.0925 5.07581Z" fill="white"/>
<path d="M34.8264 23.5098H3.8505C3.60713 23.5098 3.41016 23.7067 3.41016 23.9501V25.9938C3.41016 26.2372 3.60713 26.4341 3.8505 26.4341H4.95724C5.40583 26.9201 6.88528 28.8442 4.9309 31.2952H3.85093C3.60756 31.2952 3.41059 31.4922 3.41059 31.7355V33.7799C3.41059 34.0233 3.60756 34.2203 3.85093 34.2203H34.8278C37.7809 34.2203 40.1827 31.8177 40.1827 28.865C40.1819 25.912 37.7801 23.5098 34.827 23.5098H34.8264ZM6.04868 26.4341H34.8264C36.1662 26.4341 37.2566 27.5244 37.2566 28.8646C37.2566 30.2049 36.1663 31.2951 34.8264 31.2951L6.01345 31.2955C7.36749 29.1881 6.67003 27.398 6.04805 26.434L6.04868 26.4341ZM34.8264 33.3392H4.29034V32.1755H34.8264C36.6523 32.1755 38.1372 30.6901 38.1372 28.8643C38.1372 27.038 36.6519 25.5532 34.8264 25.5532L4.29034 25.5528V24.3898H34.8264C37.2935 24.3898 39.3005 26.3968 39.3005 28.8635C39.3001 31.3321 37.2927 33.3393 34.826 33.3393L34.8264 33.3392Z" fill="white"/>
<path d="M9.83097 28.3553H19.1206C19.364 28.3553 19.561 28.1583 19.561 27.915C19.561 27.6716 19.364 27.4746 19.1206 27.4746H9.83097C9.5876 27.4746 9.39062 27.6716 9.39062 27.915C9.39062 28.1583 9.5876 28.3553 9.83097 28.3553Z" fill="white"/>
<path d="M14.7422 29.8124C14.7422 30.0558 14.9392 30.2528 15.1825 30.2528H28.0345C28.2778 30.2528 28.4748 30.0558 28.4748 29.8124C28.4748 29.569 28.2778 29.3721 28.0345 29.3721H15.1825C14.9392 29.3721 14.7422 29.5694 14.7422 29.8124Z" fill="white"/>
<path d="M36.3311 35.21H5.35526C2.4022 35.21 0 37.6122 0 40.5644C0 43.5175 2.4026 45.9197 5.35526 45.9197H36.3311C36.5745 45.9197 36.7715 45.7227 36.7715 45.4793V43.435C36.7715 43.1916 36.5745 42.9946 36.3311 42.9946H35.2252C34.7766 42.5087 33.2976 40.5846 35.2515 38.1335H36.3312C36.5746 38.1335 36.7715 37.9366 36.7715 37.6932V35.6495C36.7715 35.4069 36.5749 35.21 36.3311 35.21ZM34.1333 42.995H5.35566C4.01541 42.995 2.92518 41.9048 2.92518 40.5645C2.92518 39.2243 4.01541 38.1341 5.35566 38.1341H34.1686C32.8145 40.241 33.512 42.0311 34.134 42.9951L34.1333 42.995ZM35.8908 37.2537H5.35576C3.52988 37.2537 2.04459 38.7391 2.04459 40.5648C2.04459 42.3911 3.52998 43.876 5.35576 43.876H35.8908V45.0397L5.35576 45.0401C2.88824 45.0401 0.881186 43.0326 0.881186 40.5655C0.881186 38.0984 2.88864 36.0918 5.35576 36.0918H35.8908V37.2537Z" fill="white"/>
<path d="M30.3507 41.0723H21.0614C20.8181 41.0723 20.6211 41.2692 20.6211 41.5126C20.6211 41.756 20.8181 41.9529 21.0614 41.9529H30.3503C30.5936 41.9529 30.7906 41.756 30.7906 41.5126C30.791 41.2688 30.594 41.0723 30.3507 41.0723Z" fill="white"/>
<path d="M25.4396 39.6161C25.4396 39.3728 25.2427 39.1758 24.9993 39.1758H12.1474C11.904 39.1758 11.707 39.3728 11.707 39.6161C11.707 39.8595 11.904 40.0565 12.1474 40.0565H24.9993C25.2427 40.0565 25.4396 39.8595 25.4396 39.6161Z" fill="white"/>
</svg>
