<svg width="48" height="47" viewBox="0 0 48 47" fill="none" xmlns="http://www.w3.org/2000/svg">
<path fill-rule="evenodd" clip-rule="evenodd" d="M23.6286 18.124C23.9862 18.124 24.2756 18.4139 24.2756 18.7715V22.655H38.1924C38.55 22.655 38.8395 22.9449 38.8395 23.3025V27.8334C38.8395 28.1911 38.55 28.4809 38.1924 28.4809C37.8348 28.4809 37.5449 28.1911 37.5449 27.8334V23.9499H9.06404V27.8334C9.06404 28.1911 8.77417 28.4809 8.41656 28.4809C8.05895 28.4809 7.76953 28.1911 7.76953 27.8334V23.3025C7.76953 22.9449 8.05895 22.655 8.41656 22.655H22.9807V18.7715C22.9807 18.4139 23.2705 18.124 23.6281 18.124H23.6286Z" fill="#232323"/>
<path fill-rule="evenodd" clip-rule="evenodd" d="M15.5367 1.29493H31.0717V9.7094H15.5367V1.29493ZM15.5367 11.0043V12.9459H31.0717V11.0043H15.5367ZM14.2422 1.29493C14.2422 0.579732 14.8215 0 15.5367 0H31.0717C31.7869 0 32.3662 0.579743 32.3662 1.29493V12.9462C32.3662 13.6614 31.7869 14.2411 31.0717 14.2411H23.9517V16.1827H26.5406C26.8983 16.1827 27.1881 16.4726 27.1881 16.8302C27.1881 17.1878 26.8983 17.4776 26.5406 17.4776H20.0677C19.7101 17.4776 19.4202 17.1878 19.4202 16.8302C19.4202 16.4726 19.7101 16.1827 20.0677 16.1827H22.6567V14.2411H15.5367C14.8215 14.2411 14.2422 13.6614 14.2422 12.9462V1.29493Z" fill="#232323"/>
<path fill-rule="evenodd" clip-rule="evenodd" d="M30.4238 30.4229H45.9589V38.8373H30.4238V30.4229ZM30.4238 40.1323V42.0738H45.9589V40.1323H30.4238ZM29.1289 30.4229C29.1289 29.7077 29.7087 29.1279 30.4238 29.1279H45.9589C46.6741 29.1279 47.2533 29.7077 47.2533 30.4229V42.0741C47.2533 42.7893 46.6741 43.3691 45.9589 43.3691H38.8384V45.3106H41.4278C41.7854 45.3106 42.0749 45.6005 42.0749 45.9581C42.0749 46.3157 41.7854 46.6056 41.4278 46.6056H34.9549C34.5973 46.6056 34.3074 46.3157 34.3074 45.9581C34.3074 45.6005 34.5973 45.3106 34.9549 45.3106H37.5438V43.3691H30.4238C29.7086 43.3691 29.1289 42.7893 29.1289 42.0741V30.4229Z" fill="#232323"/>
<path fill-rule="evenodd" clip-rule="evenodd" d="M1.29493 30.4229H16.83V38.8373H1.29493V30.4229ZM1.29493 40.1323V42.0738H16.83V40.1323H1.29493ZM0 30.4229C0 29.7077 0.579744 29.1279 1.29493 29.1279H16.83C17.5452 29.1279 18.1244 29.7077 18.1244 30.4229V42.0741C18.1244 42.7893 17.5452 43.3691 16.83 43.3691H9.70951V45.3106H12.2989C12.6565 45.3106 12.9459 45.6005 12.9459 45.9581C12.9459 46.3157 12.6565 46.6056 12.2989 46.6056H5.82599C5.46838 46.6056 5.17851 46.3157 5.17851 45.9581C5.17851 45.6005 5.46838 45.3106 5.82599 45.3106H8.41493V43.3691H1.29493C0.579732 43.3691 0 42.7893 0 42.0741V30.4229Z" fill="#232323"/>
</svg>
