<svg width="48" height="54" viewBox="0 0 48 54" fill="none" xmlns="http://www.w3.org/2000/svg">
<path d="M34.1137 0H12.9746C10.7751 0 8.99219 1.79007 8.99219 3.9824V49.571C8.99219 51.7705 10.7823 53.5534 12.9746 53.5534H34.1137C36.3133 53.5534 38.0961 51.7633 38.0961 49.571V3.9824C38.0961 1.78338 36.3128 0 34.1137 0ZM10.2057 8.65871H36.8814V44.8528H10.2057V8.65871ZM12.9738 1.20742H34.113C35.6393 1.20742 36.8812 2.44916 36.8812 3.97559V7.44448H10.2054V3.97559C10.2054 2.44928 11.4472 1.20742 12.9736 1.20742H12.9738ZM34.113 52.3388H12.9738C11.4475 52.3388 10.2057 51.0971 10.2057 49.5706V46.0741H36.8814V49.5706C36.8814 51.0969 35.6397 52.3388 34.1132 52.3388H34.113Z" fill="#232323"/>
<path d="M20.9199 4.98136H26.1717C26.5046 4.98136 26.7751 4.71084 26.7751 4.37789C26.7751 4.04494 26.5046 3.77441 26.1717 3.77441H20.9199C20.5869 3.77441 20.3164 4.04494 20.3164 4.37789C20.3164 4.70358 20.5869 4.98136 20.9199 4.98136Z" fill="#232323"/>
<path d="M46.9103 9.70614H45.835V8.63082C45.835 8.29787 45.5644 8.02734 45.2315 8.02734C44.8985 8.02734 44.628 8.29787 44.628 8.63082V9.70614H43.5527C43.2197 9.70614 42.9492 9.97666 42.9492 10.3096C42.9492 10.6426 43.2197 10.9131 43.5527 10.9131H44.628V11.9957C44.628 12.3286 44.8985 12.5991 45.2315 12.5991C45.5644 12.5991 45.835 12.3286 45.835 11.9957V10.9203H46.9103C47.2432 10.9203 47.5138 10.6498 47.5138 10.3169C47.5142 9.97714 47.2437 9.70614 46.9103 9.70614Z" fill="#232323"/>
<path d="M24.0811 48.5439H23.0058C22.6729 48.5439 22.4023 48.8145 22.4023 49.1474C22.4023 49.4804 22.6729 49.7509 23.0058 49.7509H24.0811C24.4141 49.7509 24.6846 49.4804 24.6846 49.1474C24.6919 48.8145 24.4209 48.5439 24.0811 48.5439Z" fill="#232323"/>
<path d="M41.0567 4.77441H41.0499C40.717 4.78119 40.4465 5.05171 40.4532 5.38515L40.4673 6.46047C40.4741 6.79342 40.7446 7.05716 41.0708 7.05716H41.0775C41.4105 7.05039 41.681 6.77986 41.6742 6.44643L41.6602 5.37111C41.6602 5.03768 41.3897 4.77441 41.0567 4.77441Z" fill="#232323"/>
<path d="M41.0567 38.0127H41.0499C40.717 38.0195 40.4465 38.29 40.4532 38.6234L40.4673 39.6987C40.4741 40.0317 40.7446 40.2954 41.0708 40.2954H41.0775C41.4105 40.2887 41.681 40.0181 41.6742 39.6847L41.6602 38.6094C41.6602 38.2832 41.3897 38.0127 41.0567 38.0127Z" fill="#232323"/>
<path d="M43.3692 16.4277H43.3624C43.0295 16.4345 42.759 16.705 42.7657 17.0385L42.7798 18.1138C42.7866 18.4467 43.0571 18.7105 43.3833 18.7105H43.39C43.723 18.7037 43.9935 18.4332 43.9867 18.0997L43.9727 17.0244C43.9659 16.6983 43.6954 16.4277 43.3692 16.4277Z" fill="#232323"/>
<path d="M6.01088 42.2306C5.67793 42.2374 5.40741 42.5079 5.41419 42.8413L5.42822 43.9167C5.435 44.2496 5.70552 44.5134 6.0317 44.5134H6.03847C6.37142 44.5066 6.64195 44.2361 6.63517 43.9026L6.62113 42.8273C6.62113 42.4939 6.34383 42.2234 6.01088 42.2306Z" fill="#232323"/>
<path d="M6.01088 13.4318C5.67793 13.4385 5.40741 13.7091 5.41419 14.0425L5.42822 15.1178C5.435 15.4508 5.70552 15.7145 6.0317 15.7145H6.03847C6.37142 15.7077 6.64195 15.4372 6.63517 15.1038L6.62113 14.0285C6.62113 13.6955 6.34383 13.425 6.01088 13.4318Z" fill="#232323"/>
<path d="M1.0851 29.7355C0.752153 29.7423 0.481629 30.0128 0.488406 30.3462L0.50244 31.4215C0.509215 31.7545 0.779741 32.0182 1.10592 32.0182H1.11269C1.44564 32.0114 1.71616 31.7409 1.70939 31.4075L1.69535 30.3322C1.69584 29.9992 1.41806 29.7287 1.0851 29.7355Z" fill="#232323"/>
<path d="M6.02499 38.3855C6.35794 38.3855 6.62846 38.115 6.62846 37.782C6.62846 37.4491 6.35794 37.1785 6.02499 37.1785H5.24778V36.4013C5.24778 36.0684 4.97726 35.7979 4.64431 35.7979C4.31136 35.7979 4.04083 36.0684 4.04083 36.4013V37.1785H3.26363C2.93068 37.1785 2.66016 37.4491 2.66016 37.782C2.66016 38.115 2.93068 38.3855 3.26363 38.3855H4.04083V39.1627C4.04083 39.4956 4.31136 39.7662 4.64431 39.7662C4.97726 39.7662 5.24778 39.4956 5.24778 39.1627V38.3855H6.02499Z" fill="#232323"/>
<path d="M14.1386 21.2148C13.8057 21.2148 13.5352 21.4854 13.5352 21.8183V25.204C13.5352 25.5369 13.8057 25.8074 14.1386 25.8074C14.4716 25.8074 14.7421 25.5369 14.7421 25.204V21.8183C14.7421 21.4921 14.4716 21.2148 14.1386 21.2148Z" fill="#232323"/>
<path d="M16.7872 25.8158C17.1202 25.8158 17.3907 25.5453 17.3907 25.2124V19.0586C17.3907 18.7256 17.1202 18.4551 16.7872 18.4551C16.4543 18.4551 16.1837 18.7256 16.1837 19.0586V25.2124C16.1765 25.5453 16.447 25.8158 16.7872 25.8158Z" fill="#232323"/>
<path d="M19.4277 14.2988C19.0947 14.2988 18.8242 14.5694 18.8242 14.9023V25.2049C18.8242 25.5378 19.0947 25.8084 19.4277 25.8084C19.7606 25.8084 20.0312 25.5378 20.0312 25.2049V14.9091C20.0379 14.5694 19.7674 14.2988 19.4277 14.2988Z" fill="#232323"/>
<path d="M22.08 25.815C22.413 25.815 22.6835 25.5444 22.6835 25.2115V16.289C22.6835 15.9561 22.413 15.6855 22.08 15.6855C21.7471 15.6855 21.4766 15.9561 21.4766 16.289V25.211C21.4766 25.5444 21.7471 25.815 22.08 25.815Z" fill="#232323"/>
<path d="M24.728 25.8156C25.0609 25.8156 25.3315 25.5451 25.3315 25.2121L25.3319 12.8281C25.3319 12.4951 25.0614 12.2246 24.7285 12.2246C24.3955 12.2246 24.125 12.4951 24.125 12.8281V25.2048C24.1245 25.545 24.395 25.8156 24.728 25.8156Z" fill="#232323"/>
<path d="M27.3769 25.8149C27.7099 25.8149 27.9804 25.5444 27.9804 25.2114V14.2148C27.9804 13.8819 27.7099 13.6113 27.3769 13.6113C27.044 13.6113 26.7734 13.8819 26.7734 14.2148V25.2114C26.773 25.5444 27.044 25.8149 27.3769 25.8149Z" fill="#232323"/>
<path d="M30.0293 25.8158C30.3622 25.8158 30.6327 25.5453 30.6327 25.2124V19.0586C30.6327 18.7256 30.3622 18.4551 30.0293 18.4551C29.6963 18.4551 29.4258 18.7256 29.4258 19.0586V25.2124C29.4258 25.5453 29.6963 25.8158 30.0293 25.8158Z" fill="#232323"/>
<path d="M32.6777 21.2148C32.3447 21.2148 32.0742 21.4854 32.0742 21.8183V25.204C32.0742 25.5369 32.3447 25.8074 32.6777 25.8074C33.0106 25.8074 33.2812 25.5369 33.2812 25.204V21.8183C33.2817 21.4921 33.0106 21.2148 32.6777 21.2148Z" fill="#232323"/>
<path d="M17.216 28.6602C16.1475 28.6602 15.2734 29.5342 15.2734 30.6027C15.2734 31.6713 16.1474 32.5453 17.216 32.5453C18.2846 32.5453 19.1586 31.6713 19.1586 30.6027C19.1518 29.5347 18.2846 28.6602 17.216 28.6602ZM17.216 31.3314C16.8139 31.3314 16.4877 31.0053 16.4877 30.6031C16.4877 30.201 16.8139 29.8748 17.216 29.8748C17.6182 29.8748 17.9443 30.201 17.9443 30.6031C17.9448 31.0053 17.6119 31.3314 17.216 31.3314Z" fill="#232323"/>
<path d="M30.7961 29.9922H21.1386C20.8057 29.9922 20.5352 30.2627 20.5352 30.5957C20.5352 30.9286 20.8057 31.1991 21.1386 31.1991H30.8029C31.1359 31.1991 31.4064 30.9286 31.4064 30.5957C31.4069 30.2695 31.1359 29.9922 30.7961 29.9922Z" fill="#232323"/>
<path d="M17.216 33.1348C16.1475 33.1348 15.2734 34.0088 15.2734 35.0773C15.2734 36.1459 16.1474 37.0199 17.216 37.0199C18.2846 37.0199 19.1586 36.1459 19.1586 35.0773C19.1518 34.0088 18.2846 33.1348 17.216 33.1348ZM17.216 35.8057C16.8139 35.8057 16.4877 35.4795 16.4877 35.0774C16.4877 34.6752 16.8139 34.349 17.216 34.349C17.6182 34.349 17.9443 34.6752 17.9443 35.0774C17.9448 35.48 17.6119 35.8057 17.216 35.8057Z" fill="#232323"/>
<path d="M30.7961 34.4668H21.1386C20.8057 34.4668 20.5352 34.7373 20.5352 35.0703C20.5352 35.4032 20.8057 35.6737 21.1386 35.6737H30.8029C31.1359 35.6737 31.4064 35.4032 31.4064 35.0703C31.4069 34.7373 31.1359 34.4668 30.7961 34.4668Z" fill="#232323"/>
<path d="M17.216 37.6094C16.1475 37.6094 15.2734 38.4834 15.2734 39.5519C15.2734 40.6205 16.1474 41.4945 17.216 41.4945C18.2846 41.4945 19.1586 40.6205 19.1586 39.5519C19.1586 38.4834 18.2846 37.6094 17.216 37.6094ZM17.216 40.2803C16.8139 40.2803 16.4877 39.9541 16.4877 39.552C16.4877 39.1498 16.8139 38.8236 17.216 38.8236C17.6182 38.8236 17.9443 39.1498 17.9443 39.552C17.9448 39.9541 17.6119 40.2803 17.216 40.2803Z" fill="#232323"/>
<path d="M30.7961 38.9414H21.1386C20.8057 38.9414 20.5352 39.2119 20.5352 39.5449C20.5352 39.8778 20.8057 40.1484 21.1386 40.1484H30.8029C31.1359 40.1484 31.4064 39.8778 31.4064 39.5449C31.4069 39.2119 31.1359 38.9414 30.7961 38.9414Z" fill="#232323"/>
</svg>
