<svg width="41" height="52" viewBox="0 0 41 52" fill="none" xmlns="http://www.w3.org/2000/svg">
<path d="M40.1593 51.2159H1.17875C0.890028 51.2159 0.65625 50.9821 0.65625 50.6934V43.8278C0.65625 41.7936 1.30146 39.8571 2.52213 38.2303C4.01187 36.2582 6.40016 34.9782 9.07723 34.7139L32.1984 34.7119C32.2153 34.7119 32.2325 34.7131 32.2494 34.7139C34.9369 34.9774 37.326 36.2594 38.8042 38.2303C40.032 39.8503 40.6816 41.7864 40.6816 43.8278L40.682 50.6934C40.682 50.9821 40.4483 51.2159 40.1595 51.2159H40.1593ZM1.70229 50.1708H39.6378V43.8282C39.6378 42.0165 39.0616 40.2986 37.9709 38.8595C36.6717 37.1263 34.5599 35.9975 32.1736 35.7573H9.12935C6.79352 35.9899 4.67141 37.1211 3.35814 38.8595C2.27583 40.3027 1.7024 42.0218 1.7024 43.8282L1.70229 50.1708Z" fill="white"/>
<path d="M29.3776 27.5673C27.9043 27.5673 26.1945 27.1843 24.26 26.42C23.9921 26.3137 23.8602 26.0106 23.9665 25.7423C24.0727 25.474 24.3759 25.3401 24.6446 25.4484C27.9832 26.768 30.5256 26.8763 32.1994 25.7648C34.2229 24.4226 34.3885 21.6297 34.4005 21.0827C34.4073 20.7948 34.6266 20.5458 34.935 20.5722C35.2237 20.5795 35.4527 20.8181 35.4459 21.1072C35.425 22.0022 35.172 25.0482 32.7772 26.6365C31.8417 27.2569 30.7053 27.5673 29.3776 27.5673Z" fill="white"/>
<path d="M31.2411 23.6144H29.7959C29.5072 23.6144 29.2734 23.3806 29.2734 23.0919C29.2734 22.8032 29.5072 22.5694 29.7959 22.5694H31.2411C33.2317 22.5694 34.8886 21.0729 35.0964 19.0887C35.108 18.9336 35.1192 18.8113 35.1192 18.6785C35.1192 18.3734 35.0851 18.0754 35.017 17.7947C34.8498 17.0894 34.4913 16.4474 33.9816 15.9381C33.2482 15.2051 32.2749 14.8009 31.2408 14.8009H29.9761C29.6873 14.8009 29.4536 14.5671 29.4536 14.2784C29.4536 13.9896 29.6873 13.7559 29.9761 13.7559H31.2408C32.5541 13.7559 33.7895 14.2683 34.7203 15.1991C35.3671 15.8451 35.8211 16.6588 36.0336 17.5518C36.1202 17.9111 36.1643 18.2908 36.1643 18.6786C36.1643 18.8418 36.1519 18.993 36.1382 19.1554C35.8724 21.715 33.7683 23.6146 31.2412 23.6146L31.2411 23.6144Z" fill="white"/>
<path d="M20.6678 31.7537C14.9644 31.7537 10.3242 25.7455 10.3242 18.3622C10.3242 10.9781 14.9646 4.9707 20.6678 4.9707C26.3716 4.9707 31.0125 10.9777 31.0125 18.3622C31.0125 25.7458 26.3721 31.7537 20.6678 31.7537ZM20.6678 6.01574C15.5407 6.01574 11.3695 11.5543 11.3695 18.3612C11.3695 25.1693 15.5407 30.7076 20.6678 30.7076C25.7954 30.7076 29.9666 25.169 29.9666 18.3612C29.9666 11.5541 25.7954 6.01574 20.6678 6.01574Z" fill="white"/>
<path d="M5.80726 18.1878C5.79924 18.1878 5.79042 18.1878 5.7824 18.1866C5.50411 18.1734 5.28516 17.954 5.28516 17.6753C6.2648 7.56811 12.8781 0 20.6702 0C28.4781 0 35.0872 7.56883 36.043 17.6045L35.5229 17.6751L35.0004 17.6546C34.0985 8.20666 27.9367 1.04486 20.6706 1.04486C13.4189 1.04486 7.25346 8.20717 6.32853 17.7049C6.30247 17.9736 6.07551 18.1869 5.80804 18.1869L5.80726 18.1878Z" fill="white"/>
<path d="M5.7139 19.6567C5.42518 19.6567 5.19141 19.4281 5.19141 19.139V19.1289C5.19141 18.8402 5.42518 18.6064 5.7139 18.6064C6.00262 18.6064 6.2364 18.8402 6.2364 19.1289C6.2364 19.4181 6.00262 19.6567 5.7139 19.6567Z" fill="white"/>
<path d="M11.5464 23.6138H10.1004C7.56602 23.6138 5.45644 21.7143 5.19334 19.196C5.17529 18.9747 5.16406 18.8315 5.16406 18.6775C5.16406 18.2898 5.20777 17.91 5.29478 17.5487C5.50691 16.6577 5.96125 15.8441 6.60806 15.1981C7.53878 14.2674 8.77903 13.7549 10.1004 13.7549H11.3656C11.6543 13.7549 11.8881 13.9887 11.8881 14.2774C11.8881 14.5661 11.6543 14.7999 11.3656 14.7999H10.1004C9.05826 14.7999 8.08056 15.2041 7.34719 15.9371C6.83752 16.4464 6.47902 17.0884 6.3118 17.7917C6.24403 18.0744 6.20954 18.3723 6.20954 18.6775C6.20954 18.8022 6.21957 18.9173 6.22999 19.04C6.44012 21.0723 8.10306 22.5688 10.1004 22.5688H11.5464C11.8352 22.5688 12.0689 22.8026 12.0689 23.0913C12.0693 23.38 11.8355 23.6138 11.5464 23.6138Z" fill="white"/>
<path d="M22.8169 27.4012H22.7864C22.142 27.3932 21.5385 27.135 21.0886 26.6734L19.7918 25.3446C19.3414 24.883 19.098 24.2739 19.1056 23.6287C19.1137 22.9847 19.3719 22.3812 19.8335 21.9321C20.2954 21.4809 20.9265 21.2419 21.5489 21.2451C22.1933 21.2532 22.7968 21.5114 23.2468 21.973L24.5432 23.3018C24.9935 23.7634 25.2373 24.3725 25.2293 25.0165C25.2217 25.6617 24.963 26.2648 24.5015 26.7152C24.0472 27.1583 23.4501 27.4012 22.8169 27.4012ZM21.5185 22.2905C21.1592 22.2905 20.8208 22.4285 20.5629 22.6795V22.6807C20.3015 22.9349 20.1551 23.277 20.1507 23.6423C20.1463 24.0076 20.2842 24.3529 20.5397 24.6139L21.8365 25.9428C22.0916 26.205 22.4336 26.351 22.7989 26.3562C23.1663 26.349 23.5099 26.2227 23.7706 25.9672C24.0328 25.7122 24.1792 25.3702 24.1836 25.0048C24.188 24.6395 24.05 24.2943 23.7946 24.0332L22.4982 22.7043C22.2431 22.4421 21.9011 22.2961 21.5358 22.2909C21.5298 22.2905 21.5241 22.2905 21.5185 22.2905Z" fill="white"/>
<path d="M9.34672 51.2166C9.058 51.2166 8.82422 50.9828 8.82422 50.6941V43.501C8.82422 43.2123 9.058 42.9785 9.34672 42.9785C9.63544 42.9785 9.86922 43.2123 9.86922 43.501V50.6941C9.86922 50.9828 9.63584 51.2166 9.34672 51.2166Z" fill="white"/>
<path d="M31.9912 51.2166C31.7025 51.2166 31.4688 50.9828 31.4688 50.6941V43.501C31.4688 43.2123 31.7025 42.9785 31.9912 42.9785C32.28 42.9785 32.5137 43.2123 32.5137 43.501V50.6941C32.5137 50.9828 32.28 51.2166 31.9912 51.2166Z" fill="white"/>
</svg>
